<svg width="135" height="100" viewBox="0 0 135 100" fill="none" xmlns="http://www.w3.org/2000/svg">
<circle cx="85" cy="50" r="50" fill="#181818"/>
<g clip-path="url(#clip0_2276_4117)">
<path fill-rule="evenodd" clip-rule="evenodd" d="M87.2752 35.0889C87.2752 37.9877 85.4717 40.6338 81.862 43.0087C78.9289 44.9465 76.6304 45.9128 74.9796 45.9128C73.8448 45.9128 73.2735 45.3756 73.2735 44.3172C73.2735 43.996 73.363 43.5589 73.5446 43.0087L63.3316 60.0461C62.7129 59.9066 62.2021 59.8381 61.8125 59.8381C61.228 59.8381 60.6435 59.9434 60.0774 60.1514L81.9752 24.1598C82.4491 24.3204 82.923 24.4046 83.3811 24.4046C83.8393 24.4046 84.4475 24.3204 85.1425 24.1598L77.2228 36.9635C79.1185 34.4412 80.5034 32.7851 81.367 32.0032C82.2306 31.2238 83.0862 30.8263 83.9367 30.8263C84.8766 30.8263 85.6717 31.237 86.3115 32.0532C86.9513 32.8747 87.2725 33.891 87.2725 35.0968V35.0889H87.2752ZM85.3031 32.9563C85.3031 31.8004 84.7818 31.2212 83.7497 31.2212C82.4544 31.2212 80.2743 33.3117 77.2228 37.4901C74.8532 40.7233 73.671 42.9507 73.671 44.1566C73.671 45.0623 74.0897 45.5152 74.9243 45.5152C76.5619 45.5152 78.7077 43.9197 81.3406 40.7286C83.9814 37.5375 85.3031 34.9468 85.3031 32.9563ZM97.8199 25.9212C97.8199 26.5399 97.554 27.1271 97.0327 27.6615C96.5114 28.2039 95.9321 28.4777 95.3134 28.4777C94.5183 28.4777 94.1154 28.0749 94.1154 27.2798C94.1154 26.6953 94.3945 26.1292 94.9369 25.5868C95.4872 25.0444 96.0717 24.7706 96.672 24.7706C97.4381 24.7706 97.8226 25.1524 97.8226 25.9186L97.8199 25.9212ZM98.1833 36.9557C98.1701 37.0057 98.0727 37.1505 97.9173 37.3795L96.7668 38.954C93.423 43.5932 90.8743 45.9128 89.1182 45.9128C88.2836 45.9128 87.5859 45.6126 87.0277 45.0202C86.4695 44.4278 86.1852 43.6827 86.1852 42.798C86.1852 41.7659 86.7986 40.1994 88.0229 38.1036L92.1882 31.0343C92.7305 31.1607 93.1702 31.2212 93.4914 31.2212C93.9654 31.2212 94.6473 31.158 95.5188 31.0343L89.4578 40.9892C88.5943 42.4242 88.1546 43.5379 88.1546 44.3199C88.1546 45.1018 88.5732 45.5178 89.4026 45.5178C90.9849 45.5178 93.7705 42.698 97.7541 37.061C97.8383 36.8872 97.9358 36.795 98.02 36.795C98.1253 36.795 98.1806 36.8503 98.1806 36.9557H98.1833ZM111.458 36.9557C111.458 37.1847 110.197 38.6828 107.696 41.4342C104.958 44.4146 102.625 45.9128 100.708 45.9128C99.4681 45.9128 98.3965 45.4388 97.5119 44.491C96.6272 43.5432 96.1823 42.4005 96.1823 41.0919C96.1823 39.6017 96.7878 38.0483 97.9937 36.4528C99.1996 34.8572 100.829 33.4776 102.87 32.3218C104.597 31.3265 106.003 30.8236 107.085 30.8236C108.402 30.8236 109.062 31.6109 109.062 33.1722C109.062 34.3991 108.644 35.6234 107.822 36.8503C107.001 38.0773 106.171 38.6881 105.355 38.6881C104.539 38.6881 104.157 38.2853 104.157 37.4901C104.157 36.5502 104.979 35.6708 106.609 34.8783C107.87 34.2596 108.504 33.4355 108.504 32.4271C108.504 31.6267 108.065 31.2212 107.196 31.2212C105.719 31.2212 103.902 32.6904 101.756 35.6234C99.6103 38.5565 98.5308 41.0208 98.5308 43.0139C98.5308 44.6779 99.3101 45.5152 100.871 45.5152C103.323 45.5152 106.645 42.7507 110.84 37.2189C111.069 36.9399 111.242 36.795 111.348 36.795C111.416 36.8082 111.453 36.8714 111.453 36.9557H111.461H111.458Z" fill="white"/>
<path fill-rule="evenodd" clip-rule="evenodd" d="M87.2751 21.4348C87.2751 23.5806 85.2952 24.6654 81.3327 24.6654C78.2048 24.6654 70.7722 23.2146 59.0637 20.3237C53.6004 23.4411 50.8622 27.3772 50.8622 32.1085C50.8622 34.3807 51.6574 35.9684 53.2213 36.8398C55.504 36.6371 57.2338 36.5371 58.3949 36.5371C61.7387 36.5371 63.4159 36.9399 63.4159 37.7482C63.4159 38.2537 62.5207 38.517 60.754 38.517C58.5081 38.517 56.0464 38.1879 53.4109 37.5586C49.8407 38.0641 45.6754 39.4648 40.9441 41.7107C28.9065 47.4636 22.8877 54.9463 22.8877 64.1193C22.8877 70.2012 26.1683 74.0742 32.7295 75.7145C31.5421 73.7451 30.9497 71.4756 30.9497 68.9006C30.9497 62.5659 34.1934 56.7129 40.6519 51.3734C47.1235 46.0234 54.2165 43.3484 61.9125 43.3484C65.4458 43.3484 68.2709 44.2198 70.3667 45.9602C72.4625 47.7005 73.5077 50.0359 73.5077 52.9637C73.5077 59.2484 70.0639 64.9118 63.1736 69.9353C56.2834 74.9694 48.5111 77.4944 39.8804 77.4944C38.1401 77.4944 36.513 77.3943 34.9964 77.2179C38.0874 81.3568 42.6818 83.4394 48.7612 83.4394C52.521 83.4394 55.612 82.8707 57.9974 81.7623L58.5766 81.6622C58.7662 81.7254 58.8662 81.865 58.8662 82.0414C58.8662 82.4969 57.6683 82.976 55.296 83.4684C52.9106 83.9607 50.7279 84.2135 48.7612 84.2135C42.0368 84.2135 36.8895 81.7781 33.3561 76.9335C28.4352 75.8356 24.5754 73.9689 21.7977 71.3439C19.0227 68.7189 17.622 65.6648 17.622 62.1972C17.622 57.5291 19.5519 53.1506 23.4143 49.0881C27.2741 45.0255 32.4346 41.9345 38.872 39.8387C42.7582 38.5512 47.2262 37.6192 52.2471 37.0373C48.6901 35.5234 46.8971 33.1275 46.8971 29.8443C46.8971 25.629 49.5089 22.0956 54.7062 19.2706C47.2367 17.4539 41.0679 16.5455 36.2207 16.5455C26.6949 16.5455 18.5698 18.9309 11.8559 23.6991C5.14731 28.462 1.793 34.228 1.793 40.9919C1.793 44.0066 2.67502 46.6079 4.44169 48.7511C6.20836 50.91 8.34101 51.9948 10.8133 51.9948C12.5168 51.9948 13.3751 51.7183 13.3751 51.1865C13.3751 50.8969 13.0591 50.7942 12.4536 50.8969C10.7633 50.8969 9.90494 50.1017 9.90494 48.5246C9.90494 47.6294 10.2841 46.8475 11.0292 46.2156C11.7875 45.5732 12.7063 45.244 13.7674 45.244C15.8237 45.244 16.8584 46.2524 16.8584 48.2482C16.8584 49.5594 16.266 50.6836 15.0917 51.5919C13.9175 52.5003 12.4799 52.9663 10.8133 52.9663C7.82233 52.9663 5.26052 51.6157 3.16737 48.9406C1.06106 46.2524 0 42.9982 0 39.2016C0 33.5119 2.48545 28.275 7.43266 23.5042C13.3119 17.8383 21.6003 15 32.2503 15C38.1796 15 46.0783 16.2111 55.92 18.6334C60.3617 16.4771 65.5353 15.3897 71.4278 15.3897C75.8063 15.3897 79.5529 15.9821 82.6333 17.1563C85.7244 18.3306 87.2778 19.7682 87.2778 21.4348H87.2751ZM86.2667 21.3347C86.2667 20.0868 84.9292 18.9625 82.2805 18.0041C79.6319 17.0458 76.5645 16.5534 73.1207 16.5534C68.3894 16.5534 64.0609 17.5881 60.1748 19.6444C68.7053 22.4063 75.8958 23.7965 81.725 23.7965C84.7528 23.7965 86.2667 22.9777 86.2667 21.3374V21.3347ZM72.6389 52.5767C72.6389 50.2676 71.7174 48.3509 69.8875 46.8369C68.0445 45.323 65.7249 44.5648 62.9235 44.5648C56.0095 44.5648 49.2325 47.4425 42.6476 53.1822C36.0496 58.9351 32.7427 64.8038 32.7427 70.7831C32.7427 72.5235 33.2719 74.3033 34.3329 76.0963C36.1996 76.4491 37.9295 76.6255 39.4934 76.6255C47.0893 76.6255 54.5219 73.9873 61.7624 68.74C69.0055 63.4795 72.6389 58.0899 72.6389 52.5898V52.5767Z" fill="white"/>
<path fill-rule="evenodd" clip-rule="evenodd" d="M81.9698 49.088L69.9954 68.0001C71.8543 65.4436 73.255 63.7243 74.1738 62.8528C75.1006 61.9813 75.9853 61.5443 76.8146 61.5443C77.8099 61.5443 78.6313 61.9471 79.2606 62.7554C79.8872 63.5637 80.2084 64.5879 80.2084 65.8122C80.2084 68.4951 78.5023 71.1333 75.0875 73.724C72.5441 75.6618 70.2824 76.6281 68.3104 76.6281C67.3915 76.6281 66.6306 76.2727 66.0593 75.5776C65.4879 74.8799 65.1957 73.961 65.1957 72.8473C65.1957 71.5177 66.0514 69.4772 67.7522 66.739L78.7998 49.0406C79.2738 49.1802 79.7951 49.2487 80.3401 49.2487C80.764 49.2487 81.3142 49.1934 81.9698 49.088ZM78.2627 63.7296C78.2627 62.5395 77.7625 61.9392 76.7646 61.9392C75.4692 61.9392 73.255 64.085 70.1271 68.3687C67.7864 71.5651 66.6095 73.724 66.6095 74.8272C66.6095 75.7592 67.0756 76.2332 67.9944 76.2332C69.59 76.2332 71.7068 74.6376 74.3265 71.4466C76.9463 68.2555 78.2627 65.6779 78.2627 63.7296ZM100.753 67.671C100.753 68.0396 99.4496 69.7668 96.8589 72.8473C94.7683 75.3696 93.1122 76.6307 91.8985 76.6307C91.0823 76.6307 90.4135 76.3253 89.9054 75.7119C89.3893 75.0984 89.1313 74.3243 89.1313 73.4054C89.1313 72.4866 89.4157 71.4071 89.9817 70.2907C88.2045 72.7709 86.8407 74.456 85.9008 75.3196C84.9608 76.191 84.0419 76.6281 83.1573 76.6281C82.2173 76.6281 81.4222 76.2253 80.7903 75.417C80.1505 74.6087 79.8293 73.5924 79.8293 72.3655C79.8293 68.9532 82.2384 65.928 87.054 63.303C89.1708 62.1314 90.8769 61.5416 92.1749 61.5416C93.2755 61.5416 93.8337 62.0787 93.8337 63.1503C93.8337 63.4505 93.7573 63.8533 93.6178 64.3483L94.9763 61.7575C95.5055 61.8839 95.9874 61.9445 96.3902 61.9445C96.8641 61.9445 97.4907 61.8813 98.2569 61.7575L93.5335 69.572C91.9037 72.3023 91.0823 74.1137 91.0823 74.9852C91.0823 75.8567 91.4298 76.2332 92.1196 76.2332C92.8095 76.2332 93.9732 75.417 95.5319 73.7951C97.0932 72.1732 98.6861 70.1591 100.303 67.7763C100.408 67.6025 100.511 67.5104 100.595 67.5104C100.7 67.5104 100.756 67.5657 100.756 67.671H100.753ZM93.4308 63.2477C93.4308 62.3763 93.028 61.9392 92.225 61.9392C90.5952 61.9392 88.4415 63.5426 85.7902 66.739C83.1283 69.9432 81.7987 72.534 81.7987 74.506C81.7987 75.6566 82.3147 76.2332 83.3442 76.2332C84.5711 76.2332 86.6959 74.1979 89.7184 70.1301C92.1907 66.7864 93.4308 64.4878 93.4308 63.2477ZM115.997 67.6789C115.997 67.8184 115.46 68.474 114.394 69.622C113.049 71.1122 111.774 71.8573 110.584 71.8573C109.239 71.8573 108.565 71.078 108.565 69.5167C108.565 69.0217 108.67 68.3871 108.878 67.621C107.764 68.5951 106.843 69.572 106.148 70.5251C105.45 71.4861 104.231 73.4423 102.512 76.3911C101.572 76.3227 101.014 76.2858 100.853 76.2858C100.784 76.2858 100.239 76.3201 99.2311 76.3911L103.599 69.3008C105.787 65.749 106.88 63.54 106.88 62.6896C106.88 62.1867 106.672 61.9366 106.261 61.9366C105.271 61.9366 103.46 63.8533 100.848 67.6684C100.695 67.9185 100.548 68.0449 100.424 68.0449C100.355 68.0317 100.318 67.9685 100.318 67.8843C100.332 67.8 100.374 67.7237 100.424 67.6684L100.906 67.0075C103.644 63.3636 105.503 61.539 106.477 61.539C107.899 61.539 108.615 62.4579 108.615 64.2904C108.615 65.6568 107.883 67.4656 106.427 69.7247C107.346 68.6662 108.23 67.7895 109.068 67.1128C109.736 65.5384 110.579 64.2087 111.582 63.1424C112.585 62.0761 113.499 61.539 114.291 61.539C114.842 61.539 115.121 61.7839 115.121 62.263C115.121 63.1135 113.881 64.3325 111.416 65.9122C111.026 66.1624 110.434 66.531 109.655 67.0049L109.333 67.2708C109.089 68.087 108.965 68.7689 108.965 69.2981C108.965 70.7883 109.528 71.5335 110.645 71.5335C112.024 71.5335 113.543 70.3829 115.173 68.1002C115.529 67.7105 115.758 67.5157 115.842 67.5157C115.947 67.5157 116.003 67.571 116.003 67.6763L115.997 67.6789Z" fill="white"/>
<path fill-rule="evenodd" clip-rule="evenodd" d="M90.3082 49.2408C91.1928 49.0144 92.1143 49.1881 92.662 49.7068C93.2149 50.2308 93.3729 51.0101 93.0043 51.8421C92.683 52.574 92.0406 53.1454 91.3455 53.4824C90.7505 53.7694 90.1002 53.8879 89.5078 53.8141C88.9707 53.7483 88.5336 53.5298 88.2414 53.2244C87.9491 52.9216 87.7727 52.5082 87.7727 52.0317C87.7727 51.5104 87.9833 50.9706 88.3625 50.4941C88.8048 49.9385 89.4235 49.4699 90.3082 49.2408Z" fill="#1D1D1B" stroke="#B2B2B2" stroke-width="0.22" stroke-miterlimit="2.61"/>
<path fill-rule="evenodd" clip-rule="evenodd" d="M89.9554 49.0354C90.8401 48.8089 91.7616 48.9827 92.3092 49.5014C92.8621 50.0253 93.0201 50.8047 92.6515 51.6367C92.3303 52.3686 91.6878 52.9399 90.9928 53.277C90.3977 53.5639 89.7474 53.6824 89.155 53.6087C88.6179 53.5402 88.1808 53.3243 87.8886 53.0189C87.5963 52.7161 87.4199 52.3028 87.4199 51.8262C87.4199 51.3049 87.6306 50.7652 88.0097 50.2886C88.452 49.7331 89.0707 49.2644 89.9554 49.0354Z" fill="white" stroke="#B2B2B2" stroke-width="0.22" stroke-miterlimit="2.61"/>
<path d="M89.4341 50.028L88.4573 50.5862C88.4757 50.4862 88.5099 50.3729 88.56 50.2755C88.8733 49.6778 89.7158 49.3408 90.4398 49.5251L89.4341 50.028Z" stroke="#B2B2B2" stroke-width="0.22" stroke-miterlimit="2.61"/>
<path fill-rule="evenodd" clip-rule="evenodd" d="M96.2954 25.2631C96.9537 25.0945 97.6409 25.2236 98.049 25.6106C98.4623 26.0003 98.5782 26.5821 98.3043 27.2035C98.0648 27.7485 97.5856 28.175 97.0669 28.4252C96.6219 28.6384 96.1401 28.7279 95.6978 28.6726C95.2976 28.6226 94.9737 28.4594 94.7552 28.233C94.5393 28.0092 94.405 27.6985 94.405 27.343C94.405 26.956 94.5604 26.5532 94.8447 26.1977C95.1738 25.7844 95.6346 25.4342 96.2954 25.2631Z" fill="#1D1D1B" stroke="#9D9D9C" stroke-width="0.22" stroke-miterlimit="2.61"/>
<path fill-rule="evenodd" clip-rule="evenodd" d="M96.0321 25.1103C96.6904 24.9418 97.3775 25.0708 97.7856 25.4579C98.199 25.8476 98.3149 26.4294 98.041 27.0508C97.8014 27.5958 97.3223 28.0223 96.8036 28.2724C96.3586 28.4883 95.8768 28.5752 95.4345 28.5199C95.0343 28.4699 94.7104 28.3067 94.4919 28.0802C94.276 27.8564 94.1417 27.5458 94.1417 27.1903C94.1417 26.8033 94.2971 26.4005 94.5814 26.045C94.9105 25.6317 95.3713 25.2815 96.0321 25.113V25.1103Z" fill="white" stroke="#9D9D9C" stroke-width="0.22" stroke-miterlimit="2.61"/>
<path d="M95.6451 25.8475L94.9185 26.2635C94.9316 26.1871 94.9579 26.1055 94.9948 26.0318C95.2265 25.5868 95.8558 25.3341 96.3955 25.4736L95.6451 25.8501V25.8475Z" stroke="#9D9D9C" stroke-width="0.22" stroke-miterlimit="2.61"/>
<path fill-rule="evenodd" clip-rule="evenodd" d="M102.936 19.1942C103.417 19.0704 103.92 19.1652 104.218 19.4469C104.518 19.7313 104.605 20.1552 104.405 20.6107C104.228 21.0082 103.881 21.3215 103.502 21.5032C103.178 21.6612 102.822 21.7244 102.501 21.6822C102.209 21.6454 101.972 21.5269 101.811 21.361C101.653 21.1978 101.556 20.9714 101.556 20.7107C101.556 20.4264 101.669 20.1315 101.877 19.8735C102.117 19.5707 102.456 19.3153 102.938 19.1915L102.936 19.1942Z" fill="#1D1D1B" stroke="#C6C6C6" stroke-width="0.22" stroke-miterlimit="2.61"/>
<path fill-rule="evenodd" clip-rule="evenodd" d="M102.743 19.0836C103.225 18.9598 103.728 19.0546 104.026 19.3363C104.326 19.6207 104.413 20.0446 104.213 20.5001C104.036 20.8976 103.689 21.2109 103.309 21.3926C102.986 21.5506 102.63 21.6138 102.309 21.5717C102.017 21.5348 101.78 21.4163 101.619 21.2504C101.461 21.0846 101.364 20.8608 101.364 20.6001C101.364 20.3158 101.477 20.0209 101.685 19.7629C101.925 19.4601 102.264 19.2047 102.746 19.0809L102.743 19.0836Z" fill="white" stroke="#C6C6C6" stroke-width="0.22" stroke-miterlimit="2.61"/>
<path d="M102.506 18.7089L101.588 19.5626L101.595 19.5703L102.513 18.7166L102.506 18.7089Z" fill="#1D1D1B"/>
<path d="M102.514 18.7145L101.597 19.5682L101.604 19.5759L102.521 18.7222L102.514 18.7145Z" fill="#20201E"/>
<path d="M102.521 18.7246L101.603 19.5784L101.61 19.5861L102.528 18.7323L102.521 18.7246Z" fill="#222221"/>
<path d="M102.527 18.7284L101.61 19.5822L101.617 19.5899L102.535 18.7361L102.527 18.7284Z" fill="#252524"/>
<path d="M102.531 18.7358L101.614 19.5896L101.621 19.5973L102.539 18.7436L102.531 18.7358Z" fill="#282826"/>
<path d="M102.54 18.7441L101.623 19.5979L101.63 19.6056L102.547 18.7519L102.54 18.7441Z" fill="#2A2A29"/>
<path d="M102.545 18.7496L101.627 19.6034L101.634 19.6111L102.552 18.7573L102.545 18.7496Z" fill="#2D2D2C"/>
<path d="M102.553 18.7579L101.636 19.6117L101.643 19.6194L102.561 18.7656L102.553 18.7579Z" fill="#2F2F2E"/>
<path d="M102.56 18.7654L101.642 19.6191L101.65 19.6269L102.567 18.7731L102.56 18.7654Z" fill="#323130"/>
<path d="M102.567 18.7692L101.649 19.6229L101.656 19.6306L102.574 18.7769L102.567 18.7692Z" fill="#343433"/>
<path d="M102.571 18.7793L101.653 19.6331L101.66 19.6408L102.578 18.787L102.571 18.7793Z" fill="#363635"/>
<path d="M102.579 18.7849L101.662 19.6387L101.669 19.6464L102.586 18.7926L102.579 18.7849Z" fill="#393837"/>
<path d="M102.586 18.795L101.668 19.6488L101.676 19.6565L102.593 18.8028L102.586 18.795Z" fill="#3B3B3A"/>
<path d="M102.591 18.8005L101.673 19.6543L101.68 19.662L102.598 18.8083L102.591 18.8005Z" fill="#3D3D3C"/>
<path d="M102.599 18.8088L101.682 19.6626L101.689 19.6703L102.606 18.8166L102.599 18.8088Z" fill="#3F3F3E"/>
<path d="M102.606 18.8163L101.688 19.67L101.695 19.6778L102.613 18.824L102.606 18.8163Z" fill="#414140"/>
<path d="M102.61 18.8201L101.692 19.6738L101.7 19.6815L102.617 18.8278L102.61 18.8201Z" fill="#444342"/>
<path d="M102.616 18.8302L101.699 19.684L101.706 19.6917L102.624 18.8379L102.616 18.8302Z" fill="#464545"/>
<path d="M102.625 18.8358L101.708 19.6896L101.715 19.6973L102.632 18.8435L102.625 18.8358Z" fill="#484847"/>
<path d="M102.63 18.844L101.712 19.6978L101.719 19.7055L102.637 18.8517L102.63 18.844Z" fill="#4A4A49"/>
<path d="M102.638 18.8496L101.721 19.7034L101.728 19.7111L102.645 18.8573L102.638 18.8496Z" fill="#4C4C4B"/>
<path d="M102.645 18.8597L101.727 19.7135L101.735 19.7212L102.652 18.8674L102.645 18.8597Z" fill="#4E4E4D"/>
<path d="M102.652 18.8635L101.734 19.7173L101.741 19.725L102.659 18.8712L102.652 18.8635Z" fill="#50504F"/>
<path d="M102.656 18.871L101.738 19.7247L101.745 19.7324L102.663 18.8787L102.656 18.871Z" fill="#525251"/>
<path d="M102.664 18.8793L101.747 19.733L101.754 19.7407L102.671 18.887L102.664 18.8793Z" fill="#555454"/>
<path d="M102.669 18.8848L101.751 19.7385L101.759 19.7462L102.676 18.8925L102.669 18.8848Z" fill="#575656"/>
<path d="M102.677 18.8931L101.76 19.7468L101.767 19.7545L102.685 18.9008L102.677 18.8931Z" fill="#595858"/>
<path d="M102.684 18.9005L101.767 19.7543L101.774 19.762L102.691 18.9082L102.684 18.9005Z" fill="#5B5A5A"/>
<path d="M102.691 18.9043L101.773 19.7581L101.78 19.7658L102.698 18.912L102.691 18.9043Z" fill="#5C5C5B"/>
<path d="M102.695 18.9143L101.777 19.7681L101.785 19.7758L102.702 18.922L102.695 18.9143Z" fill="#5E5E5D"/>
<path d="M102.703 18.92L101.786 19.7738L101.793 19.7815L102.71 18.9278L102.703 18.92Z" fill="#60605F"/>
<path d="M102.708 18.9282L101.791 19.782L101.798 19.7897L102.715 18.9359L102.708 18.9282Z" fill="#626261"/>
<path d="M102.717 18.9338L101.799 19.7876L101.806 19.7953L102.724 18.9415L102.717 18.9338Z" fill="#646463"/>
<path d="M102.723 18.9413L101.806 19.795L101.813 19.8028L102.73 18.949L102.723 18.9413Z" fill="#666665"/>
<path d="M102.73 18.9478L101.812 19.8015L101.82 19.8092L102.737 18.9555L102.73 18.9478Z" fill="#686867"/>
<path d="M102.737 18.9552L101.819 19.809L101.826 19.8167L102.744 18.9629L102.737 18.9552Z" fill="#6A6969"/>
<path d="M102.742 18.9635L101.825 19.8173L101.832 19.825L102.75 18.9712L102.742 18.9635Z" fill="#6C6B6B"/>
<path d="M102.747 18.969L101.83 19.8228L101.837 19.8305L102.754 18.9767L102.747 18.969Z" fill="#6E6D6D"/>
<path d="M102.756 18.9746L101.838 19.8284L101.846 19.8361L102.763 18.9823L102.756 18.9746Z" fill="#6F6F6F"/>
<path d="M102.762 18.9847L101.845 19.8385L101.852 19.8462L102.77 18.9925L102.762 18.9847Z" fill="#717170"/>
<path d="M102.769 18.9885L101.852 19.8423L101.859 19.85L102.776 18.9962L102.769 18.9885Z" fill="#737372"/>
<path d="M102.776 18.9985L101.858 19.8523L101.865 19.86L102.783 19.0062L102.776 18.9985Z" fill="#757574"/>
<path d="M102.784 19.0043L101.867 19.858L101.874 19.8657L102.791 19.012L102.784 19.0043Z" fill="#777776"/>
<path d="M102.786 19.0125L101.869 19.8662L101.876 19.8739L102.794 19.0202L102.786 19.0125Z" fill="#797978"/>
<path d="M102.795 19.0181L101.878 19.8718L101.885 19.8795L102.802 19.0258L102.795 19.0181Z" fill="#7B7B7A"/>
<path d="M102.802 19.0282L101.884 19.882L101.891 19.8897L102.809 19.0359L102.802 19.0282Z" fill="#7D7D7C"/>
<path d="M102.81 19.0338L101.893 19.8876L101.9 19.8953L102.817 19.0415L102.81 19.0338Z" fill="#7F7E7E"/>
<path d="M102.815 19.0394L101.897 19.8932L101.905 19.9009L102.822 19.0471L102.815 19.0394Z" fill="#818080"/>
<path d="M102.821 19.0477L101.903 19.9015L101.91 19.9092L102.828 19.0554L102.821 19.0477Z" fill="#828282"/>
<path d="M102.827 19.0552L101.91 19.9089L101.917 19.9166L102.835 19.0629L102.827 19.0552Z" fill="#848483"/>
<path d="M102.834 19.0588L101.917 19.9126L101.924 19.9203L102.841 19.0665L102.834 19.0588Z" fill="#868685"/>
<path d="M102.841 19.069L101.923 19.9227L101.931 19.9304L102.848 19.0767L102.841 19.069Z" fill="#888887"/>
<path d="M102.849 19.0747L101.932 19.9285L101.939 19.9362L102.857 19.0824L102.849 19.0747Z" fill="#8A8989"/>
<path d="M102.854 19.0828L101.937 19.9365L101.944 19.9442L102.861 19.0905L102.854 19.0828Z" fill="#8B8B8B"/>
<path d="M102.863 19.0885L101.945 19.9423L101.952 19.95L102.87 19.0962L102.863 19.0885Z" fill="#8D8D8C"/>
<path d="M102.867 19.0986L101.949 19.9524L101.956 19.9601L102.874 19.1063L102.867 19.0986Z" fill="#8F8E8E"/>
<path d="M102.873 19.1023L101.956 19.9561L101.963 19.9638L102.881 19.11L102.873 19.1023Z" fill="#909090"/>
<path d="M102.88 19.1097L101.963 19.9635L101.97 19.9712L102.887 19.1175L102.88 19.1097Z" fill="#929291"/>
<path d="M102.889 19.118L101.971 19.9718L101.978 19.9795L102.896 19.1258L102.889 19.118Z" fill="#949493"/>
<path d="M102.893 19.1237L101.976 19.9774L101.983 19.9851L102.9 19.1314L102.893 19.1237Z" fill="#959595"/>
<path d="M102.902 19.132L101.984 19.9857L101.992 19.9934L102.909 19.1397L102.902 19.132Z" fill="#979796"/>
<path d="M102.906 19.1394L101.988 19.9932L101.995 20.0009L102.913 19.1471L102.906 19.1394Z" fill="#999998"/>
<path d="M102.913 19.1431L101.995 19.9968L102.002 20.0045L102.92 19.1508L102.913 19.1431Z" fill="#9B9A9A"/>
<path d="M102.919 19.1532L102.002 20.007L102.009 20.0147L102.926 19.1609L102.919 19.1532Z" fill="#9C9C9C"/>
<path d="M102.926 19.1606L102.008 20.0144L102.015 20.0221L102.933 19.1684L102.926 19.1606Z" fill="#9E9E9D"/>
<path d="M102.932 19.167L102.015 20.0208L102.022 20.0285L102.94 19.1747L102.932 19.167Z" fill="#A09F9F"/>
<path d="M102.939 19.1746L102.022 20.0283L102.029 20.036L102.946 19.1823L102.939 19.1746Z" fill="#A1A1A1"/>
<path d="M102.948 19.1827L102.03 20.0365L102.037 20.0442L102.955 19.1905L102.948 19.1827Z" fill="#A3A3A2"/>
<path d="M102.95 19.1884L102.032 20.0421L102.04 20.0498L102.957 19.1961L102.95 19.1884Z" fill="#A5A5A4"/>
<path d="M102.958 19.194L102.041 20.0477L102.048 20.0554L102.966 19.2017L102.958 19.194Z" fill="#A6A6A6"/>
<path d="M102.965 19.2041L102.047 20.0579L102.055 20.0656L102.972 19.2118L102.965 19.2041Z" fill="#A8A8A8"/>
<path d="M102.972 19.2079L102.054 20.0616L102.061 20.0694L102.979 19.2156L102.972 19.2079Z" fill="#AAAAA9"/>
<path d="M102.978 19.2179L102.061 20.0717L102.068 20.0794L102.985 19.2256L102.978 19.2179Z" fill="#ABABAB"/>
<path d="M102.987 19.2236L102.069 20.0774L102.077 20.0851L102.994 19.2313L102.987 19.2236Z" fill="#ADADAD"/>
<path d="M102.992 19.2318L102.074 20.0856L102.081 20.0933L102.999 19.2395L102.992 19.2318Z" fill="#AFAFAE"/>
<path d="M102.998 19.2374L102.08 20.0912L102.087 20.0989L103.005 19.2451L102.998 19.2374Z" fill="#B0B0B0"/>
<path d="M103.004 19.2449L102.087 20.0986L102.094 20.1063L103.011 19.2526L103.004 19.2449Z" fill="#B2B2B2"/>
<path d="M103.011 19.2512L102.093 20.105L102.101 20.1127L103.018 19.2589L103.011 19.2512Z" fill="#B4B4B3"/>
<path d="M103.017 19.2587L102.1 20.1124L102.107 20.1201L103.025 19.2664L103.017 19.2587Z" fill="#B5B5B5"/>
<path d="M103.026 19.2644L102.109 20.1182L102.116 20.1259L103.033 19.2721L103.026 19.2644Z" fill="#B7B7B6"/>
<path d="M103.033 19.2745L102.115 20.1283L102.122 20.136L103.04 19.2822L103.033 19.2745Z" fill="#B8B8B8"/>
<path d="M103.037 19.2782L102.119 20.132L102.126 20.1397L103.044 19.2859L103.037 19.2782Z" fill="#BABABA"/>
<path d="M103.043 19.2883L102.126 20.1421L102.133 20.1498L103.05 19.296L103.043 19.2883Z" fill="#BCBCBB"/>
<path d="M103.052 19.2939L102.134 20.1477L102.141 20.1554L103.059 19.3017L103.052 19.2939Z" fill="#BDBDBD"/>
<path d="M103.057 19.2996L102.139 20.1533L102.146 20.161L103.064 19.3073L103.057 19.2996Z" fill="#BFBFBE"/>
<path d="M103.065 19.3079L102.148 20.1616L102.155 20.1693L103.072 19.3156L103.065 19.3079Z" fill="#C0C0C0"/>
<path d="M103.072 19.3153L102.154 20.1691L102.161 20.1768L103.079 19.323L103.072 19.3153Z" fill="#C2C2C1"/>
<path d="M103.076 19.3217L102.158 20.1754L102.165 20.1831L103.083 19.3294L103.076 19.3217Z" fill="#C3C3C3"/>
<path d="M103.083 19.3291L102.165 20.1829L102.172 20.1906L103.09 19.3368L103.083 19.3291Z" fill="#C5C5C5"/>
<path d="M103.091 19.3374L102.173 20.1912L102.181 20.1989L103.098 19.3451L103.091 19.3374Z" fill="#C7C6C6"/>
<path d="M103.096 19.3429L102.178 20.1967L102.186 20.2044L103.103 19.3506L103.096 19.3429Z" fill="#C8C8C8"/>
<path d="M103.104 19.3486L102.187 20.2024L102.194 20.2101L103.112 19.3563L103.104 19.3486Z" fill="#CAC9C9"/>
<path d="M103.111 19.3588L102.193 20.2125L102.201 20.2202L103.118 19.3665L103.111 19.3588Z" fill="#CBCBCB"/>
<path d="M103.115 19.3624L102.198 20.2162L102.205 20.2239L103.122 19.3701L103.115 19.3624Z" fill="#CDCDCC"/>
<path d="M103.122 19.3726L102.204 20.2263L102.211 20.234L103.129 19.3803L103.122 19.3726Z" fill="#CECECE"/>
<path d="M103.13 19.3782L102.213 20.2319L102.22 20.2396L103.137 19.3859L103.13 19.3782Z" fill="#D0D0D0"/>
<path d="M103.135 19.3864L102.218 20.2401L102.225 20.2478L103.142 19.3941L103.135 19.3864Z" fill="#D1D1D1"/>
<path d="M103.144 19.3921L102.226 20.2458L102.233 20.2536L103.151 19.3998L103.144 19.3921Z" fill="#D3D3D3"/>
<path d="M103.15 19.3995L102.233 20.2533L102.24 20.261L103.157 19.4072L103.15 19.3995Z" fill="#D5D4D4"/>
<path d="M103.157 19.4059L102.239 20.2596L102.247 20.2674L103.164 19.4136L103.157 19.4059Z" fill="#D6D6D6"/>
<path d="M103.161 19.4133L102.243 20.2671L102.25 20.2748L103.168 19.421L103.161 19.4133Z" fill="#D8D8D7"/>
<path d="M103.169 19.4216L102.252 20.2754L102.259 20.2831L103.176 19.4293L103.169 19.4216Z" fill="#D9D9D9"/>
<path d="M103.174 19.4271L102.257 20.2809L102.264 20.2886L103.181 19.4348L103.174 19.4271Z" fill="#DBDBDA"/>
<path d="M103.183 19.4329L102.265 20.2866L102.272 20.2943L103.19 19.4406L103.183 19.4329Z" fill="#DCDCDC"/>
<path d="M103.189 19.443L102.272 20.2968L102.279 20.3045L103.196 19.4507L103.189 19.443Z" fill="#DEDEDD"/>
<path d="M103.196 19.4467L102.279 20.3004L102.286 20.3081L103.203 19.4544L103.196 19.4467Z" fill="#DFDFDF"/>
<path d="M103.2 19.4568L102.282 20.3105L102.29 20.3183L103.207 19.4645L103.2 19.4568Z" fill="#E1E0E0"/>
<path d="M103.208 19.4624L102.291 20.3162L102.298 20.3239L103.216 19.4701L103.208 19.4624Z" fill="#E2E2E2"/>
<path d="M103.213 19.468L102.296 20.3218L102.303 20.3295L103.221 19.4757L103.213 19.468Z" fill="#E3E3E3"/>
<path d="M103.222 19.4763L102.304 20.3301L102.312 20.3378L103.229 19.484L103.222 19.4763Z" fill="#E5E5E5"/>
<path d="M103.229 19.4838L102.311 20.3375L102.318 20.3452L103.236 19.4915L103.229 19.4838Z" fill="#E6E6E6"/>
<path d="M103.235 19.4901L102.318 20.3439L102.325 20.3516L103.242 19.4978L103.235 19.4901Z" fill="#E8E8E8"/>
<path d="M103.242 19.4976L102.324 20.3513L102.332 20.359L103.249 19.5053L103.242 19.4976Z" fill="#E9E9E9"/>
<path d="M103.248 19.5032L102.33 20.3569L102.337 20.3646L103.255 19.5109L103.248 19.5032Z" fill="#EBEBEB"/>
<path d="M103.254 19.5133L102.337 20.3671L102.344 20.3748L103.261 19.521L103.254 19.5133Z" fill="#ECECEC"/>
<path d="M103.259 19.5189L102.342 20.3727L102.349 20.3804L103.266 19.5266L103.259 19.5189Z" fill="#EEEEEE"/>
<path d="M103.268 19.5272L102.35 20.381L102.357 20.3887L103.275 19.5349L103.268 19.5272Z" fill="#EFEFEF"/>
<path d="M103.274 19.5347L102.357 20.3884L102.364 20.3961L103.281 19.5424L103.274 19.5347Z" fill="#F1F1F1"/>
<path d="M103.281 19.541L102.364 20.3948L102.371 20.4025L103.288 19.5487L103.281 19.541Z" fill="#F2F2F2"/>
<path d="M103.288 19.5485L102.37 20.4022L102.377 20.4099L103.295 19.5562L103.288 19.5485Z" fill="#F4F4F3"/>
<path d="M103.293 19.5568L102.376 20.4105L102.383 20.4182L103.301 19.5645L103.293 19.5568Z" fill="#F5F5F5"/>
<path d="M103.298 19.5623L102.381 20.416L102.388 20.4237L103.305 19.57L103.298 19.5623Z" fill="#F6F6F6"/>
<path d="M103.307 19.568L102.389 20.4218L102.397 20.4295L103.314 19.5757L103.307 19.568Z" fill="#F8F8F8"/>
<path d="M103.313 19.578L102.396 20.4318L102.403 20.4395L103.321 19.5857L103.313 19.578Z" fill="#F9F9F9"/>
<path d="M103.32 19.5818L102.403 20.4355L102.41 20.4433L103.327 19.5895L103.32 19.5818Z" fill="#FBFBFB"/>
<path d="M103.324 19.5892L102.407 20.443L102.414 20.4507L103.331 19.5969L103.324 19.5892Z" fill="#FCFCFC"/>
<path d="M103.333 19.5975L102.415 20.4513L102.422 20.459L103.34 19.6052L103.333 19.5975Z" fill="#FEFEFE"/>
<path d="M103.338 19.603L102.42 20.4568L102.427 20.4645L103.345 19.6107L103.338 19.603Z" fill="white"/>
<path d="M102.459 19.6233L101.927 19.9261C101.938 19.8708 101.956 19.8102 101.983 19.7576C102.154 19.4311 102.612 19.2494 103.007 19.3495L102.459 19.6233V19.6233Z" stroke="#C6C6C6" stroke-width="0.22" stroke-miterlimit="2.61"/>
<path fill-rule="evenodd" clip-rule="evenodd" d="M101.68 52.6266C102.925 52.3054 104.226 52.5529 104.994 53.2822C105.774 54.0194 105.995 55.1147 105.476 56.2916C105.023 57.3211 104.12 58.1294 103.138 58.6033C102.301 59.0088 101.385 59.1746 100.55 59.0693C99.7945 58.9745 99.181 58.6665 98.7677 58.2399C98.3569 57.8134 98.1068 57.2315 98.1068 56.5602C98.1068 55.8282 98.4017 55.0647 98.9362 54.3933C99.5575 53.6113 100.432 52.9505 101.677 52.6292L101.68 52.6266Z" fill="#1D1D1B" stroke="#C6C6C6" stroke-width="0.22" stroke-miterlimit="2.61"/>
<path fill-rule="evenodd" clip-rule="evenodd" d="M101.185 52.3398C102.43 52.0185 103.731 52.266 104.499 52.9953C105.279 53.7326 105.5 54.8278 104.981 56.0047C104.528 57.0342 103.625 57.8425 102.643 58.3164C101.806 58.7219 100.89 58.8878 100.055 58.7824C99.2995 58.6877 98.686 58.3796 98.2727 57.9531C97.8619 57.5266 97.6118 56.9447 97.6118 56.2733C97.6118 55.5413 97.9067 54.7778 98.4412 54.1064C99.0625 53.3245 99.9367 52.6636 101.182 52.3424L101.185 52.3398Z" fill="white" stroke="#C6C6C6" stroke-width="0.22" stroke-miterlimit="2.61"/>
<path d="M100.45 53.7351L99.0758 54.5197C99.1021 54.3775 99.1495 54.2195 99.2232 54.0826C99.6629 53.2401 100.85 52.7662 101.869 53.0242L100.453 53.7325L100.45 53.7351Z" stroke="#C6C6C6" stroke-width="0.22" stroke-miterlimit="2.61"/>
<path fill-rule="evenodd" clip-rule="evenodd" d="M111.148 42.4243C112.172 42.161 113.238 42.3637 113.87 42.9614C114.51 43.5669 114.691 44.4674 114.268 45.4337C113.896 46.2788 113.154 46.9423 112.348 47.332C111.658 47.6663 110.908 47.8006 110.223 47.7164C109.602 47.6374 109.097 47.3873 108.76 47.0345C108.423 46.6843 108.217 46.2077 108.217 45.6548C108.217 45.0519 108.459 44.4253 108.899 43.875C109.41 43.2326 110.126 42.6875 111.15 42.4269L111.148 42.4243Z" fill="#1D1D1B" stroke="#9D9D9C" stroke-width="0.22" stroke-miterlimit="2.61"/>
<path fill-rule="evenodd" clip-rule="evenodd" d="M110.742 42.1872C111.766 41.9239 112.833 42.1266 113.465 42.7243C114.104 43.3299 114.286 44.2303 113.862 45.1966C113.491 46.0417 112.748 46.7052 111.943 47.0949C111.253 47.4293 110.503 47.5636 109.818 47.4767C109.197 47.3977 108.691 47.1476 108.354 46.7948C108.017 46.4446 107.812 45.968 107.812 45.4151C107.812 44.8122 108.054 44.1856 108.494 43.6353C109.004 42.9929 109.721 42.4505 110.745 42.1872H110.742Z" fill="white" stroke="#9D9D9C" stroke-width="0.22" stroke-miterlimit="2.61"/>
<path d="M110.139 43.3352L109.01 43.9802C109.031 43.8644 109.07 43.7354 109.131 43.6222C109.491 42.9297 110.468 42.54 111.306 42.7533L110.142 43.3352H110.139Z" stroke="#9D9D9C" stroke-width="0.22" stroke-miterlimit="2.61"/>
<path fill-rule="evenodd" clip-rule="evenodd" d="M110.321 24.8866C111.082 24.6917 111.877 24.8418 112.346 25.2868C112.822 25.737 112.956 26.4084 112.64 27.1245C112.364 27.7538 111.811 28.2461 111.213 28.5358C110.7 28.7832 110.142 28.8833 109.631 28.8201C109.17 28.7622 108.794 28.5752 108.541 28.312C108.291 28.0513 108.138 27.6959 108.138 27.2851C108.138 26.8375 108.317 26.3715 108.644 25.9608C109.023 25.4842 109.557 25.0788 110.318 24.8839L110.321 24.8866Z" fill="#1D1D1B" stroke="#C6C6C6" stroke-width="0.22" stroke-miterlimit="2.61"/>
<path fill-rule="evenodd" clip-rule="evenodd" d="M110.018 24.7101C110.779 24.5152 111.574 24.6653 112.043 25.1103C112.519 25.5605 112.654 26.2319 112.338 26.948C112.061 27.5773 111.508 28.0696 110.911 28.3592C110.397 28.6067 109.839 28.7068 109.331 28.6436C108.87 28.5857 108.494 28.3987 108.241 28.1354C107.991 27.8748 107.838 27.5193 107.838 27.1086C107.838 26.661 108.02 26.195 108.344 25.7843C108.723 25.3077 109.257 24.9023 110.018 24.7074V24.7101Z" fill="white" stroke="#C6C6C6" stroke-width="0.22" stroke-miterlimit="2.61"/>
<path d="M109.57 25.5658L108.731 26.045C108.746 25.9581 108.775 25.8634 108.82 25.7791C109.089 25.2631 109.815 24.9734 110.437 25.1341L109.57 25.5685V25.5658Z" stroke="#C6C6C6" stroke-width="0.22" stroke-miterlimit="2.61"/>
</g>
<defs>
<clipPath id="clip0_2276_4117">
<rect width="116" height="75.8273" fill="white" transform="translate(0 15)"/>
</clipPath>
</defs>
</svg>
