<svg width="119" height="33" viewBox="0 0 119 33" fill="none" xmlns="http://www.w3.org/2000/svg">
<path fill-rule="evenodd" clip-rule="evenodd" d="M56.4652 18.472V32.0812H52.4714V18.472H44.5295V15.5105H64.407V18.472H56.4652Z" fill="white"/>
<path fill-rule="evenodd" clip-rule="evenodd" d="M38.3906 15.3286C39.2604 15.3286 40.1124 15.573 40.848 16.0336C41.5836 16.4942 42.1726 17.1522 42.5469 17.9313C42.9212 18.7104 43.0654 19.5787 42.9628 20.4358C42.8602 21.2928 42.5151 22.1035 41.9673 22.7739C42.7795 23.4932 43.3523 24.4402 43.6099 25.4897C43.8675 26.5392 43.7977 27.6415 43.4099 28.6508C43.022 29.6601 42.3342 30.5286 41.4378 31.1414C40.5413 31.7542 39.4784 32.0823 38.3898 32.0823C37.3012 32.0823 36.2383 31.7542 35.3418 31.1414C34.4453 30.5286 33.7576 29.6601 33.3697 28.6508C32.9818 27.6415 32.9121 26.5392 33.1697 25.4897C33.4273 24.4402 34.0001 23.4932 34.8123 22.7739C34.2645 22.1034 33.9193 21.2927 33.8168 20.4356C33.7142 19.5784 33.8585 18.71 34.2328 17.9309C34.6072 17.1518 35.1964 16.4939 35.9321 16.0333C36.6678 15.5727 37.5199 15.3284 38.3898 15.3286H38.3906ZM38.3906 24.4163C38.078 24.4107 37.7675 24.4669 37.4772 24.5818C37.1868 24.6966 36.9224 24.8676 36.6994 25.0849C36.4764 25.3023 36.2993 25.5615 36.1784 25.8475C36.0575 26.1335 35.9952 26.4405 35.9952 26.7507C35.9952 27.0608 36.0575 27.3678 36.1784 27.6538C36.2993 27.9398 36.4764 28.1991 36.6994 28.4164C36.9224 28.6337 37.1868 28.8048 37.4772 28.9196C37.7675 29.0344 38.078 29.0906 38.3906 29.0851C39.0072 29.0741 39.5948 28.8233 40.027 28.3867C40.4591 27.9501 40.7013 27.3626 40.7013 26.7507C40.7013 26.1387 40.4591 25.5512 40.027 25.1146C39.5948 24.6781 39.0072 24.4273 38.3906 24.4163ZM38.3906 18.192C38.1605 18.1852 37.9314 18.2243 37.7168 18.3069C37.5023 18.3896 37.3066 18.5142 37.1415 18.6732C36.9763 18.8323 36.845 19.0226 36.7554 19.233C36.6657 19.4433 36.6195 19.6694 36.6195 19.8977C36.6195 20.1261 36.6657 20.3522 36.7554 20.5625C36.845 20.7728 36.9763 20.9632 37.1415 21.1223C37.3066 21.2813 37.5023 21.4059 37.7168 21.4885C37.9314 21.5712 38.1605 21.6103 38.3906 21.6035C38.8376 21.5903 39.262 21.4048 39.5735 21.0864C39.885 20.7679 40.0593 20.3415 40.0593 19.8977C40.0593 19.4539 39.885 19.0276 39.5735 18.7091C39.262 18.3907 38.8376 18.2052 38.3906 18.192Z" fill="#E00000"/>
<path fill-rule="evenodd" clip-rule="evenodd" d="M79.8684 18.3626H70.6868V22.9574H79.8684C80.3632 23.0056 80.8608 22.8989 81.2915 22.6523C81.5905 22.3835 81.7359 21.9946 81.6818 21.6072V19.7119C81.7025 19.5197 81.6781 19.3252 81.6103 19.1439C81.5426 18.9626 81.4334 18.7993 81.2915 18.6669C80.8607 18.4205 80.3631 18.3141 79.8684 18.3626ZM66.7844 32.0813V15.5098H81.5669C82.6051 15.4232 83.6418 15.6921 84.5044 16.2717C84.8359 16.5856 85.091 16.9705 85.2501 17.3969C85.4093 17.8233 85.4684 18.2801 85.423 18.7326V22.6304C85.4682 23.0795 85.409 23.5329 85.2499 23.9558C85.0908 24.3786 84.836 24.7596 84.5052 25.0694C83.6335 25.6278 82.6015 25.8877 81.5669 25.8094H79.2717L87.0987 32.0813H81.4292L74.5429 25.8094H70.7333V32.0813H66.7852H66.7844ZM89.8071 32.0813V15.5106H93.7788V32.0813H89.8071ZM96.0847 32.0813L104.21 23.5886L95.9469 15.5106H101.318L106.827 20.8672L112.038 15.5106H116.652L109.169 23.1099L118.396 32.0805H112.91L106.621 25.8751L100.836 32.0813H96.0847ZM49.3338 5.846H45.2472V10.4008H49.3338V8.7841L50.3208 8.98873V9.71741C50.3703 10.1282 50.2636 10.5426 50.0217 10.8795C49.8708 10.9975 49.6977 11.0844 49.5126 11.1352C49.3274 11.186 49.1339 11.1997 48.9434 11.1755H45.6375C45.447 11.1997 45.2535 11.186 45.0683 11.1352C44.8832 11.0844 44.7101 10.9975 44.5592 10.8795C44.327 10.5382 44.2216 10.1274 44.2609 9.71741V6.46065C44.2218 6.05094 44.3272 5.64046 44.5592 5.29931C44.7084 5.17738 44.8806 5.08637 45.0659 5.03163C45.2511 4.9769 45.4455 4.95957 45.6375 4.98065H48.989C49.1812 4.95946 49.3758 4.97675 49.5611 5.03148C49.7465 5.08622 49.9189 5.17729 50.0681 5.29931C50.3094 5.63608 50.4159 6.05063 50.3664 6.46065V7.05265L49.3794 7.23539V5.846H49.3338ZM59.204 8.87471H62.3941L60.7877 5.70933L59.204 8.87471ZM57.0922 11.1529L60.3052 4.93459H61.3386L64.6208 11.1529H63.5417L62.7617 9.71816H58.7908L58.1706 11.1982L57.0922 11.1529ZM76.8784 5.846H72.7005V7.57669H76.5336C76.9186 7.53012 77.3065 7.63653 77.6127 7.87269C77.835 8.21778 77.9324 8.6278 77.8882 9.0348V9.71741C77.9324 10.1246 77.8352 10.5345 77.6127 10.8795C77.4617 10.9975 77.2885 11.0845 77.1032 11.1354C76.918 11.1862 76.7243 11.1998 76.5336 11.1755H73.0909C72.891 11.2126 72.6854 11.2074 72.4877 11.1603C72.2899 11.1132 72.1044 11.0252 71.9433 10.9022C71.6795 10.5657 71.5561 10.1416 71.5985 9.71741V9.55884L72.5171 9.3308V10.3328H76.9005V8.46545H73.2065C72.8143 8.51298 72.4188 8.40648 72.1046 8.16869C71.9219 7.81021 71.8654 7.4014 71.944 7.00735V6.46065C71.9001 6.05372 71.9972 5.64407 72.2195 5.29931C72.3728 5.17671 72.549 5.08544 72.738 5.03075C72.927 4.97606 73.125 4.95903 73.3207 4.98065H76.4423C76.6344 4.95957 76.8288 4.9769 77.014 5.03163C77.1992 5.08637 77.3715 5.17738 77.5207 5.29931C77.7549 5.59599 77.862 5.9722 77.819 6.34663V6.48331L76.9933 6.734V5.846H76.8784ZM86.0828 11.1982V5.00331H87.0698V11.1982H86.0828ZM95.4477 11.1982V4.98065H96.0679L100.474 9.14882L100.796 9.49012L101.141 9.9228V4.98065H102.036V11.1982H101.485L96.8944 6.89408C96.6988 6.72093 96.5287 6.5214 96.3891 6.30133V11.1982H95.4477ZM111.24 10.3328H116.107V5.77729H111.24V10.3328ZM110.253 6.46065C110.204 6.0502 110.31 5.63617 110.551 5.29931C110.701 5.17729 110.873 5.08622 111.058 5.03148C111.244 4.97675 111.438 4.95946 111.63 4.98065H115.716C115.909 4.95946 116.103 4.97675 116.288 5.03148C116.474 5.08622 116.646 5.17729 116.795 5.29931C117.018 5.64439 117.115 6.05441 117.07 6.46065V9.71741C117.115 10.1245 117.018 10.5344 116.795 10.8795C116.644 10.9975 116.471 11.0845 116.286 11.1354C116.101 11.1862 115.907 11.1998 115.716 11.1755H111.63C111.437 11.2022 111.242 11.1875 111.056 11.1325C110.87 11.0776 110.698 10.9835 110.551 10.8569C110.311 10.5277 110.205 10.1209 110.253 9.71741V6.46065ZM30.8961 32.0586V0L15.5923 17.5788C16.3084 18.2591 17.2611 19.391 18.4498 20.9752L26.174 13.1841V32.0813L30.8961 32.0586ZM0.0182641 0.205388L0 5.772C2.4474 6.78233 5.68928 8.70935 10.3459 12.7295L0.0190252 0.205388H0.0182641ZM0 32.0813H4.59039V15.5846C3.30353 14.6293 1.28534 13.2966 0 12.6699V32.0813Z" fill="white"/>
<path fill-rule="evenodd" clip-rule="evenodd" d="M0 6.84875V11.5931C4.30653 13.77 11.4189 19.5994 14.6927 24.3792L17.7725 21.5899C13.8785 16.4982 5.97771 9.29982 0 6.84875Z" fill="#E00000"/>
</svg>
