<svg width="155" height="140" viewBox="0 0 155 140" fill="none" xmlns="http://www.w3.org/2000/svg">
<g filter="url(#filter0_d_2276_4430)">
<circle cx="85" cy="70" r="50" fill="#181818"/>
<circle cx="85" cy="70" r="49.5" stroke="white" stroke-opacity="0.2"/>
</g>
<g clip-path="url(#clip0_2276_4430)">
<path fill-rule="evenodd" clip-rule="evenodd" d="M87.2752 55.0889C87.2752 57.9877 85.4717 60.6338 81.862 63.0087C78.9289 64.9465 76.6304 65.9128 74.9796 65.9128C73.8448 65.9128 73.2735 65.3756 73.2735 64.3172C73.2735 63.996 73.363 63.5589 73.5446 63.0087L63.3316 80.0461C62.7129 79.9066 62.2021 79.8381 61.8125 79.8381C61.228 79.8381 60.6435 79.9434 60.0774 80.1514L81.9752 44.1598C82.4491 44.3204 82.923 44.4046 83.3811 44.4046C83.8393 44.4046 84.4475 44.3204 85.1425 44.1598L77.2228 56.9635C79.1185 54.4412 80.5034 52.7851 81.367 52.0032C82.2306 51.2238 83.0862 50.8263 83.9367 50.8263C84.8766 50.8263 85.6717 51.237 86.3115 52.0532C86.9513 52.8747 87.2725 53.891 87.2725 55.0968V55.0889H87.2752ZM85.3031 52.9563C85.3031 51.8004 84.7818 51.2212 83.7497 51.2212C82.4544 51.2212 80.2743 53.3117 77.2228 57.4901C74.8532 60.7233 73.671 62.9507 73.671 64.1566C73.671 65.0623 74.0897 65.5152 74.9243 65.5152C76.5619 65.5152 78.7077 63.9197 81.3406 60.7286C83.9814 57.5375 85.3031 54.9468 85.3031 52.9563ZM97.8199 45.9212C97.8199 46.5399 97.554 47.1271 97.0327 47.6615C96.5114 48.2039 95.9321 48.4777 95.3134 48.4777C94.5183 48.4777 94.1154 48.0749 94.1154 47.2798C94.1154 46.6953 94.3945 46.1292 94.9369 45.5868C95.4872 45.0444 96.0717 44.7706 96.672 44.7706C97.4381 44.7706 97.8226 45.1524 97.8226 45.9186L97.8199 45.9212ZM98.1833 56.9557C98.1701 57.0057 98.0727 57.1505 97.9173 57.3795L96.7668 58.954C93.423 63.5932 90.8743 65.9128 89.1182 65.9128C88.2836 65.9128 87.5859 65.6126 87.0277 65.0202C86.4695 64.4278 86.1852 63.6827 86.1852 62.798C86.1852 61.7659 86.7986 60.1994 88.0229 58.1036L92.1882 51.0343C92.7305 51.1607 93.1702 51.2212 93.4914 51.2212C93.9654 51.2212 94.6473 51.158 95.5188 51.0343L89.4578 60.9892C88.5943 62.4242 88.1546 63.5379 88.1546 64.3199C88.1546 65.1018 88.5732 65.5178 89.4026 65.5178C90.9849 65.5178 93.7705 62.698 97.7541 57.061C97.8383 56.8872 97.9358 56.795 98.02 56.795C98.1253 56.795 98.1806 56.8503 98.1806 56.9557H98.1833ZM111.458 56.9557C111.458 57.1847 110.197 58.6828 107.696 61.4342C104.958 64.4146 102.625 65.9128 100.708 65.9128C99.4681 65.9128 98.3965 65.4388 97.5119 64.491C96.6272 63.5432 96.1823 62.4005 96.1823 61.0919C96.1823 59.6017 96.7878 58.0483 97.9937 56.4528C99.1996 54.8572 100.829 53.4776 102.87 52.3218C104.597 51.3265 106.003 50.8236 107.085 50.8236C108.402 50.8236 109.062 51.6109 109.062 53.1722C109.062 54.3991 108.644 55.6234 107.822 56.8503C107.001 58.0773 106.171 58.6881 105.355 58.6881C104.539 58.6881 104.157 58.2853 104.157 57.4901C104.157 56.5502 104.979 55.6708 106.609 54.8783C107.87 54.2596 108.504 53.4355 108.504 52.4271C108.504 51.6267 108.065 51.2212 107.196 51.2212C105.719 51.2212 103.902 52.6904 101.756 55.6234C99.6103 58.5565 98.5308 61.0208 98.5308 63.0139C98.5308 64.6779 99.3101 65.5152 100.871 65.5152C103.323 65.5152 106.645 62.7507 110.84 57.2189C111.069 56.9399 111.242 56.795 111.348 56.795C111.416 56.8082 111.453 56.8714 111.453 56.9557H111.461H111.458Z" fill="white"/>
<path fill-rule="evenodd" clip-rule="evenodd" d="M87.2751 41.4348C87.2751 43.5806 85.2952 44.6654 81.3327 44.6654C78.2048 44.6654 70.7722 43.2146 59.0637 40.3237C53.6004 43.4411 50.8622 47.3772 50.8622 52.1085C50.8622 54.3807 51.6574 55.9684 53.2213 56.8398C55.504 56.6371 57.2338 56.5371 58.3949 56.5371C61.7387 56.5371 63.4159 56.9399 63.4159 57.7482C63.4159 58.2537 62.5207 58.517 60.754 58.517C58.5081 58.517 56.0464 58.1879 53.4109 57.5586C49.8407 58.0641 45.6754 59.4648 40.9441 61.7107C28.9065 67.4636 22.8877 74.9463 22.8877 84.1193C22.8877 90.2012 26.1683 94.0742 32.7295 95.7145C31.5421 93.7451 30.9497 91.4756 30.9497 88.9006C30.9497 82.5659 34.1934 76.7129 40.6519 71.3734C47.1235 66.0234 54.2165 63.3484 61.9125 63.3484C65.4458 63.3484 68.2709 64.2198 70.3667 65.9602C72.4625 67.7005 73.5077 70.0359 73.5077 72.9637C73.5077 79.2484 70.0639 84.9118 63.1736 89.9353C56.2834 94.9694 48.5111 97.4944 39.8804 97.4944C38.1401 97.4944 36.513 97.3943 34.9964 97.2179C38.0874 101.357 42.6818 103.439 48.7612 103.439C52.521 103.439 55.612 102.871 57.9974 101.762L58.5766 101.662C58.7662 101.725 58.8662 101.865 58.8662 102.041C58.8662 102.497 57.6683 102.976 55.296 103.468C52.9106 103.961 50.7279 104.214 48.7612 104.214C42.0368 104.214 36.8895 101.778 33.3561 96.9335C28.4352 95.8356 24.5754 93.9689 21.7977 91.3439C19.0227 88.7189 17.622 85.6648 17.622 82.1972C17.622 77.5291 19.5519 73.1506 23.4143 69.0881C27.2741 65.0255 32.4346 61.9345 38.872 59.8387C42.7582 58.5512 47.2262 57.6192 52.2471 57.0373C48.6901 55.5234 46.8971 53.1275 46.8971 49.8443C46.8971 45.629 49.5089 42.0956 54.7062 39.2706C47.2367 37.4539 41.0679 36.5455 36.2207 36.5455C26.6949 36.5455 18.5698 38.9309 11.8559 43.6991C5.14731 48.462 1.793 54.228 1.793 60.9919C1.793 64.0066 2.67502 66.6079 4.44169 68.7511C6.20836 70.91 8.34101 71.9948 10.8133 71.9948C12.5168 71.9948 13.3751 71.7183 13.3751 71.1865C13.3751 70.8969 13.0591 70.7942 12.4536 70.8969C10.7633 70.8969 9.90494 70.1017 9.90494 68.5246C9.90494 67.6294 10.2841 66.8475 11.0292 66.2156C11.7875 65.5732 12.7063 65.244 13.7674 65.244C15.8237 65.244 16.8584 66.2524 16.8584 68.2482C16.8584 69.5594 16.266 70.6836 15.0917 71.5919C13.9175 72.5003 12.4799 72.9663 10.8133 72.9663C7.82233 72.9663 5.26052 71.6157 3.16737 68.9406C1.06106 66.2524 0 62.9982 0 59.2016C0 53.5119 2.48545 48.275 7.43266 43.5042C13.3119 37.8383 21.6003 35 32.2503 35C38.1796 35 46.0783 36.2111 55.92 38.6334C60.3617 36.4771 65.5353 35.3897 71.4278 35.3897C75.8063 35.3897 79.5529 35.9821 82.6333 37.1563C85.7244 38.3306 87.2778 39.7682 87.2778 41.4348H87.2751ZM86.2667 41.3347C86.2667 40.0868 84.9292 38.9625 82.2805 38.0041C79.6319 37.0458 76.5645 36.5534 73.1207 36.5534C68.3894 36.5534 64.0609 37.5881 60.1748 39.6444C68.7053 42.4063 75.8958 43.7965 81.725 43.7965C84.7528 43.7965 86.2667 42.9777 86.2667 41.3374V41.3347ZM72.6389 72.5767C72.6389 70.2676 71.7174 68.3509 69.8875 66.8369C68.0445 65.323 65.7249 64.5648 62.9235 64.5648C56.0095 64.5648 49.2325 67.4425 42.6476 73.1822C36.0496 78.9351 32.7427 84.8038 32.7427 90.7831C32.7427 92.5235 33.2719 94.3033 34.3329 96.0963C36.1996 96.4491 37.9295 96.6255 39.4934 96.6255C47.0893 96.6255 54.5219 93.9873 61.7624 88.74C69.0055 83.4795 72.6389 78.0899 72.6389 72.5898V72.5767Z" fill="white"/>
<path fill-rule="evenodd" clip-rule="evenodd" d="M81.97 69.088L69.9956 88.0001C71.8544 85.4436 73.2551 83.7243 74.174 82.8528C75.1007 81.9813 75.9854 81.5443 76.8148 81.5443C77.81 81.5443 78.6315 81.9471 79.2607 82.7554C79.8873 83.5637 80.2086 84.5879 80.2086 85.8122C80.2086 88.4951 78.5024 91.1333 75.0876 93.724C72.5442 95.6618 70.2826 96.6281 68.3105 96.6281C67.3916 96.6281 66.6307 96.2727 66.0594 95.5776C65.4881 94.8799 65.1958 93.961 65.1958 92.8473C65.1958 91.5177 66.0515 89.4772 67.7523 86.739L78.8 69.0406C79.2739 69.1802 79.7952 69.2487 80.3402 69.2487C80.7641 69.2487 81.3144 69.1934 81.97 69.088ZM78.2628 83.7296C78.2628 82.5395 77.7626 81.9392 76.7647 81.9392C75.4693 81.9392 73.2551 84.085 70.1272 88.3687C67.7866 91.5651 66.6097 93.724 66.6097 94.8272C66.6097 95.7592 67.0757 96.2332 67.9946 96.2332C69.5901 96.2332 71.7069 94.6376 74.3267 91.4466C76.9464 88.2555 78.2628 85.6779 78.2628 83.7296ZM100.753 87.671C100.753 88.0396 99.4497 89.7668 96.859 92.8473C94.7685 95.3696 93.1124 96.6307 91.8986 96.6307C91.0824 96.6307 90.4137 96.3253 89.9055 95.7119C89.3895 95.0984 89.1314 94.3243 89.1314 93.4054C89.1314 92.4866 89.4158 91.4071 89.9819 90.2907C88.2047 92.7709 86.8408 94.456 85.9009 95.3196C84.9609 96.191 84.042 96.6281 83.1574 96.6281C82.2175 96.6281 81.4223 96.2253 80.7904 95.417C80.1506 94.6087 79.8294 93.5924 79.8294 92.3655C79.8294 88.9532 82.2385 85.928 87.0541 83.303C89.1709 82.1314 90.877 81.5416 92.1751 81.5416C93.2756 81.5416 93.8338 82.0787 93.8338 83.1503C93.8338 83.4505 93.7574 83.8533 93.6179 84.3483L94.9765 81.7575C95.5057 81.8839 95.9875 81.9445 96.3903 81.9445C96.8642 81.9445 97.4909 81.8813 98.257 81.7575L93.5336 89.572C91.9039 92.3023 91.0824 94.1137 91.0824 94.9852C91.0824 95.8567 91.4299 96.2332 92.1198 96.2332C92.8096 96.2332 93.9733 95.417 95.532 93.7951C97.0933 92.1732 98.6862 90.1591 100.303 87.7763C100.408 87.6025 100.511 87.5104 100.595 87.5104C100.7 87.5104 100.756 87.5657 100.756 87.671H100.753ZM93.4309 83.2477C93.4309 82.3763 93.0281 81.9392 92.2251 81.9392C90.5953 81.9392 88.4416 83.5426 85.7903 86.739C83.1284 89.9432 81.7988 92.534 81.7988 94.506C81.7988 95.6566 82.3149 96.2332 83.3443 96.2332C84.5713 96.2332 86.696 94.1979 89.7186 90.1301C92.1909 86.7864 93.4309 84.4878 93.4309 83.2477ZM115.997 87.6789C115.997 87.8184 115.46 88.474 114.394 89.622C113.049 91.1122 111.774 91.8573 110.584 91.8573C109.239 91.8573 108.565 91.078 108.565 89.5167C108.565 89.0217 108.67 88.3871 108.878 87.621C107.764 88.5951 106.843 89.572 106.148 90.5251C105.45 91.4861 104.231 93.4423 102.512 96.3911C101.572 96.3227 101.014 96.2858 100.853 96.2858C100.785 96.2858 100.24 96.3201 99.2312 96.3911L103.599 89.3008C105.787 85.749 106.88 83.54 106.88 82.6896C106.88 82.1867 106.672 81.9366 106.261 81.9366C105.271 81.9366 103.46 83.8533 100.848 87.6684C100.695 87.9185 100.548 88.0449 100.424 88.0449C100.355 88.0317 100.319 87.9685 100.319 87.8843C100.332 87.8 100.374 87.7237 100.424 87.6684L100.906 87.0075C103.644 83.3636 105.503 81.539 106.477 81.539C107.899 81.539 108.615 82.4579 108.615 84.2904C108.615 85.6568 107.883 87.4656 106.427 89.7247C107.346 88.6662 108.23 87.7895 109.068 87.1128C109.736 85.5384 110.579 84.2087 111.582 83.1424C112.585 82.0761 113.499 81.539 114.291 81.539C114.842 81.539 115.121 81.7839 115.121 82.263C115.121 83.1135 113.881 84.3325 111.416 85.9122C111.027 86.1624 110.434 86.531 109.655 87.0049L109.334 87.2708C109.089 88.087 108.965 88.7689 108.965 89.2981C108.965 90.7883 109.528 91.5335 110.645 91.5335C112.024 91.5335 113.544 90.3829 115.173 88.1002C115.529 87.7105 115.758 87.5157 115.842 87.5157C115.947 87.5157 116.003 87.571 116.003 87.6763L115.997 87.6789Z" fill="white"/>
<path fill-rule="evenodd" clip-rule="evenodd" d="M90.3082 69.2408C91.1928 69.0144 92.1143 69.1881 92.662 69.7068C93.2149 70.2308 93.3729 71.0101 93.0043 71.8421C92.683 72.574 92.0406 73.1454 91.3455 73.4824C90.7505 73.7694 90.1002 73.8879 89.5078 73.8141C88.9707 73.7483 88.5336 73.5298 88.2414 73.2244C87.9491 72.9216 87.7727 72.5082 87.7727 72.0317C87.7727 71.5104 87.9833 70.9706 88.3625 70.4941C88.8048 69.9385 89.4235 69.4699 90.3082 69.2408Z" fill="#1D1D1B" stroke="#B2B2B2" stroke-width="0.22" stroke-miterlimit="2.61"/>
<path fill-rule="evenodd" clip-rule="evenodd" d="M89.9554 69.0354C90.8401 68.8089 91.7616 68.9827 92.3092 69.5014C92.8621 70.0253 93.0201 70.8047 92.6515 71.6367C92.3303 72.3686 91.6878 72.9399 90.9928 73.277C90.3977 73.5639 89.7474 73.6824 89.155 73.6087C88.6179 73.5402 88.1808 73.3243 87.8886 73.0189C87.5963 72.7161 87.4199 72.3028 87.4199 71.8262C87.4199 71.3049 87.6306 70.7652 88.0097 70.2886C88.452 69.7331 89.0707 69.2644 89.9554 69.0354Z" fill="white" stroke="#B2B2B2" stroke-width="0.22" stroke-miterlimit="2.61"/>
<path d="M89.4341 70.028L88.4573 70.5862C88.4757 70.4862 88.5099 70.3729 88.56 70.2755C88.8733 69.6778 89.7158 69.3408 90.4398 69.5251L89.4341 70.028Z" stroke="#B2B2B2" stroke-width="0.22" stroke-miterlimit="2.61"/>
<path fill-rule="evenodd" clip-rule="evenodd" d="M96.2954 45.2631C96.9537 45.0945 97.6409 45.2236 98.049 45.6106C98.4623 46.0003 98.5782 46.5821 98.3043 47.2035C98.0648 47.7485 97.5856 48.175 97.0669 48.4252C96.6219 48.6384 96.1401 48.7279 95.6978 48.6726C95.2976 48.6226 94.9737 48.4594 94.7552 48.233C94.5393 48.0092 94.405 47.6985 94.405 47.343C94.405 46.956 94.5604 46.5532 94.8447 46.1977C95.1738 45.7844 95.6346 45.4342 96.2954 45.2631Z" fill="#1D1D1B" stroke="#9D9D9C" stroke-width="0.22" stroke-miterlimit="2.61"/>
<path fill-rule="evenodd" clip-rule="evenodd" d="M96.032 45.1103C96.6902 44.9418 97.3774 45.0708 97.7855 45.4579C98.1989 45.8476 98.3147 46.4294 98.0409 47.0508C97.8013 47.5958 97.3221 48.0223 96.8035 48.2724C96.3585 48.4883 95.8767 48.5752 95.4344 48.5199C95.0342 48.4699 94.7103 48.3067 94.4918 48.0802C94.2759 47.8564 94.1416 47.5458 94.1416 47.1903C94.1416 46.8033 94.2969 46.4005 94.5813 46.045C94.9104 45.6317 95.3712 45.2815 96.032 45.113V45.1103Z" fill="white" stroke="#9D9D9C" stroke-width="0.22" stroke-miterlimit="2.61"/>
<path d="M95.6451 45.8475L94.9185 46.2635C94.9316 46.1871 94.9579 46.1055 94.9948 46.0318C95.2265 45.5868 95.8558 45.3341 96.3955 45.4736L95.6451 45.8501V45.8475Z" stroke="#9D9D9C" stroke-width="0.22" stroke-miterlimit="2.61"/>
<path fill-rule="evenodd" clip-rule="evenodd" d="M102.936 39.1942C103.417 39.0704 103.92 39.1652 104.218 39.4469C104.518 39.7313 104.605 40.1552 104.405 40.6107C104.228 41.0082 103.881 41.3215 103.502 41.5032C103.178 41.6612 102.822 41.7244 102.501 41.6822C102.209 41.6454 101.972 41.5269 101.811 41.361C101.653 41.1978 101.556 40.9714 101.556 40.7107C101.556 40.4264 101.669 40.1315 101.877 39.8735C102.117 39.5707 102.456 39.3153 102.938 39.1915L102.936 39.1942Z" fill="#1D1D1B" stroke="#C6C6C6" stroke-width="0.22" stroke-miterlimit="2.61"/>
<path fill-rule="evenodd" clip-rule="evenodd" d="M102.743 39.0836C103.225 38.9598 103.728 39.0546 104.026 39.3363C104.326 39.6207 104.413 40.0446 104.213 40.5001C104.036 40.8976 103.689 41.2109 103.309 41.3926C102.986 41.5506 102.63 41.6138 102.309 41.5717C102.017 41.5348 101.78 41.4163 101.619 41.2504C101.461 41.0846 101.364 40.8608 101.364 40.6001C101.364 40.3158 101.477 40.0209 101.685 39.7629C101.925 39.4601 102.264 39.2047 102.746 39.0809L102.743 39.0836Z" fill="white" stroke="#C6C6C6" stroke-width="0.22" stroke-miterlimit="2.61"/>
<path d="M102.506 38.7089L101.588 39.5626L101.595 39.5703L102.513 38.7166L102.506 38.7089Z" fill="#1D1D1B"/>
<path d="M102.514 38.7145L101.597 39.5682L101.604 39.5759L102.521 38.7222L102.514 38.7145Z" fill="#20201E"/>
<path d="M102.521 38.7246L101.603 39.5784L101.61 39.5861L102.528 38.7323L102.521 38.7246Z" fill="#222221"/>
<path d="M102.528 38.7284L101.61 39.5822L101.617 39.5899L102.535 38.7361L102.528 38.7284Z" fill="#252524"/>
<path d="M102.531 38.7358L101.614 39.5896L101.621 39.5973L102.539 38.7436L102.531 38.7358Z" fill="#282826"/>
<path d="M102.54 38.7441L101.623 39.5979L101.63 39.6056L102.547 38.7519L102.54 38.7441Z" fill="#2A2A29"/>
<path d="M102.545 38.7496L101.627 39.6034L101.634 39.6111L102.552 38.7573L102.545 38.7496Z" fill="#2D2D2C"/>
<path d="M102.553 38.7579L101.636 39.6117L101.643 39.6194L102.56 38.7656L102.553 38.7579Z" fill="#2F2F2E"/>
<path d="M102.56 38.7654L101.642 39.6191L101.65 39.6269L102.567 38.7731L102.56 38.7654Z" fill="#323130"/>
<path d="M102.567 38.7692L101.649 39.6229L101.656 39.6306L102.574 38.7769L102.567 38.7692Z" fill="#343433"/>
<path d="M102.571 38.7793L101.653 39.6331L101.66 39.6408L102.578 38.787L102.571 38.7793Z" fill="#363635"/>
<path d="M102.579 38.7849L101.662 39.6387L101.669 39.6464L102.586 38.7926L102.579 38.7849Z" fill="#393837"/>
<path d="M102.586 38.795L101.668 39.6488L101.675 39.6565L102.593 38.8028L102.586 38.795Z" fill="#3B3B3A"/>
<path d="M102.591 38.8005L101.673 39.6543L101.68 39.662L102.598 38.8083L102.591 38.8005Z" fill="#3D3D3C"/>
<path d="M102.599 38.8088L101.682 39.6626L101.689 39.6703L102.606 38.8166L102.599 38.8088Z" fill="#3F3F3E"/>
<path d="M102.606 38.8163L101.688 39.67L101.695 39.6778L102.613 38.824L102.606 38.8163Z" fill="#414140"/>
<path d="M102.61 38.8201L101.692 39.6738L101.7 39.6815L102.617 38.8278L102.61 38.8201Z" fill="#444342"/>
<path d="M102.616 38.8302L101.699 39.684L101.706 39.6917L102.624 38.8379L102.616 38.8302Z" fill="#464545"/>
<path d="M102.625 38.8358L101.708 39.6896L101.715 39.6973L102.632 38.8435L102.625 38.8358Z" fill="#484847"/>
<path d="M102.63 38.844L101.712 39.6978L101.719 39.7055L102.637 38.8517L102.63 38.844Z" fill="#4A4A49"/>
<path d="M102.638 38.8496L101.721 39.7034L101.728 39.7111L102.645 38.8573L102.638 38.8496Z" fill="#4C4C4B"/>
<path d="M102.645 38.8597L101.727 39.7135L101.734 39.7212L102.652 38.8674L102.645 38.8597Z" fill="#4E4E4D"/>
<path d="M102.652 38.8635L101.734 39.7173L101.741 39.725L102.659 38.8712L102.652 38.8635Z" fill="#50504F"/>
<path d="M102.656 38.871L101.738 39.7247L101.745 39.7324L102.663 38.8787L102.656 38.871Z" fill="#525251"/>
<path d="M102.664 38.8793L101.747 39.733L101.754 39.7407L102.671 38.887L102.664 38.8793Z" fill="#555454"/>
<path d="M102.669 38.8848L101.751 39.7385L101.759 39.7462L102.676 38.8925L102.669 38.8848Z" fill="#575656"/>
<path d="M102.677 38.8931L101.76 39.7468L101.767 39.7545L102.685 38.9008L102.677 38.8931Z" fill="#595858"/>
<path d="M102.684 38.9005L101.767 39.7543L101.774 39.762L102.691 38.9082L102.684 38.9005Z" fill="#5B5A5A"/>
<path d="M102.691 38.9043L101.773 39.7581L101.781 39.7658L102.698 38.912L102.691 38.9043Z" fill="#5C5C5B"/>
<path d="M102.695 38.9143L101.777 39.7681L101.785 39.7758L102.702 38.922L102.695 38.9143Z" fill="#5E5E5D"/>
<path d="M102.703 38.92L101.786 39.7738L101.793 39.7815L102.711 38.9278L102.703 38.92Z" fill="#60605F"/>
<path d="M102.708 38.9282L101.791 39.782L101.798 39.7897L102.715 38.9359L102.708 38.9282Z" fill="#626261"/>
<path d="M102.717 38.9338L101.799 39.7876L101.806 39.7953L102.724 38.9415L102.717 38.9338Z" fill="#646463"/>
<path d="M102.723 38.9413L101.806 39.795L101.813 39.8028L102.73 38.949L102.723 38.9413Z" fill="#666665"/>
<path d="M102.73 38.9478L101.812 39.8015L101.82 39.8092L102.737 38.9555L102.73 38.9478Z" fill="#686867"/>
<path d="M102.737 38.9552L101.819 39.809L101.826 39.8167L102.744 38.9629L102.737 38.9552Z" fill="#6A6969"/>
<path d="M102.742 38.9635L101.825 39.8173L101.832 39.825L102.75 38.9712L102.742 38.9635Z" fill="#6C6B6B"/>
<path d="M102.747 38.969L101.83 39.8228L101.837 39.8305L102.754 38.9767L102.747 38.969Z" fill="#6E6D6D"/>
<path d="M102.756 38.9746L101.838 39.8284L101.846 39.8361L102.763 38.9823L102.756 38.9746Z" fill="#6F6F6F"/>
<path d="M102.762 38.9847L101.845 39.8385L101.852 39.8462L102.77 38.9925L102.762 38.9847Z" fill="#717170"/>
<path d="M102.769 38.9885L101.852 39.8423L101.859 39.85L102.776 38.9962L102.769 38.9885Z" fill="#737372"/>
<path d="M102.776 38.9985L101.858 39.8523L101.866 39.86L102.783 39.0062L102.776 38.9985Z" fill="#757574"/>
<path d="M102.784 39.0043L101.867 39.858L101.874 39.8657L102.791 39.012L102.784 39.0043Z" fill="#777776"/>
<path d="M102.786 39.0125L101.869 39.8662L101.876 39.8739L102.794 39.0202L102.786 39.0125Z" fill="#797978"/>
<path d="M102.795 39.0181L101.877 39.8718L101.885 39.8795L102.802 39.0258L102.795 39.0181Z" fill="#7B7B7A"/>
<path d="M102.802 39.0282L101.884 39.882L101.891 39.8897L102.809 39.0359L102.802 39.0282Z" fill="#7D7D7C"/>
<path d="M102.81 39.0338L101.893 39.8876L101.9 39.8953L102.817 39.0415L102.81 39.0338Z" fill="#7F7E7E"/>
<path d="M102.815 39.0394L101.897 39.8932L101.905 39.9009L102.822 39.0471L102.815 39.0394Z" fill="#818080"/>
<path d="M102.821 39.0477L101.903 39.9015L101.91 39.9092L102.828 39.0554L102.821 39.0477Z" fill="#828282"/>
<path d="M102.827 39.0552L101.91 39.9089L101.917 39.9166L102.835 39.0629L102.827 39.0552Z" fill="#848483"/>
<path d="M102.834 39.0588L101.917 39.9126L101.924 39.9203L102.841 39.0665L102.834 39.0588Z" fill="#868685"/>
<path d="M102.841 39.069L101.923 39.9227L101.931 39.9304L102.848 39.0767L102.841 39.069Z" fill="#888887"/>
<path d="M102.849 39.0747L101.932 39.9285L101.939 39.9362L102.857 39.0824L102.849 39.0747Z" fill="#8A8989"/>
<path d="M102.854 39.0828L101.937 39.9365L101.944 39.9442L102.861 39.0905L102.854 39.0828Z" fill="#8B8B8B"/>
<path d="M102.863 39.0885L101.945 39.9423L101.952 39.95L102.87 39.0962L102.863 39.0885Z" fill="#8D8D8C"/>
<path d="M102.867 39.0986L101.949 39.9524L101.956 39.9601L102.874 39.1063L102.867 39.0986Z" fill="#8F8E8E"/>
<path d="M102.873 39.1023L101.956 39.9561L101.963 39.9638L102.88 39.11L102.873 39.1023Z" fill="#909090"/>
<path d="M102.88 39.1097L101.962 39.9635L101.97 39.9712L102.887 39.1175L102.88 39.1097Z" fill="#929291"/>
<path d="M102.888 39.118L101.971 39.9718L101.978 39.9795L102.896 39.1258L102.888 39.118Z" fill="#949493"/>
<path d="M102.893 39.1237L101.976 39.9774L101.983 39.9851L102.9 39.1314L102.893 39.1237Z" fill="#959595"/>
<path d="M102.902 39.132L101.984 39.9857L101.992 39.9934L102.909 39.1397L102.902 39.132Z" fill="#979796"/>
<path d="M102.906 39.1394L101.988 39.9932L101.995 40.0009L102.913 39.1471L102.906 39.1394Z" fill="#999998"/>
<path d="M102.913 39.1431L101.995 39.9968L102.002 40.0045L102.92 39.1508L102.913 39.1431Z" fill="#9B9A9A"/>
<path d="M102.919 39.1532L102.002 40.007L102.009 40.0147L102.926 39.1609L102.919 39.1532Z" fill="#9C9C9C"/>
<path d="M102.926 39.1606L102.008 40.0144L102.015 40.0221L102.933 39.1684L102.926 39.1606Z" fill="#9E9E9D"/>
<path d="M102.932 39.167L102.015 40.0208L102.022 40.0285L102.94 39.1747L102.932 39.167Z" fill="#A09F9F"/>
<path d="M102.939 39.1746L102.021 40.0283L102.029 40.036L102.946 39.1823L102.939 39.1746Z" fill="#A1A1A1"/>
<path d="M102.947 39.1827L102.03 40.0365L102.037 40.0442L102.955 39.1905L102.947 39.1827Z" fill="#A3A3A2"/>
<path d="M102.95 39.1884L102.032 40.0421L102.039 40.0498L102.957 39.1961L102.95 39.1884Z" fill="#A5A5A4"/>
<path d="M102.958 39.194L102.041 40.0477L102.048 40.0554L102.965 39.2017L102.958 39.194Z" fill="#A6A6A6"/>
<path d="M102.965 39.2041L102.047 40.0579L102.055 40.0656L102.972 39.2118L102.965 39.2041Z" fill="#A8A8A8"/>
<path d="M102.972 39.2079L102.054 40.0616L102.061 40.0694L102.979 39.2156L102.972 39.2079Z" fill="#AAAAA9"/>
<path d="M102.978 39.2179L102.061 40.0717L102.068 40.0794L102.985 39.2256L102.978 39.2179Z" fill="#ABABAB"/>
<path d="M102.987 39.2236L102.069 40.0774L102.077 40.0851L102.994 39.2313L102.987 39.2236Z" fill="#ADADAD"/>
<path d="M102.992 39.2318L102.074 40.0856L102.081 40.0933L102.999 39.2395L102.992 39.2318Z" fill="#AFAFAE"/>
<path d="M102.998 39.2374L102.08 40.0912L102.087 40.0989L103.005 39.2451L102.998 39.2374Z" fill="#B0B0B0"/>
<path d="M103.004 39.2449L102.087 40.0986L102.094 40.1063L103.011 39.2526L103.004 39.2449Z" fill="#B2B2B2"/>
<path d="M103.011 39.2512L102.093 40.105L102.1 40.1127L103.018 39.2589L103.011 39.2512Z" fill="#B4B4B3"/>
<path d="M103.017 39.2587L102.1 40.1124L102.107 40.1201L103.024 39.2664L103.017 39.2587Z" fill="#B5B5B5"/>
<path d="M103.026 39.2644L102.108 40.1182L102.116 40.1259L103.033 39.2721L103.026 39.2644Z" fill="#B7B7B6"/>
<path d="M103.032 39.2745L102.115 40.1283L102.122 40.136L103.04 39.2822L103.032 39.2745Z" fill="#B8B8B8"/>
<path d="M103.037 39.2782L102.119 40.132L102.126 40.1397L103.044 39.2859L103.037 39.2782Z" fill="#BABABA"/>
<path d="M103.043 39.2883L102.126 40.1421L102.133 40.1498L103.05 39.296L103.043 39.2883Z" fill="#BCBCBB"/>
<path d="M103.052 39.2939L102.134 40.1477L102.141 40.1554L103.059 39.3017L103.052 39.2939Z" fill="#BDBDBD"/>
<path d="M103.057 39.2996L102.139 40.1533L102.146 40.161L103.064 39.3073L103.057 39.2996Z" fill="#BFBFBE"/>
<path d="M103.065 39.3079L102.148 40.1616L102.155 40.1693L103.072 39.3156L103.065 39.3079Z" fill="#C0C0C0"/>
<path d="M103.072 39.3153L102.154 40.1691L102.161 40.1768L103.079 39.323L103.072 39.3153Z" fill="#C2C2C1"/>
<path d="M103.076 39.3217L102.158 40.1754L102.166 40.1831L103.083 39.3294L103.076 39.3217Z" fill="#C3C3C3"/>
<path d="M103.083 39.3291L102.165 40.1829L102.172 40.1906L103.09 39.3368L103.083 39.3291Z" fill="#C5C5C5"/>
<path d="M103.091 39.3374L102.174 40.1912L102.181 40.1989L103.098 39.3451L103.091 39.3374Z" fill="#C7C6C6"/>
<path d="M103.096 39.3429L102.178 40.1967L102.185 40.2044L103.103 39.3506L103.096 39.3429Z" fill="#C8C8C8"/>
<path d="M103.104 39.3486L102.187 40.2024L102.194 40.2101L103.111 39.3563L103.104 39.3486Z" fill="#CAC9C9"/>
<path d="M103.111 39.3588L102.193 40.2125L102.201 40.2202L103.118 39.3665L103.111 39.3588Z" fill="#CBCBCB"/>
<path d="M103.115 39.3624L102.198 40.2162L102.205 40.2239L103.122 39.3701L103.115 39.3624Z" fill="#CDCDCC"/>
<path d="M103.122 39.3726L102.204 40.2263L102.211 40.234L103.129 39.3803L103.122 39.3726Z" fill="#CECECE"/>
<path d="M103.13 39.3782L102.213 40.2319L102.22 40.2396L103.137 39.3859L103.13 39.3782Z" fill="#D0D0D0"/>
<path d="M103.135 39.3864L102.218 40.2401L102.225 40.2478L103.142 39.3941L103.135 39.3864Z" fill="#D1D1D1"/>
<path d="M103.144 39.3921L102.226 40.2458L102.233 40.2536L103.151 39.3998L103.144 39.3921Z" fill="#D3D3D3"/>
<path d="M103.15 39.3995L102.233 40.2533L102.24 40.261L103.157 39.4072L103.15 39.3995Z" fill="#D5D4D4"/>
<path d="M103.157 39.4059L102.239 40.2596L102.246 40.2674L103.164 39.4136L103.157 39.4059Z" fill="#D6D6D6"/>
<path d="M103.161 39.4133L102.243 40.2671L102.251 40.2748L103.168 39.421L103.161 39.4133Z" fill="#D8D8D7"/>
<path d="M103.169 39.4216L102.252 40.2754L102.259 40.2831L103.177 39.4293L103.169 39.4216Z" fill="#D9D9D9"/>
<path d="M103.174 39.4271L102.257 40.2809L102.264 40.2886L103.181 39.4348L103.174 39.4271Z" fill="#DBDBDA"/>
<path d="M103.183 39.4329L102.265 40.2866L102.272 40.2943L103.19 39.4406L103.183 39.4329Z" fill="#DCDCDC"/>
<path d="M103.189 39.443L102.272 40.2968L102.279 40.3045L103.196 39.4507L103.189 39.443Z" fill="#DEDEDD"/>
<path d="M103.196 39.4467L102.279 40.3004L102.286 40.3081L103.203 39.4544L103.196 39.4467Z" fill="#DFDFDF"/>
<path d="M103.2 39.4568L102.282 40.3105L102.29 40.3183L103.207 39.4645L103.2 39.4568Z" fill="#E1E0E0"/>
<path d="M103.208 39.4624L102.291 40.3162L102.298 40.3239L103.216 39.4701L103.208 39.4624Z" fill="#E2E2E2"/>
<path d="M103.213 39.468L102.296 40.3218L102.303 40.3295L103.221 39.4757L103.213 39.468Z" fill="#E3E3E3"/>
<path d="M103.222 39.4763L102.304 40.3301L102.312 40.3378L103.229 39.484L103.222 39.4763Z" fill="#E5E5E5"/>
<path d="M103.229 39.4838L102.311 40.3375L102.318 40.3452L103.236 39.4915L103.229 39.4838Z" fill="#E6E6E6"/>
<path d="M103.235 39.4901L102.318 40.3439L102.325 40.3516L103.242 39.4978L103.235 39.4901Z" fill="#E8E8E8"/>
<path d="M103.242 39.4976L102.324 40.3513L102.331 40.359L103.249 39.5053L103.242 39.4976Z" fill="#E9E9E9"/>
<path d="M103.248 39.5032L102.33 40.3569L102.337 40.3646L103.255 39.5109L103.248 39.5032Z" fill="#EBEBEB"/>
<path d="M103.254 39.5133L102.337 40.3671L102.344 40.3748L103.262 39.521L103.254 39.5133Z" fill="#ECECEC"/>
<path d="M103.259 39.5189L102.342 40.3727L102.349 40.3804L103.266 39.5266L103.259 39.5189Z" fill="#EEEEEE"/>
<path d="M103.268 39.5272L102.35 40.381L102.357 40.3887L103.275 39.5349L103.268 39.5272Z" fill="#EFEFEF"/>
<path d="M103.274 39.5347L102.357 40.3884L102.364 40.3961L103.281 39.5424L103.274 39.5347Z" fill="#F1F1F1"/>
<path d="M103.281 39.541L102.364 40.3948L102.371 40.4025L103.288 39.5487L103.281 39.541Z" fill="#F2F2F2"/>
<path d="M103.288 39.5485L102.37 40.4022L102.377 40.4099L103.295 39.5562L103.288 39.5485Z" fill="#F4F4F3"/>
<path d="M103.293 39.5568L102.376 40.4105L102.383 40.4182L103.301 39.5645L103.293 39.5568Z" fill="#F5F5F5"/>
<path d="M103.298 39.5623L102.381 40.416L102.388 40.4237L103.305 39.57L103.298 39.5623Z" fill="#F6F6F6"/>
<path d="M103.307 39.568L102.389 40.4218L102.397 40.4295L103.314 39.5757L103.307 39.568Z" fill="#F8F8F8"/>
<path d="M103.313 39.578L102.396 40.4318L102.403 40.4395L103.321 39.5857L103.313 39.578Z" fill="#F9F9F9"/>
<path d="M103.32 39.5818L102.403 40.4355L102.41 40.4433L103.327 39.5895L103.32 39.5818Z" fill="#FBFBFB"/>
<path d="M103.324 39.5892L102.407 40.443L102.414 40.4507L103.331 39.5969L103.324 39.5892Z" fill="#FCFCFC"/>
<path d="M103.333 39.5975L102.415 40.4513L102.422 40.459L103.34 39.6052L103.333 39.5975Z" fill="#FEFEFE"/>
<path d="M103.337 39.603L102.42 40.4568L102.427 40.4645L103.345 39.6107L103.337 39.603Z" fill="white"/>
<path d="M102.459 39.6233L101.927 39.9261C101.938 39.8708 101.956 39.8102 101.983 39.7576C102.154 39.4311 102.612 39.2494 103.007 39.3495L102.459 39.6233V39.6233Z" stroke="#C6C6C6" stroke-width="0.22" stroke-miterlimit="2.61"/>
<path fill-rule="evenodd" clip-rule="evenodd" d="M101.68 72.6266C102.925 72.3054 104.226 72.5529 104.995 73.2822C105.774 74.0194 105.995 75.1147 105.476 76.2916C105.024 77.3211 104.12 78.1294 103.138 78.6033C102.301 79.0088 101.385 79.1746 100.55 79.0693C99.7946 78.9745 99.1812 78.6665 98.7678 78.2399C98.3571 77.8134 98.1069 77.2315 98.1069 76.5602C98.1069 75.8282 98.4018 75.0647 98.9363 74.3933C99.5577 73.6113 100.432 72.9505 101.677 72.6292L101.68 72.6266Z" fill="#1D1D1B" stroke="#C6C6C6" stroke-width="0.22" stroke-miterlimit="2.61"/>
<path fill-rule="evenodd" clip-rule="evenodd" d="M101.185 72.3398C102.43 72.0185 103.731 72.266 104.499 72.9953C105.279 73.7326 105.5 74.8278 104.981 76.0047C104.528 77.0342 103.625 77.8425 102.643 78.3164C101.806 78.7219 100.89 78.8878 100.055 78.7824C99.2995 78.6877 98.686 78.3796 98.2727 77.9531C97.8619 77.5266 97.6118 76.9447 97.6118 76.2733C97.6118 75.5413 97.9067 74.7778 98.4412 74.1064C99.0625 73.3245 99.9367 72.6636 101.182 72.3424L101.185 72.3398Z" fill="white" stroke="#C6C6C6" stroke-width="0.22" stroke-miterlimit="2.61"/>
<path d="M100.45 73.7351L99.0757 74.5197C99.102 74.3775 99.1494 74.2195 99.2231 74.0826C99.6628 73.2401 100.85 72.7662 101.869 73.0242L100.453 73.7325L100.45 73.7351Z" stroke="#C6C6C6" stroke-width="0.22" stroke-miterlimit="2.61"/>
<path fill-rule="evenodd" clip-rule="evenodd" d="M111.148 62.4243C112.172 62.161 113.238 62.3637 113.87 62.9614C114.51 63.5669 114.692 64.4674 114.268 65.4337C113.896 66.2788 113.154 66.9423 112.348 67.332C111.658 67.6663 110.908 67.8006 110.224 67.7164C109.602 67.6374 109.097 67.3873 108.76 67.0345C108.423 66.6843 108.217 66.2077 108.217 65.6548C108.217 65.0519 108.46 64.4253 108.899 63.875C109.41 63.2326 110.126 62.6875 111.15 62.4269L111.148 62.4243Z" fill="#1D1D1B" stroke="#9D9D9C" stroke-width="0.22" stroke-miterlimit="2.61"/>
<path fill-rule="evenodd" clip-rule="evenodd" d="M110.742 62.1872C111.766 61.9239 112.833 62.1266 113.465 62.7243C114.104 63.3299 114.286 64.2303 113.862 65.1966C113.491 66.0417 112.748 66.7052 111.943 67.0949C111.253 67.4293 110.503 67.5636 109.818 67.4767C109.197 67.3977 108.691 67.1476 108.354 66.7948C108.017 66.4446 107.812 65.968 107.812 65.4151C107.812 64.8122 108.054 64.1856 108.494 63.6353C109.004 62.9929 109.721 62.4505 110.745 62.1872H110.742Z" fill="white" stroke="#9D9D9C" stroke-width="0.22" stroke-miterlimit="2.61"/>
<path d="M110.139 63.3352L109.01 63.9802C109.031 63.8644 109.07 63.7354 109.131 63.6222C109.492 62.9297 110.468 62.54 111.306 62.7533L110.142 63.3352H110.139Z" stroke="#9D9D9C" stroke-width="0.22" stroke-miterlimit="2.61"/>
<path fill-rule="evenodd" clip-rule="evenodd" d="M110.321 44.8866C111.082 44.6917 111.877 44.8418 112.346 45.2868C112.822 45.737 112.956 46.4084 112.64 47.1245C112.364 47.7538 111.811 48.2461 111.213 48.5358C110.7 48.7832 110.142 48.8833 109.631 48.8201C109.17 48.7622 108.794 48.5752 108.541 48.312C108.291 48.0513 108.138 47.6959 108.138 47.2851C108.138 46.8375 108.317 46.3715 108.644 45.9608C109.023 45.4842 109.557 45.0788 110.318 44.8839L110.321 44.8866Z" fill="#1D1D1B" stroke="#C6C6C6" stroke-width="0.22" stroke-miterlimit="2.61"/>
<path fill-rule="evenodd" clip-rule="evenodd" d="M110.018 44.7101C110.779 44.5152 111.574 44.6653 112.043 45.1103C112.519 45.5605 112.654 46.2319 112.338 46.948C112.061 47.5773 111.508 48.0696 110.911 48.3592C110.397 48.6067 109.839 48.7068 109.331 48.6436C108.87 48.5857 108.494 48.3987 108.241 48.1354C107.991 47.8748 107.838 47.5193 107.838 47.1086C107.838 46.661 108.02 46.195 108.344 45.7843C108.723 45.3077 109.257 44.9023 110.018 44.7074V44.7101Z" fill="white" stroke="#C6C6C6" stroke-width="0.22" stroke-miterlimit="2.61"/>
<path d="M109.57 45.5658L108.73 46.045C108.746 45.9581 108.775 45.8634 108.82 45.7791C109.089 45.2631 109.815 44.9734 110.437 45.1341L109.57 45.5685V45.5658Z" stroke="#C6C6C6" stroke-width="0.22" stroke-miterlimit="2.61"/>
</g>
<defs>
<filter id="filter0_d_2276_4430" x="15" y="0" width="140" height="140" filterUnits="userSpaceOnUse" color-interpolation-filters="sRGB">
<feFlood flood-opacity="0" result="BackgroundImageFix"/>
<feColorMatrix in="SourceAlpha" type="matrix" values="0 0 0 0 0 0 0 0 0 0 0 0 0 0 0 0 0 0 127 0" result="hardAlpha"/>
<feOffset/>
<feGaussianBlur stdDeviation="10"/>
<feComposite in2="hardAlpha" operator="out"/>
<feColorMatrix type="matrix" values="0 0 0 0 1 0 0 0 0 1 0 0 0 0 1 0 0 0 0.5 0"/>
<feBlend mode="normal" in2="BackgroundImageFix" result="effect1_dropShadow_2276_4430"/>
<feBlend mode="normal" in="SourceGraphic" in2="effect1_dropShadow_2276_4430" result="shape"/>
</filter>
<clipPath id="clip0_2276_4430">
<rect width="116" height="75.8273" fill="white" transform="translate(0 35)"/>
</clipPath>
</defs>
</svg>
