<svg width="140" height="100" viewBox="0 0 140 100" fill="none" xmlns="http://www.w3.org/2000/svg">
<circle cx="70.0002" cy="50" r="50" fill="#181818"/>
<path fill-rule="evenodd" clip-rule="evenodd" d="M138.515 52.4393H81.9477C80.8818 52.4393 79.7769 53.4467 79.4909 54.6751L75.8903 70.1274C75.6043 71.359 76.2412 72.3632 77.3039 72.3632H133.871C134.937 72.3632 136.042 71.3558 136.328 70.1274L139.929 54.6751C140.215 53.4435 139.578 52.4393 138.515 52.4393Z" fill="white"/>
<path fill-rule="evenodd" clip-rule="evenodd" d="M1.4853 36.896H58.0494C59.1153 36.896 60.2202 37.7799 60.5062 38.8588L64.1069 52.4198C64.3929 53.4987 63.7559 54.3826 62.6933 54.3826H6.12911C5.06321 54.3826 3.95832 53.4987 3.67234 52.4198L0.068434 38.8588C-0.217539 37.7799 0.419401 36.896 1.48205 36.896H1.4853Z" fill="white"/>
<path fill-rule="evenodd" clip-rule="evenodd" d="M70.5002 50C76.834 50 82.0002 55.3896 82.0002 62C82.0002 68.6104 76.834 74 70.5002 74C64.1664 74 59.0002 68.6104 59.0002 62C59.0002 55.3896 64.1664 50 70.5002 50Z" fill="#181818"/>
<path fill-rule="evenodd" clip-rule="evenodd" d="M70.5002 26C75.7325 26 80.0002 30.0422 80.0002 35C80.0002 39.9578 75.7325 44 70.5002 44C65.2679 44 61.0002 39.9578 61.0002 35C61.0002 30.0422 65.2679 26 70.5002 26Z" fill="#181818"/>
<path fill-rule="evenodd" clip-rule="evenodd" d="M60.4314 34.5888C60.4314 37.4192 61.3284 39.7233 63.1287 41.4846C64.9225 43.2557 67.2558 44.1429 70.1448 44.1429C73.5797 44.1429 76.2054 43.3369 78.048 41.7251C79.8808 40.1132 80.7973 37.7897 80.7973 34.748C80.7973 31.989 79.8516 29.7435 77.9473 28.0016C76.043 26.2598 73.6187 25.3824 70.6485 25.3824C67.6782 25.3824 65.3125 26.2598 63.3594 28.0211C61.4063 29.7727 60.4282 31.9663 60.4282 34.5855L60.4314 34.5888ZM57.9032 62.2761C57.9032 65.9223 59.0926 68.9413 61.4681 71.3493C63.8339 73.7443 66.7326 74.9435 70.1383 74.9435C73.8949 74.9435 76.9854 73.7248 79.4096 71.2875C81.8372 68.8503 83.0428 65.7598 83.0428 62.0454C83.0428 58.331 81.9054 55.1301 79.6209 52.8033C77.3363 50.4668 74.3239 49.3001 70.5705 49.3001C66.8171 49.3001 63.5739 50.457 61.3089 52.7838C59.0438 55.1008 57.9064 58.2725 57.9064 62.2794L57.9032 62.2761ZM60.9026 46.7426C58.8781 45.4037 57.3475 43.7821 56.3108 41.8908C55.2742 39.9865 54.7607 37.845 54.7607 35.4564C54.7607 31.3683 56.2913 27.8132 59.3428 24.8137C62.3943 21.8142 66.0794 20.3129 70.3787 20.3129C74.6781 20.3129 78.633 21.772 81.6844 24.6837C84.7359 27.5922 86.2665 31.0466 86.2665 35.0632C86.2665 37.6825 85.753 39.9475 84.7164 41.8486C83.6797 43.7431 82.0679 45.381 79.8938 46.7426C82.9128 48.4455 85.1486 50.4895 86.6207 52.8553C88.0896 55.2308 88.8272 58.0288 88.8272 61.2525C88.8272 66.66 87.0854 71.1088 83.6115 74.612C80.1376 78.1054 75.6497 79.857 70.1415 79.857C65.137 79.857 60.8994 78.0956 57.4255 74.573C53.9516 71.0406 52.2097 66.7412 52.2097 61.6457C52.2097 58.3733 52.8857 55.5655 54.2343 53.229C55.5926 50.9022 57.8089 48.7379 60.9091 46.7459L60.9026 46.7426Z" fill="#E30613"/>
<path d="M60.4314 34.5888C60.4314 37.4192 61.3284 39.7233 63.1287 41.4846C64.9225 43.2557 67.2558 44.1429 70.1448 44.1429C73.5797 44.1429 76.2054 43.3369 78.048 41.7251C79.8808 40.1132 80.7973 37.7897 80.7973 34.748C80.7973 31.989 79.8516 29.7435 77.9473 28.0016C76.043 26.2598 73.6187 25.3824 70.6485 25.3824C67.6782 25.3824 65.3125 26.2598 63.3594 28.0211C61.4063 29.7727 60.4282 31.9663 60.4282 34.5855L60.4314 34.5888ZM57.9032 62.2761C57.9032 65.9223 59.0926 68.9413 61.4681 71.3493C63.8339 73.7443 66.7326 74.9434 70.1383 74.9434C73.8949 74.9434 76.9854 73.7248 79.4096 71.2875C81.8372 68.8503 83.0428 65.7598 83.0428 62.0454C83.0428 58.331 81.9054 55.1301 79.6209 52.8033C77.3363 50.4668 74.3239 49.3001 70.5705 49.3001C66.8171 49.3001 63.5739 50.457 61.3089 52.7838C59.0438 55.1008 57.9064 58.2725 57.9064 62.2794L57.9032 62.2761ZM60.9026 46.7426C58.8781 45.4037 57.3475 43.7821 56.3108 41.8908C55.2742 39.9865 54.7607 37.845 54.7607 35.4564C54.7607 31.3683 56.2913 27.8132 59.3428 24.8137C62.3943 21.8142 66.0794 20.3129 70.3787 20.3129C74.6781 20.3129 78.633 21.772 81.6844 24.6837C84.7359 27.5922 86.2665 31.0466 86.2665 35.0632C86.2665 37.6825 85.753 39.9475 84.7164 41.8486C83.6797 43.7431 82.0679 45.381 79.8938 46.7426C82.9128 48.4455 85.1486 50.4895 86.6207 52.8553C88.0896 55.2308 88.8272 58.0288 88.8272 61.2525C88.8272 66.66 87.0854 71.1088 83.6115 74.612C80.1376 78.1054 75.6497 79.857 70.1415 79.857C65.137 79.857 60.8994 78.0957 57.4255 74.573C53.9516 71.0406 52.2097 66.7412 52.2097 61.6457C52.2097 58.3733 52.8857 55.5655 54.2343 53.229C55.5926 50.9022 57.8089 48.7379 60.9091 46.7459L60.9026 46.7426Z" stroke="#E40F1A" stroke-width="4" stroke-miterlimit="2.61"/>
<path fill-rule="evenodd" clip-rule="evenodd" d="M60.6004 34.657C60.6004 37.4875 61.4974 39.7915 63.2977 41.5528C65.0915 43.3239 67.4248 44.2111 70.3138 44.2111C73.7455 44.2111 76.3745 43.4052 78.217 41.7933C80.0499 40.1815 80.9663 37.8579 80.9663 34.8162C80.9663 32.0572 80.0206 29.8117 78.1163 28.0699C76.212 26.328 73.7877 25.4506 70.8175 25.4506C67.8473 25.4506 65.4815 26.328 63.5284 28.0894C61.5754 29.841 60.5972 32.0345 60.5972 34.6538L60.6004 34.657ZM58.0722 62.3444C58.0722 65.9905 59.2616 69.0095 61.6371 71.4175C64.0029 73.8125 66.9016 75.0117 70.3073 75.0117C74.0639 75.0117 77.1544 73.793 79.5787 71.3558C82.0062 68.9185 83.2118 65.828 83.2118 62.1137C83.2118 58.3993 82.0744 55.1983 79.7899 52.8715C77.5053 50.535 74.4929 49.3684 70.7395 49.3684C66.9861 49.3684 63.7429 50.5252 61.4779 52.852C59.2128 55.1691 58.0754 58.3408 58.0754 62.3476L58.0722 62.3444ZM61.0717 46.8109C59.0471 45.472 57.5165 43.8504 56.4798 41.9591C55.4432 40.0547 54.9297 37.9132 54.9297 35.5247C54.9297 31.4366 56.4603 27.8814 59.5118 24.8819C62.5633 21.8825 66.2484 20.3811 70.5478 20.3811C74.8471 20.3811 78.802 21.8402 81.8534 24.7519C84.9049 27.6604 86.4355 31.1148 86.4355 35.1315C86.4355 37.7507 85.922 40.0157 84.8854 41.9168C83.8487 43.8114 82.2369 45.4492 80.0629 46.8109C83.0818 48.5137 85.3176 50.5577 86.7897 52.9235C88.2586 55.299 88.9963 58.097 88.9963 61.3207C88.9963 66.7282 87.2544 71.177 83.7805 74.6802C80.3066 78.1736 75.8188 79.9252 70.3105 79.9252C65.306 79.9252 61.0684 78.1639 57.5945 74.6412C54.1206 71.1088 52.3787 66.8095 52.3787 61.7139C52.3787 58.4415 53.0547 55.6338 54.4033 53.2972C55.7617 50.9705 57.9779 48.8062 61.0782 46.8141L61.0717 46.8109Z" fill="#E30613"/>
<path d="M60.6004 34.657C60.6004 37.4875 61.4974 39.7915 63.2977 41.5528C65.0915 43.3239 67.4248 44.2111 70.3138 44.2111C73.7455 44.2111 76.3745 43.4052 78.217 41.7933C80.0499 40.1815 80.9663 37.8579 80.9663 34.8162C80.9663 32.0572 80.0206 29.8117 78.1163 28.0699C76.212 26.328 73.7877 25.4506 70.8175 25.4506C67.8473 25.4506 65.4815 26.328 63.5284 28.0894C61.5754 29.841 60.5972 32.0345 60.5972 34.6538L60.6004 34.657ZM58.0722 62.3444C58.0722 65.9905 59.2616 69.0095 61.6371 71.4175C64.0029 73.8125 66.9016 75.0117 70.3073 75.0117C74.0639 75.0117 77.1544 73.793 79.5787 71.3558C82.0062 68.9185 83.2118 65.8281 83.2118 62.1137C83.2118 58.3993 82.0744 55.1983 79.7899 52.8715C77.5053 50.535 74.4929 49.3684 70.7395 49.3684C66.9861 49.3684 63.7429 50.5252 61.4779 52.852C59.2128 55.1691 58.0754 58.3408 58.0754 62.3476L58.0722 62.3444ZM61.0717 46.8109C59.0471 45.472 57.5165 43.8504 56.4798 41.9591C55.4432 40.0547 54.9297 37.9132 54.9297 35.5247C54.9297 31.4366 56.4603 27.8814 59.5118 24.8819C62.5633 21.8825 66.2484 20.3811 70.5478 20.3811C74.8471 20.3811 78.802 21.8402 81.8534 24.7519C84.9049 27.6604 86.4355 31.1148 86.4355 35.1315C86.4355 37.7507 85.922 40.0157 84.8854 41.9168C83.8487 43.8114 82.2369 45.4492 80.0629 46.8109C83.0818 48.5137 85.3176 50.5577 86.7897 52.9235C88.2586 55.299 88.9963 58.097 88.9963 61.3207C88.9963 66.7282 87.2544 71.177 83.7805 74.6802C80.3066 78.1736 75.8188 79.9252 70.3105 79.9252C65.306 79.9252 61.0684 78.1639 57.5945 74.6412C54.1206 71.1088 52.3787 66.8095 52.3787 61.7139C52.3787 58.4415 53.0547 55.6338 54.4033 53.2972C55.7617 50.9705 57.9779 48.8062 61.0782 46.8141L61.0717 46.8109Z" stroke="#181818" stroke-width="0.5" stroke-miterlimit="2.61"/>
<path fill-rule="evenodd" clip-rule="evenodd" d="M7.14954 49.6999V48.777L13.3954 42.7033H7.77998V41.1792H16.7621V42.0274L10.396 48.127H16.7621V49.6999H7.14954Z" fill="#181818"/>
<path fill-rule="evenodd" clip-rule="evenodd" d="M19.5861 48.0685H26.4527V42.7455H19.5861V48.0685ZM17.5095 43.1874C17.5095 42.414 17.659 41.8843 17.9612 41.6048C18.2602 41.3221 18.8484 41.1824 19.7226 41.1824H26.3129C27.1936 41.1824 27.7818 41.3221 28.0775 41.6048C28.3765 41.8876 28.526 42.4173 28.526 43.1874V47.685C28.526 48.4617 28.3732 48.9946 28.0678 49.2774C27.7623 49.5601 27.1774 49.6998 26.3129 49.6998H19.7226C18.8484 49.6998 18.2634 49.5601 17.9612 49.2774C17.659 48.9946 17.5095 48.4649 17.5095 47.685V43.1874Z" fill="#181818"/>
<path fill-rule="evenodd" clip-rule="evenodd" d="M29.7803 49.6999V41.1792H31.2037L38.4375 46.8369V41.1792H40.3158V49.6999H38.8795L31.6684 43.9544V49.6999H29.7803Z" fill="#181818"/>
<path fill-rule="evenodd" clip-rule="evenodd" d="M41.7815 49.6999V41.1792H50.9196V42.6871H43.8775V44.5459H47.9787V46.0115H43.8775V48.1075H51.0269V49.6999H41.7815Z" fill="#181818"/>
<path fill-rule="evenodd" clip-rule="evenodd" d="M98.9793 56.937H95.8304V57.9704H98.8298C99.301 57.9704 99.6163 58.0516 99.782 58.2108C99.9477 58.3701 100.029 58.6723 100.029 59.1078V59.7674C100.029 60.2029 99.9477 60.5051 99.782 60.6644C99.6163 60.8236 99.301 60.9048 98.8298 60.9048H95.8564C95.3884 60.9048 95.0699 60.8236 94.9042 60.6644C94.7385 60.5051 94.6572 60.2029 94.6572 59.7674V59.6342L95.6451 59.4295V59.9982H99.0443V58.8998H96.0448C95.5769 58.8998 95.2617 58.8185 95.0959 58.6593C94.9302 58.5001 94.849 58.2011 94.849 57.7624V57.2294C94.849 56.794 94.9302 56.4918 95.0959 56.3325C95.2617 56.1733 95.5736 56.092 96.0448 56.092H98.7746C99.2263 56.092 99.5383 56.17 99.7105 56.3228C99.8827 56.4788 99.9672 56.7517 99.9672 57.1482V57.2489L98.9793 57.4797V56.9337V56.937Z" fill="#181818"/>
<path fill-rule="evenodd" clip-rule="evenodd" d="M104.887 56.9271H102.372V58.201H104.887C105.082 58.201 105.215 58.1718 105.287 58.1165C105.358 58.0613 105.394 57.9605 105.394 57.8176V57.3041C105.394 57.1644 105.358 57.0669 105.287 57.0116C105.215 56.9564 105.082 56.9271 104.887 56.9271ZM101.27 60.9048V56.0952H105.384C105.768 56.0952 106.044 56.17 106.216 56.3162C106.389 56.4657 106.473 56.7029 106.473 57.0279V58.1035C106.473 58.4285 106.385 58.6657 106.216 58.812C106.044 58.9582 105.768 59.0329 105.384 59.0329H102.372V60.908H101.27V60.9048Z" fill="#181818"/>
<path fill-rule="evenodd" clip-rule="evenodd" d="M107.013 57.2326C107.013 56.7971 107.094 56.4982 107.26 56.3357C107.425 56.1765 107.737 56.0952 108.208 56.0952H111.751C112.219 56.0952 112.534 56.1765 112.696 56.3357C112.862 56.4949 112.943 56.7939 112.943 57.2326V59.7706C112.943 60.2093 112.862 60.5083 112.696 60.6675C112.531 60.8268 112.219 60.9048 111.751 60.9048H108.208C107.741 60.9048 107.425 60.8268 107.26 60.6675C107.094 60.5083 107.013 60.2093 107.013 59.7706V57.2326ZM108.134 60.0013H111.825V56.9564H108.134V60.0013Z" fill="#181818"/>
<path fill-rule="evenodd" clip-rule="evenodd" d="M117.831 56.9271H115.316V58.266H117.831C118.026 58.266 118.159 58.2368 118.23 58.1815C118.302 58.1263 118.338 58.0255 118.338 57.8825V57.3041C118.338 57.1644 118.302 57.0669 118.23 57.0116C118.159 56.9564 118.026 56.9271 117.831 56.9271ZM114.214 60.9048V56.0952H118.328C118.711 56.0952 118.988 56.17 119.16 56.3162C119.332 56.4657 119.417 56.7029 119.417 57.0279V58.1555C119.417 58.4805 119.329 58.7177 119.16 58.8672C118.988 59.0167 118.711 59.0882 118.328 59.0882H117.701L119.924 60.9048H118.318L116.378 59.0882H115.319V60.9048H114.217H114.214Z" fill="#181818"/>
<path fill-rule="evenodd" clip-rule="evenodd" d="M122.679 56.9564V60.9048H121.558V56.9564H119.352V56.0952H124.896V56.9564H122.679Z" fill="#181818"/>
<path fill-rule="evenodd" clip-rule="evenodd" d="M129.351 56.937H126.202V57.9704H129.201C129.673 57.9704 129.988 58.0516 130.154 58.2108C130.319 58.3701 130.401 58.6723 130.401 59.1078V59.7674C130.401 60.2029 130.319 60.5051 130.154 60.6644C129.988 60.8236 129.673 60.9048 129.201 60.9048H126.228C125.76 60.9048 125.442 60.8236 125.276 60.6644C125.11 60.5051 125.029 60.2029 125.029 59.7674V59.6342L126.017 59.4295V59.9982H129.416V58.8998H126.416C125.949 58.8998 125.633 58.8185 125.468 58.6593C125.302 58.5001 125.221 58.2011 125.221 57.7624V57.2294C125.221 56.794 125.302 56.4918 125.468 56.3325C125.633 56.1733 125.945 56.092 126.416 56.092H129.146C129.598 56.092 129.91 56.17 130.082 56.3228C130.254 56.4788 130.339 56.7517 130.339 57.1482V57.2489L129.351 57.4797V56.9337V56.937Z" fill="#181818"/>
<path fill-rule="evenodd" clip-rule="evenodd" d="M108.436 67.3164H109.885L110.174 67.0694L109.235 66.2895L108.433 66.7835V67.3197L108.436 67.3164ZM108.608 67.8624C108.303 67.8624 108.095 67.8104 107.987 67.7064C107.88 67.6024 107.825 67.4074 107.825 67.1214V66.9167C107.825 66.7802 107.848 66.673 107.896 66.5982C107.942 66.5235 108.049 66.4325 108.215 66.335L108.852 65.9548C108.758 65.8768 108.693 65.7988 108.65 65.7241C108.608 65.6493 108.585 65.5681 108.585 65.4803V65.3049C108.585 65.0969 108.644 64.9506 108.758 64.8629C108.871 64.7752 109.073 64.7329 109.362 64.7329H109.993C110.295 64.7329 110.499 64.7784 110.607 64.8694C110.714 64.9604 110.769 65.1261 110.769 65.3634V65.5518L110.204 65.6461V65.2301H109.18V65.4543L110.655 66.6795L111.38 66.075L111.793 66.4325L111.071 67.0304L112.059 67.8624H111.107L110.594 67.4269L110.314 67.6739C110.23 67.7454 110.152 67.7941 110.077 67.8201C110.002 67.8461 109.885 67.8591 109.723 67.8591H108.608V67.8624Z" fill="#181818"/>
<path fill-rule="evenodd" clip-rule="evenodd" d="M116.196 65.2203H113.856V67.2611H116.196V66.5462H114.971V65.997H116.924V67.1052C116.924 67.3976 116.869 67.5991 116.758 67.7064C116.648 67.8136 116.437 67.8656 116.125 67.8656H113.905C113.593 67.8656 113.382 67.8136 113.271 67.7064C113.161 67.5991 113.106 67.3976 113.106 67.1052V65.4088C113.106 65.1163 113.161 64.9149 113.271 64.8076C113.382 64.7004 113.593 64.6451 113.905 64.6451H116.125C116.433 64.6451 116.645 64.6971 116.755 64.8044C116.866 64.9116 116.924 65.1001 116.924 65.3763V65.4511L116.196 65.581V65.2203Z" fill="#181818"/>
<path fill-rule="evenodd" clip-rule="evenodd" d="M120.206 65.2008H118.52V66.0977H120.206C120.336 66.0977 120.427 66.0783 120.473 66.0425C120.522 66.0068 120.544 65.9385 120.544 65.8443V65.4576C120.544 65.3633 120.522 65.2983 120.473 65.2593C120.424 65.2236 120.336 65.2041 120.206 65.2041V65.2008ZM117.785 67.8656V64.6451H120.541C120.798 64.6451 120.983 64.6939 121.097 64.7914C121.211 64.8889 121.269 65.0481 121.269 65.2691V66.023C121.269 66.2407 121.211 66.4 121.097 66.4975C120.983 66.595 120.798 66.6469 120.541 66.6469H120.122L121.61 67.8623H120.535L119.235 66.6469H118.523V67.8623H117.785V67.8656Z" fill="#181818"/>
<path fill-rule="evenodd" clip-rule="evenodd" d="M122.062 67.8656V64.6451H122.813V67.8656H122.062Z" fill="#181818"/>
<path fill-rule="evenodd" clip-rule="evenodd" d="M123.732 67.8656V64.6451H124.48V67.2579H126.897V67.8656H123.732Z" fill="#181818"/>
<path fill-rule="evenodd" clip-rule="evenodd" d="M127.271 67.8656V64.6451H128.019V67.2579H130.436V67.8656H127.271Z" fill="#181818"/>
<path fill-rule="evenodd" clip-rule="evenodd" d="M97.1627 65.2009H95.4794V65.9548H97.1627C97.2895 65.9548 97.3772 65.9386 97.4259 65.9028C97.4747 65.8671 97.5007 65.8086 97.5007 65.7241V65.4251C97.5007 65.3439 97.4747 65.2854 97.4259 65.2497C97.3772 65.2139 97.2895 65.1977 97.1627 65.1977V65.2009ZM97.1627 66.478H95.4794V67.284H97.1627C97.3025 67.284 97.3967 67.2645 97.4454 67.2222C97.4942 67.18 97.5202 67.1052 97.5202 67.0012V66.7608C97.5202 66.6535 97.4942 66.582 97.4454 66.5398C97.3967 66.5008 97.3025 66.478 97.1627 66.478ZM94.7547 67.8527V64.6842H97.4714C97.7217 64.6842 97.9004 64.7329 98.0141 64.8304C98.1279 64.9279 98.1831 65.0839 98.1831 65.2984V65.6851C98.1831 65.8346 98.1376 65.9581 98.0434 66.0491C97.9492 66.1401 97.8159 66.1953 97.6372 66.2181C97.8192 66.2408 97.9589 66.3058 98.0596 66.413C98.1571 66.5203 98.2091 66.6568 98.2091 66.8258V67.232C98.2091 67.4399 98.1311 67.5959 97.9784 67.6999C97.8257 67.8007 97.5917 67.8527 97.2765 67.8527H94.758H94.7547Z" fill="#181818"/>
<path fill-rule="evenodd" clip-rule="evenodd" d="M99.73 66.5917H101.118L100.435 65.3016L99.73 66.5917ZM98.3131 67.8558L100.107 64.6874H100.819L102.635 67.8558H101.807L101.426 67.1636H99.418L99.0475 67.8558H98.3131Z" fill="#181818"/>
<path fill-rule="evenodd" clip-rule="evenodd" d="M105.319 65.2366H103.662V66.1172H105.319C105.446 66.1172 105.534 66.0977 105.583 66.062C105.628 66.0263 105.654 65.958 105.654 65.867V65.4868C105.654 65.3958 105.631 65.3308 105.583 65.2918C105.537 65.2561 105.449 65.2366 105.319 65.2366ZM102.937 67.8558V64.6874H105.648C105.898 64.6874 106.083 64.7361 106.194 64.8336C106.307 64.9311 106.363 65.0871 106.363 65.3048V66.049C106.363 66.2635 106.307 66.4195 106.194 66.517C106.08 66.6144 105.898 66.6632 105.648 66.6632H105.235L106.697 67.8591H105.638L104.361 66.6632H103.662V67.8591H102.937V67.8558Z" fill="#181818"/>
</svg>
