<svg width="80" height="78" viewBox="0 0 80 78" fill="none" xmlns="http://www.w3.org/2000/svg">
<g filter="url(#filter0_d_4797_5955)">
<path d="M55.545 22.3021C55.2645 22.0218 54.8098 22.0216 54.5291 22.3021L47.0816 29.7495C46.8009 30.03 46.8009 30.4847 47.0815 30.7653C47.2218 30.9056 47.4056 30.9756 47.5895 30.9756C47.7732 30.9756 47.9571 30.9056 48.0974 30.7653L55.545 23.318C55.8255 23.0374 55.8255 22.5826 55.545 22.3021Z" fill="white"/>
<path d="M57.5703 24.2955C57.2897 24.0151 56.835 24.0151 56.5545 24.2955L49.107 31.743C48.8265 32.0236 48.8265 32.4783 49.1069 32.7589C49.2472 32.8991 49.4311 32.9692 49.6149 32.9692C49.7986 32.9692 49.9825 32.8991 50.1228 32.7589L57.5703 25.3113C57.8509 25.0307 57.8509 24.576 57.5703 24.2955Z" fill="white"/>
<path d="M50.5444 36.872L59.7896 27.6268C60.0701 27.3462 60.0701 26.8915 59.7896 26.611C59.509 26.3306 59.0543 26.3304 58.7737 26.611L49.5287 35.8561C48.3897 36.995 46.6482 37.2938 45.1951 36.5999C44.9061 36.462 44.5609 36.5317 44.3483 36.7713L41.207 40.3106C41.2057 40.3119 41.2043 40.3131 41.2031 40.3145C41.2018 40.3159 41.2009 40.3174 41.1997 40.3188L27.6224 55.6154C27.619 55.6193 27.6155 55.6233 27.6122 55.6273C27.5674 55.6799 27.5251 55.726 27.4823 55.7689C26.5858 56.6653 25.1272 56.6653 24.2311 55.7689C23.7969 55.3348 23.5578 54.7574 23.5578 54.1433C23.5578 53.5292 23.7969 52.9519 24.2319 52.5169C24.2736 52.4749 24.3197 52.4328 24.3728 52.3877C24.3768 52.3843 24.3807 52.3809 24.3847 52.3774L32.8728 44.8435C33.1695 44.5802 33.1965 44.1262 32.9332 43.8296C32.6698 43.5328 32.2157 43.5056 31.9192 43.7692L23.4367 51.2981C23.3556 51.3672 23.283 51.4342 23.2154 51.5019C22.5098 52.2074 22.1212 53.1455 22.1212 54.1433C22.1212 55.141 22.5097 56.0792 23.2153 56.7847C23.9436 57.5129 24.9001 57.8771 25.8568 57.877C26.8132 57.877 27.7699 57.513 28.4977 56.7851C28.5667 56.7163 28.6335 56.6436 28.7021 56.5633L39.0483 44.9066L49.3947 56.5635C49.4632 56.6438 49.53 56.7165 49.5986 56.7849C50.3268 57.5131 51.2833 57.8771 52.2399 57.8771C53.1965 57.8771 54.1532 57.513 54.8815 56.7848C56.3377 55.3283 56.3377 52.9586 54.8818 51.5025C54.8131 51.4335 54.7404 51.3667 54.6601 51.2982L42.7546 40.731L45.0839 38.1067C46.9711 38.7753 49.1066 38.3096 50.5444 36.872ZM53.712 52.3775C53.7159 52.381 53.7199 52.3844 53.7239 52.3878C53.7765 52.4325 53.8226 52.4748 53.8655 52.5176C54.7618 53.414 54.7618 54.8725 53.8656 55.7688C52.9691 56.6651 51.5106 56.6651 50.6139 55.7684C50.5715 55.726 50.529 55.6797 50.4843 55.6271C50.4809 55.6231 50.4775 55.6192 50.474 55.6153L40.0086 43.8245L41.8007 41.8053L53.712 52.3775Z" fill="white"/>
<path d="M53.389 20.2103C53.1083 19.9299 52.6537 19.9299 52.3731 20.2103L43.1281 29.4555C41.6901 30.8933 41.2245 33.0286 41.8932 34.9162L39.0483 37.4414L36.3141 35.0145C37.728 32.2323 37.2119 28.8543 34.9686 26.6109C32.7406 24.3829 30.16 22.8151 27.7021 22.1962C25.1362 21.5504 22.9364 21.9815 21.5072 23.4107C20.078 24.8398 19.6467 27.04 20.2927 29.6057C20.9116 32.0634 22.4794 34.644 24.7076 36.8719C26.9509 39.1154 30.3288 39.6315 33.1112 38.2175C33.1112 38.2175 35.785 41.2298 35.8189 41.2681C35.9608 41.428 36.1581 41.5095 36.3564 41.5095C36.526 41.5095 36.6962 41.4498 36.833 41.3284L43.2287 35.6515C43.4682 35.439 43.538 35.0937 43.4001 34.8047C42.706 33.3515 43.0049 31.6101 44.1439 30.4713L53.389 21.2262C53.6695 20.9455 53.6695 20.4908 53.389 20.2103ZM36.4165 39.7774L33.8018 36.8316C33.5702 36.5708 33.1844 36.5137 32.8876 36.6971C30.5846 38.1172 27.6385 37.7716 25.7232 35.8562C23.676 33.8091 22.2422 31.4648 21.6857 29.2549C21.1681 27.1989 21.4655 25.484 22.523 24.4265C23.5805 23.3689 25.2953 23.0717 27.3512 23.5894C29.5612 24.1458 31.9056 25.5795 33.9526 27.6267C35.868 29.5419 36.2136 32.488 34.7934 34.791C34.6103 35.0879 34.6671 35.4736 34.928 35.7052L37.9661 38.4018L36.4165 39.7774Z" fill="white"/>
</g>
<defs>
<filter id="filter0_d_4797_5955" x="0" y="-1.06152" width="80" height="80" filterUnits="userSpaceOnUse" color-interpolation-filters="sRGB">
<feFlood flood-opacity="0" result="BackgroundImageFix"/>
<feColorMatrix in="SourceAlpha" type="matrix" values="0 0 0 0 0 0 0 0 0 0 0 0 0 0 0 0 0 0 127 0" result="hardAlpha"/>
<feOffset/>
<feGaussianBlur stdDeviation="10"/>
<feComposite in2="hardAlpha" operator="out"/>
<feColorMatrix type="matrix" values="0 0 0 0 1 0 0 0 0 1 0 0 0 0 1 0 0 0 0.5 0"/>
<feBlend mode="normal" in2="BackgroundImageFix" result="effect1_dropShadow_4797_5955"/>
<feBlend mode="normal" in="SourceGraphic" in2="effect1_dropShadow_4797_5955" result="shape"/>
</filter>
</defs>
</svg>
