<svg width="140" height="64" viewBox="0 0 140 64" fill="none" xmlns="http://www.w3.org/2000/svg">
<path fill-rule="evenodd" clip-rule="evenodd" d="M138.515 34.1265H81.9478C80.8819 34.1265 79.777 35.1339 79.491 36.3623L75.8903 51.8145C75.6044 53.0462 76.2413 54.0503 77.304 54.0503H133.871C134.937 54.0503 136.042 53.0429 136.328 51.8145L139.929 36.3623C140.215 35.1306 139.578 34.1265 138.515 34.1265Z" fill="white"/>
<path fill-rule="evenodd" clip-rule="evenodd" d="M1.4853 18.583H58.0494C59.1153 18.583 60.2202 19.4669 60.5062 20.5458L64.1069 34.1068C64.3929 35.1857 63.7559 36.0696 62.6933 36.0696H6.12911C5.06321 36.0696 3.95832 35.1857 3.67234 34.1068L0.068434 20.5458C-0.217539 19.4669 0.419401 18.583 1.48205 18.583H1.4853Z" fill="white"/>
<path fill-rule="evenodd" clip-rule="evenodd" d="M70.5002 31.687C76.8341 31.687 82.0002 37.0766 82.0002 43.687C82.0002 50.2974 76.8341 55.687 70.5002 55.687C64.1664 55.687 59.0002 50.2974 59.0002 43.687C59.0002 37.0766 64.1664 31.687 70.5002 31.687Z" fill="#181818"/>
<path fill-rule="evenodd" clip-rule="evenodd" d="M70.5002 7.68701C75.7325 7.68701 80.0002 11.7292 80.0002 16.687C80.0002 21.6448 75.7325 25.687 70.5002 25.687C65.268 25.687 61.0002 21.6448 61.0002 16.687C61.0002 11.7292 65.268 7.68701 70.5002 7.68701Z" fill="#181818"/>
<path fill-rule="evenodd" clip-rule="evenodd" d="M60.4316 16.2759C60.4316 19.1064 61.3285 21.4104 63.1288 23.1717C64.9226 24.9428 67.2559 25.83 70.1449 25.83C73.5798 25.83 76.2056 25.0241 78.0481 23.4122C79.881 21.8004 80.7974 19.4768 80.7974 16.4351C80.7974 13.6761 79.8517 11.4306 77.9474 9.68877C76.0431 7.94694 73.6188 7.06952 70.6486 7.06952C67.6784 7.06952 65.3126 7.94694 63.3595 9.70827C61.4065 11.4599 60.4283 13.6534 60.4283 16.2726L60.4316 16.2759ZM57.9033 43.9633C57.9033 47.6094 59.0927 50.6284 61.4682 53.0364C63.834 55.4314 66.7327 56.6306 70.1384 56.6306C73.895 56.6306 76.9855 55.4119 79.4098 52.9747C81.8373 50.5374 83.0429 47.447 83.0429 43.7326C83.0429 40.0182 81.9055 36.8172 79.621 34.4904C77.3365 32.1539 74.324 30.9873 70.5706 30.9873C66.8172 30.9873 63.574 32.1441 61.309 34.4709C59.0439 36.788 57.9065 39.9597 57.9065 43.9665L57.9033 43.9633ZM60.9028 28.4298C58.8782 27.0909 57.3476 25.4693 56.3109 23.578C55.2743 21.6736 54.7608 19.5321 54.7608 17.1436C54.7608 13.0555 56.2915 9.50029 59.3429 6.50082C62.3944 3.50136 66.0795 2 70.3789 2C74.6782 2 78.6331 3.45911 81.6845 6.37084C84.736 9.27931 86.2666 12.7337 86.2666 16.7504C86.2666 19.3696 85.7532 21.6346 84.7165 23.5357C83.6799 25.4303 82.068 27.0681 79.894 28.4298C82.9129 30.1326 85.1487 32.1766 86.6208 34.5424C88.0897 36.9179 88.8274 39.7159 88.8274 42.9396C88.8274 48.3471 87.0855 52.7959 83.6116 56.2991C80.1377 59.7925 75.6499 61.5441 70.1416 61.5441C65.1371 61.5441 60.8995 59.7828 57.4256 56.2601C53.9517 52.7277 52.2098 48.4284 52.2098 43.3328C52.2098 40.0604 52.8858 37.2527 54.2344 34.9161C55.5928 32.5894 57.8091 30.4251 60.9093 28.433L60.9028 28.4298Z" fill="#E30613"/>
<path d="M60.4316 16.2759C60.4316 19.1064 61.3285 21.4104 63.1288 23.1717C64.9226 24.9428 67.2559 25.83 70.1449 25.83C73.5798 25.83 76.2056 25.0241 78.0481 23.4122C79.881 21.8004 80.7974 19.4768 80.7974 16.4351C80.7974 13.6761 79.8517 11.4306 77.9474 9.68877C76.0431 7.94694 73.6188 7.06952 70.6486 7.06952C67.6784 7.06952 65.3126 7.94694 63.3595 9.70827C61.4065 11.4599 60.4283 13.6534 60.4283 16.2726L60.4316 16.2759ZM57.9033 43.9633C57.9033 47.6094 59.0927 50.6284 61.4682 53.0364C63.834 55.4314 66.7327 56.6306 70.1384 56.6306C73.895 56.6306 76.9855 55.4119 79.4098 52.9747C81.8373 50.5374 83.0429 47.447 83.0429 43.7326C83.0429 40.0182 81.9055 36.8172 79.621 34.4904C77.3365 32.1539 74.324 30.9873 70.5706 30.9873C66.8172 30.9873 63.574 32.1441 61.309 34.4709C59.0439 36.788 57.9065 39.9597 57.9065 43.9665L57.9033 43.9633ZM60.9028 28.4298C58.8782 27.0909 57.3476 25.4693 56.3109 23.578C55.2743 21.6736 54.7608 19.5321 54.7608 17.1436C54.7608 13.0555 56.2915 9.50029 59.3429 6.50082C62.3944 3.50136 66.0795 2 70.3789 2C74.6782 2 78.6331 3.45911 81.6845 6.37084C84.736 9.27931 86.2666 12.7337 86.2666 16.7504C86.2666 19.3696 85.7532 21.6346 84.7165 23.5357C83.6799 25.4303 82.068 27.0681 79.894 28.4298C82.9129 30.1326 85.1487 32.1766 86.6208 34.5424C88.0897 36.9179 88.8274 39.7159 88.8274 42.9396C88.8274 48.3471 87.0855 52.7959 83.6116 56.2991C80.1377 59.7925 75.6499 61.5441 70.1416 61.5441C65.1371 61.5441 60.8995 59.7828 57.4256 56.2601C53.9517 52.7277 52.2098 48.4284 52.2098 43.3328C52.2098 40.0604 52.8858 37.2527 54.2344 34.9161C55.5928 32.5894 57.8091 30.4251 60.9093 28.433L60.9028 28.4298Z" stroke="#E40F1A" stroke-width="4" stroke-miterlimit="2.61"/>
<path fill-rule="evenodd" clip-rule="evenodd" d="M60.6005 16.344C60.6005 19.1745 61.4974 21.4785 63.2978 23.2399C65.0916 25.0109 67.4249 25.8981 70.3138 25.8981C73.7455 25.8981 76.3745 25.0922 78.2171 23.4803C80.0499 21.8685 80.9663 19.545 80.9663 16.5032C80.9663 13.7443 80.0207 11.4987 78.1164 9.75689C76.212 8.01505 73.7878 7.13764 70.8175 7.13764C67.8473 7.13764 65.4815 8.01505 63.5285 9.77639C61.5754 11.528 60.5973 13.7215 60.5973 16.3408L60.6005 16.344ZM58.0722 44.0314C58.0722 47.6775 59.2616 50.6965 61.6372 53.1045C64.0029 55.4996 66.9017 56.6987 70.3073 56.6987C74.064 56.6987 77.1544 55.4801 79.5787 53.0428C82.0062 50.6055 83.2119 47.5151 83.2119 43.8007C83.2119 40.0863 82.0745 36.8853 79.7899 34.5585C77.5054 32.222 74.4929 31.0554 70.7395 31.0554C66.9862 31.0554 63.743 32.2123 61.4779 34.539C59.2129 36.8561 58.0755 40.0278 58.0755 44.0346L58.0722 44.0314ZM61.0717 28.4979C59.0472 27.159 57.5166 25.5374 56.4799 23.6461C55.4432 21.7418 54.9298 19.6002 54.9298 17.2117C54.9298 13.1236 56.4604 9.56841 59.5119 6.56894C62.5633 3.56947 66.2485 2.06812 70.5478 2.06812C74.8472 2.06812 78.802 3.52723 81.8535 6.43895C84.905 9.34743 86.4356 12.8018 86.4356 16.8185C86.4356 19.4377 85.9221 21.7028 84.8855 23.6038C83.8488 25.4984 82.237 27.1362 80.0629 28.4979C83.0819 30.2007 85.3177 32.2448 86.7898 34.6105C88.2586 36.9861 88.9963 39.784 88.9963 43.0077C88.9963 48.4152 87.2545 52.8641 83.7806 56.3672C80.3066 59.8606 75.8188 61.6122 70.3106 61.6122C65.3061 61.6122 61.0685 59.8509 57.5945 56.3282C54.1206 52.7958 52.3788 48.4965 52.3788 43.401C52.3788 40.1285 53.0547 37.3208 54.4033 34.9842C55.7617 32.6575 57.978 30.4932 61.0782 28.5011L61.0717 28.4979Z" fill="#E30613"/>
<path d="M60.6005 16.344C60.6005 19.1745 61.4974 21.4785 63.2978 23.2399C65.0916 25.0109 67.4249 25.8981 70.3138 25.8981C73.7455 25.8981 76.3745 25.0922 78.2171 23.4803C80.0499 21.8685 80.9663 19.545 80.9663 16.5032C80.9663 13.7443 80.0207 11.4987 78.1164 9.75689C76.212 8.01505 73.7878 7.13764 70.8175 7.13764C67.8473 7.13764 65.4815 8.01505 63.5285 9.77639C61.5754 11.528 60.5973 13.7215 60.5973 16.3408L60.6005 16.344ZM58.0722 44.0314C58.0722 47.6775 59.2616 50.6965 61.6372 53.1045C64.0029 55.4996 66.9017 56.6987 70.3073 56.6987C74.064 56.6987 77.1544 55.4801 79.5787 53.0428C82.0062 50.6055 83.2119 47.5151 83.2119 43.8007C83.2119 40.0863 82.0745 36.8853 79.7899 34.5585C77.5054 32.222 74.4929 31.0554 70.7395 31.0554C66.9862 31.0554 63.743 32.2123 61.4779 34.539C59.2129 36.8561 58.0755 40.0278 58.0755 44.0346L58.0722 44.0314ZM61.0717 28.4979C59.0472 27.159 57.5166 25.5374 56.4799 23.6461C55.4432 21.7418 54.9298 19.6002 54.9298 17.2117C54.9298 13.1236 56.4604 9.56841 59.5119 6.56894C62.5633 3.56947 66.2485 2.06812 70.5478 2.06812C74.8472 2.06812 78.802 3.52723 81.8535 6.43895C84.905 9.34743 86.4356 12.8018 86.4356 16.8185C86.4356 19.4377 85.9221 21.7028 84.8855 23.6038C83.8488 25.4984 82.237 27.1362 80.0629 28.4979C83.0819 30.2007 85.3177 32.2448 86.7898 34.6105C88.2586 36.9861 88.9963 39.784 88.9963 43.0077C88.9963 48.4152 87.2545 52.8641 83.7806 56.3672C80.3066 59.8606 75.8188 61.6122 70.3106 61.6122C65.3061 61.6122 61.0685 59.8509 57.5945 56.3282C54.1206 52.7958 52.3788 48.4965 52.3788 43.401C52.3788 40.1285 53.0547 37.3208 54.4033 34.9842C55.7617 32.6575 57.978 30.4932 61.0782 28.5011L61.0717 28.4979Z" stroke="#181818" stroke-width="0.5" stroke-miterlimit="2.61"/>
<path fill-rule="evenodd" clip-rule="evenodd" d="M7.14954 31.3869V30.464L13.3954 24.3903H7.77998V22.8662H16.7621V23.7144L10.396 29.8141H16.7621V31.3869H7.14954Z" fill="#181818"/>
<path fill-rule="evenodd" clip-rule="evenodd" d="M19.5862 29.7555H26.4528V24.4325H19.5862V29.7555ZM17.5096 24.8744C17.5096 24.101 17.6591 23.5713 17.9614 23.2918C18.2603 23.0091 18.8485 22.8694 19.7227 22.8694H26.3131C27.1937 22.8694 27.7819 23.0091 28.0776 23.2918C28.3766 23.5746 28.5261 24.1043 28.5261 24.8744V29.372C28.5261 30.1487 28.3734 30.6816 28.0679 30.9644C27.7624 31.2471 27.1775 31.3868 26.3131 31.3868H19.7227C18.8485 31.3868 18.2636 31.2471 17.9614 30.9644C17.6591 30.6816 17.5096 30.1519 17.5096 29.372V24.8744Z" fill="#181818"/>
<path fill-rule="evenodd" clip-rule="evenodd" d="M29.7804 31.3869V22.8662H31.2038L38.4376 28.5239V22.8662H40.3159V31.3869H38.8795L31.6685 25.6414V31.3869H29.7804Z" fill="#181818"/>
<path fill-rule="evenodd" clip-rule="evenodd" d="M41.7815 31.3869V22.8662H50.9196V24.3741H43.8775V26.2329H47.9787V27.6985H43.8775V29.7946H51.0269V31.3869H41.7815Z" fill="#181818"/>
<path fill-rule="evenodd" clip-rule="evenodd" d="M98.9793 38.624H95.8304V39.6574H98.8298C99.301 39.6574 99.6163 39.7386 99.782 39.8979C99.9477 40.0571 100.029 40.3593 100.029 40.7948V41.4545C100.029 41.8899 99.9477 42.1921 99.782 42.3514C99.6163 42.5106 99.301 42.5918 98.8298 42.5918H95.8564C95.3884 42.5918 95.0699 42.5106 94.9042 42.3514C94.7385 42.1921 94.6572 41.8899 94.6572 41.4545V41.3212L95.6451 41.1165V41.6852H99.0443V40.5868H96.0448C95.5769 40.5868 95.2617 40.5055 95.0959 40.3463C94.9302 40.1871 94.849 39.8881 94.849 39.4494V38.9164C94.849 38.481 94.9302 38.1788 95.0959 38.0195C95.2617 37.8603 95.5736 37.7791 96.0448 37.7791H98.7746C99.2263 37.7791 99.5383 37.857 99.7105 38.0098C99.8827 38.1658 99.9672 38.4387 99.9672 38.8352V38.9359L98.9793 39.1667V38.6207V38.624Z" fill="#181818"/>
<path fill-rule="evenodd" clip-rule="evenodd" d="M104.887 38.6141H102.372V39.888H104.887C105.082 39.888 105.216 39.8588 105.287 39.8035C105.358 39.7483 105.394 39.6475 105.394 39.5046V38.9911C105.394 38.8514 105.358 38.7539 105.287 38.6986C105.216 38.6434 105.082 38.6141 104.887 38.6141ZM101.27 42.5918V37.7822H105.384C105.768 37.7822 106.044 37.857 106.216 38.0032C106.389 38.1527 106.473 38.3899 106.473 38.7149V39.7905C106.473 40.1155 106.385 40.3527 106.216 40.499C106.044 40.6452 105.768 40.7199 105.384 40.7199H102.372V42.595H101.27V42.5918Z" fill="#181818"/>
<path fill-rule="evenodd" clip-rule="evenodd" d="M107.013 38.9196C107.013 38.4842 107.094 38.1852 107.26 38.0227C107.425 37.8635 107.737 37.7822 108.208 37.7822H111.751C112.219 37.7822 112.534 37.8635 112.696 38.0227C112.862 38.1819 112.943 38.4809 112.943 38.9196V41.4576C112.943 41.8963 112.862 42.1953 112.696 42.3545C112.531 42.5138 112.219 42.5918 111.751 42.5918H108.208C107.741 42.5918 107.425 42.5138 107.26 42.3545C107.094 42.1953 107.013 41.8963 107.013 41.4576V38.9196ZM108.134 41.6884H111.825V38.6434H108.134V41.6884Z" fill="#181818"/>
<path fill-rule="evenodd" clip-rule="evenodd" d="M117.831 38.6141H115.316V39.953H117.831C118.026 39.953 118.159 39.9238 118.231 39.8685C118.302 39.8133 118.338 39.7125 118.338 39.5696V38.9911C118.338 38.8514 118.302 38.7539 118.231 38.6986C118.159 38.6434 118.026 38.6141 117.831 38.6141ZM114.214 42.5918V37.7822H118.328C118.712 37.7822 118.988 37.857 119.16 38.0032C119.332 38.1527 119.417 38.3899 119.417 38.7149V39.8425C119.417 40.1675 119.329 40.4047 119.16 40.5542C118.988 40.7037 118.712 40.7752 118.328 40.7752H117.701L119.924 42.5918H118.318L116.378 40.7752H115.319V42.5918H114.217H114.214Z" fill="#181818"/>
<path fill-rule="evenodd" clip-rule="evenodd" d="M122.679 38.6434V42.5918H121.558V38.6434H119.352V37.7822H124.896V38.6434H122.679Z" fill="#181818"/>
<path fill-rule="evenodd" clip-rule="evenodd" d="M129.351 38.624H126.202V39.6574H129.202C129.673 39.6574 129.988 39.7386 130.154 39.8979C130.319 40.0571 130.401 40.3593 130.401 40.7948V41.4545C130.401 41.8899 130.319 42.1921 130.154 42.3514C129.988 42.5106 129.673 42.5918 129.202 42.5918H126.228C125.76 42.5918 125.442 42.5106 125.276 42.3514C125.11 42.1921 125.029 41.8899 125.029 41.4545V41.3212L126.017 41.1165V41.6852H129.416V40.5868H126.417C125.949 40.5868 125.633 40.5055 125.468 40.3463C125.302 40.1871 125.221 39.8881 125.221 39.4494V38.9164C125.221 38.481 125.302 38.1788 125.468 38.0195C125.633 37.8603 125.945 37.7791 126.417 37.7791H129.146C129.598 37.7791 129.91 37.857 130.082 38.0098C130.254 38.1658 130.339 38.4387 130.339 38.8352V38.9359L129.351 39.1667V38.6207V38.624Z" fill="#181818"/>
<path fill-rule="evenodd" clip-rule="evenodd" d="M108.436 49.0034H109.885L110.175 48.7565L109.235 47.9765L108.433 48.4705V49.0067L108.436 49.0034ZM108.608 49.5494C108.303 49.5494 108.095 49.4974 107.988 49.3934C107.88 49.2894 107.825 49.0944 107.825 48.8084V48.6037C107.825 48.4672 107.848 48.36 107.897 48.2852C107.942 48.2105 108.049 48.1195 108.215 48.022L108.852 47.6418C108.758 47.5638 108.693 47.4858 108.65 47.4111C108.608 47.3363 108.586 47.2551 108.586 47.1674V46.9919C108.586 46.7839 108.644 46.6377 108.758 46.5499C108.871 46.4622 109.073 46.4199 109.362 46.4199H109.993C110.295 46.4199 110.5 46.4654 110.607 46.5564C110.714 46.6474 110.769 46.8131 110.769 47.0504V47.2388L110.204 47.3331V46.9171H109.18V47.1414L110.656 48.3665L111.38 47.762L111.793 48.1195L111.072 48.7175L112.059 49.5494H111.107L110.594 49.1139L110.314 49.3609C110.23 49.4324 110.152 49.4811 110.077 49.5071C110.002 49.5331 109.885 49.5461 109.723 49.5461H108.608V49.5494Z" fill="#181818"/>
<path fill-rule="evenodd" clip-rule="evenodd" d="M116.196 46.9075H113.857V48.9483H116.196V48.2333H114.971V47.6841H116.924V48.7923C116.924 49.0848 116.869 49.2862 116.758 49.3935C116.648 49.5007 116.437 49.5527 116.125 49.5527H113.905C113.593 49.5527 113.382 49.5007 113.272 49.3935C113.161 49.2862 113.106 49.0848 113.106 48.7923V47.096C113.106 46.8035 113.161 46.602 113.272 46.4948C113.382 46.3875 113.593 46.3323 113.905 46.3323H116.125C116.434 46.3323 116.645 46.3843 116.755 46.4915C116.866 46.5987 116.924 46.7872 116.924 47.0635V47.1382L116.196 47.2682V46.9075Z" fill="#181818"/>
<path fill-rule="evenodd" clip-rule="evenodd" d="M120.206 46.888H118.52V47.7849H120.206C120.336 47.7849 120.427 47.7654 120.473 47.7296C120.522 47.6939 120.544 47.6256 120.544 47.5314V47.1447C120.544 47.0505 120.522 46.9855 120.473 46.9465C120.424 46.9107 120.336 46.8912 120.206 46.8912V46.888ZM117.785 49.5527V46.3323H120.541C120.798 46.3323 120.983 46.381 121.097 46.4785C121.211 46.576 121.269 46.7352 121.269 46.9562V47.7101C121.269 47.9279 121.211 48.0871 121.097 48.1846C120.983 48.2821 120.798 48.3341 120.541 48.3341H120.122L121.61 49.5495H120.535L119.235 48.3341H118.523V49.5495H117.785V49.5527Z" fill="#181818"/>
<path fill-rule="evenodd" clip-rule="evenodd" d="M122.062 49.5527V46.3323H122.813V49.5527H122.062Z" fill="#181818"/>
<path fill-rule="evenodd" clip-rule="evenodd" d="M123.732 49.5527V46.3323H124.48V48.945H126.897V49.5527H123.732Z" fill="#181818"/>
<path fill-rule="evenodd" clip-rule="evenodd" d="M127.271 49.5527V46.3323H128.019V48.945H130.436V49.5527H127.271Z" fill="#181818"/>
<path fill-rule="evenodd" clip-rule="evenodd" d="M97.1628 46.8878H95.4794V47.6417H97.1628C97.2895 47.6417 97.3773 47.6255 97.426 47.5897C97.4748 47.554 97.5008 47.4955 97.5008 47.411V47.112C97.5008 47.0308 97.4748 46.9723 97.426 46.9365C97.3773 46.9008 97.2895 46.8845 97.1628 46.8845V46.8878ZM97.1628 48.1649H95.4794V48.9708H97.1628C97.3025 48.9708 97.3968 48.9513 97.4455 48.9091C97.4943 48.8669 97.5203 48.7921 97.5203 48.6881V48.4476C97.5203 48.3404 97.4943 48.2689 97.4455 48.2267C97.3968 48.1877 97.3025 48.1649 97.1628 48.1649ZM94.7548 49.5395V46.3711H97.4715C97.7217 46.3711 97.9005 46.4198 98.0142 46.5173C98.1279 46.6148 98.1832 46.7708 98.1832 46.9853V47.372C98.1832 47.5215 98.1377 47.645 98.0435 47.736C97.9492 47.827 97.816 47.8822 97.6372 47.9049C97.8192 47.9277 97.959 47.9927 98.0597 48.0999C98.1572 48.2072 98.2092 48.3437 98.2092 48.5126V48.9189C98.2092 49.1268 98.1312 49.2828 97.9785 49.3868C97.8257 49.4875 97.5917 49.5395 97.2765 49.5395H94.758H94.7548Z" fill="#181818"/>
<path fill-rule="evenodd" clip-rule="evenodd" d="M99.7301 48.2788H101.118L100.435 46.9887L99.7301 48.2788ZM98.3132 49.543L100.107 46.3745H100.819L102.635 49.543H101.807L101.426 48.8508H99.4181L99.0477 49.543H98.3132Z" fill="#181818"/>
<path fill-rule="evenodd" clip-rule="evenodd" d="M105.32 46.9237H103.662V47.8044H105.32C105.446 47.8044 105.534 47.7849 105.583 47.7491C105.628 47.7134 105.654 47.6451 105.654 47.5542V47.1739C105.654 47.0829 105.631 47.018 105.583 46.979C105.537 46.9432 105.45 46.9237 105.32 46.9237ZM102.938 49.543V46.3745H105.648C105.898 46.3745 106.083 46.4233 106.194 46.5207C106.307 46.6182 106.363 46.7742 106.363 46.992V47.7361C106.363 47.9506 106.307 48.1066 106.194 48.2041C106.08 48.3016 105.898 48.3503 105.648 48.3503H105.235L106.697 49.5462H105.638L104.361 48.3503H103.662V49.5462H102.938V49.543Z" fill="#181818"/>
</svg>
