<svg width="80" height="79" viewBox="0 0 80 79" fill="none" xmlns="http://www.w3.org/2000/svg">
<rect width="80" height="58" transform="translate(0 12.025)" fill="black" fill-opacity="0.2"/>
<path d="M19.1263 56.473H21.5763C22.659 56.473 23.2003 57.047 23.2003 58.195V61.177C23.2003 62.3157 22.6637 62.885 21.5903 62.885H20.4703V66.525H19.1263V56.473ZM20.4703 61.667H21.3243C21.679 61.667 21.8563 61.471 21.8563 61.079V58.279C21.8563 57.887 21.6557 57.691 21.2543 57.691H20.4703V61.667ZM29.195 56.473V64.621C29.195 65.8904 28.6536 66.525 27.571 66.525H26.437C25.3636 66.525 24.827 65.8857 24.827 64.607V56.473H26.171V64.649C26.171 65.0877 26.367 65.307 26.759 65.307H27.305C27.669 65.307 27.851 65.0877 27.851 64.649V56.473H29.195ZM31.0198 56.473H33.6518C34.6784 56.473 35.1918 57.047 35.1918 58.195V60.673C35.1918 61.5504 34.9258 62.1057 34.3938 62.339L35.3318 66.525H34.0578L33.1758 62.465H32.3638V66.525H31.0198V56.473ZM32.3638 61.317H33.2458C33.6471 61.317 33.8478 61.0744 33.8478 60.589V58.419C33.8478 57.9337 33.6471 57.691 33.2458 57.691H32.3638V61.317ZM36.8708 66.525V56.473H40.2028V57.691H38.2148V60.743H39.9788V61.961H38.2148V65.307H40.2028V66.525H36.8708ZM48.2639 65.321V66.525H44.6519V63.431C44.6519 63.263 44.6659 63.123 44.6939 63.011C44.7219 62.899 44.7686 62.7964 44.8339 62.703C44.9086 62.6004 45.0346 62.4604 45.2119 62.283L46.5699 60.981C46.6726 60.8784 46.7519 60.7897 46.8079 60.715C46.8733 60.6404 46.9153 60.5797 46.9339 60.533C46.9619 60.477 46.9759 60.421 46.9759 60.365C46.9853 60.309 46.9899 60.2344 46.9899 60.141V58.279C46.9899 57.887 46.7986 57.691 46.4159 57.691H46.3319C45.9493 57.691 45.7579 57.887 45.7579 58.279V59.315H44.4139V58.195C44.4139 57.047 44.9506 56.473 46.0239 56.473H46.7239C47.7973 56.473 48.3339 57.047 48.3339 58.195V60.603C48.3339 60.7897 48.3059 60.953 48.2499 61.093C48.2033 61.233 48.0726 61.4057 47.8579 61.611L46.3739 63.039C46.1873 63.2164 46.0799 63.3377 46.0519 63.403C46.0239 63.4684 46.0053 63.5337 45.9959 63.599C45.9959 63.6644 45.9959 63.753 45.9959 63.865V65.321H48.2639ZM50.1419 58.699L49.8339 57.775C50.1792 57.6444 50.4732 57.4624 50.7159 57.229C50.9586 56.9957 51.1499 56.7437 51.2899 56.473H51.4299L52.3119 56.949V66.525H50.9819V58.447L50.1419 58.699ZM55.4225 64.817V66.525H53.9945V64.817H55.4225ZM56.9641 64.173H58.3081V64.719C58.3081 65.111 58.4854 65.307 58.8401 65.307H58.9941C59.3954 65.307 59.5961 65.111 59.5961 64.719V62.423C59.5961 61.9844 59.4094 61.765 59.0361 61.765H57.0061V56.473H60.8001V57.719H58.2661V60.547H59.3301C60.4034 60.547 60.9401 61.1397 60.9401 62.325V64.747C60.9401 65.9324 60.4034 66.525 59.3301 66.525H58.5741C57.5007 66.525 56.9641 65.9557 56.9641 64.817V64.173ZM19.4319 73.359C20.1693 73.5644 20.5379 73.947 20.5379 74.507V77.027C20.5379 78.0257 20.0293 78.525 19.0119 78.525H16.3099V68.473H18.6059C19.8006 68.473 20.3979 69.0797 20.3979 70.293V72.225C20.3979 72.8037 20.0759 73.1584 19.4319 73.289V73.359ZM17.6539 77.307H18.6619C19.0166 77.307 19.1939 77.1624 19.1939 76.873V74.647C19.1939 74.171 18.9279 73.933 18.3959 73.933H17.6539V77.307ZM17.6539 72.715H18.2839C18.7973 72.715 19.0539 72.4724 19.0539 71.987V70.419C19.0539 69.9337 18.8533 69.691 18.4519 69.691H17.6539V72.715ZM25.4076 78.525H22.2156V68.473H23.5596V77.307H25.4076V78.525ZM28.0145 78.525H26.6705V70.195C26.6705 69.047 27.2071 68.473 28.2805 68.473H29.2885C30.3618 68.473 30.8985 69.047 30.8985 70.195V78.525H29.5545V74.843H28.0145V78.525ZM29.5545 73.625V70.279C29.5545 69.887 29.3585 69.691 28.9665 69.691H28.6025C28.2105 69.691 28.0145 69.887 28.0145 70.279V73.625H29.5545ZM36.6642 76.173V76.817C36.6642 77.9557 36.1275 78.525 35.0542 78.525H34.1862C33.1128 78.525 32.5762 77.9557 32.5762 76.817V70.181C32.5762 69.0424 33.1128 68.473 34.1862 68.473H35.0542C36.1275 68.473 36.6642 69.0424 36.6642 70.181V71.315H35.3202V70.279C35.3202 69.887 35.1195 69.691 34.7182 69.691H34.4522C34.0975 69.691 33.9202 69.887 33.9202 70.279V76.719C33.9202 77.111 34.0975 77.307 34.4522 77.307H34.7882C35.1428 77.307 35.3202 77.111 35.3202 76.719V76.173H36.6642ZM39.6224 78.525H38.2784V68.473H39.6224V78.525ZM42.7164 78.525H41.3724L39.6924 73.611V73.527L41.0924 68.473H42.3244L40.9104 73.471L42.7164 78.525ZM43.5574 77.307H44.4394C44.8408 77.307 45.0414 77.0644 45.0414 76.579V68.473H46.3854V76.831C46.3854 77.9604 45.8674 78.525 44.8314 78.525H43.5574V77.307ZM49.4771 78.525H48.1331V70.195C48.1331 69.047 48.6698 68.473 49.7431 68.473H50.7511C51.8245 68.473 52.3611 69.047 52.3611 70.195V78.525H51.0171V74.843H49.4771V78.525ZM51.0171 73.625V70.279C51.0171 69.887 50.8211 69.691 50.4291 69.691H50.0651C49.6731 69.691 49.4771 69.887 49.4771 70.279V73.625H51.0171ZM58.1268 76.173V76.817C58.1268 77.9557 57.5902 78.525 56.5168 78.525H55.6488C54.5755 78.525 54.0388 77.9557 54.0388 76.817V70.181C54.0388 69.0424 54.5755 68.473 55.6488 68.473H56.5168C57.5902 68.473 58.1268 69.0424 58.1268 70.181V71.315H56.7828V70.279C56.7828 69.887 56.5822 69.691 56.1808 69.691H55.9148C55.5602 69.691 55.3828 69.887 55.3828 70.279V76.719C55.3828 77.111 55.5602 77.307 55.9148 77.307H56.2508C56.6055 77.307 56.7828 77.111 56.7828 76.719V76.173H58.1268ZM61.0851 78.525H59.7411V68.473H61.0851V78.525ZM64.1791 78.525H62.8351L61.1551 73.611V73.527L62.5551 68.473H63.7871L62.3731 73.471L64.1791 78.525Z" fill="white"/>
<g filter="url(#filter0_f_3557_12763)">
<path d="M43.4207 42.3217C43.6802 42.3222 43.9359 42.2606 44.1666 42.1421C44.1693 42.179 44.171 42.2211 44.171 42.2692C44.171 42.3997 44.1401 42.8255 43.7427 42.8255C43.705 42.8255 43.3743 42.8376 43.3743 43.2594C43.3743 43.6811 43.7049 43.6932 43.7426 43.6932H45.9453C45.983 43.6932 46.3137 43.6811 46.3137 43.2594C46.3137 42.9964 46.1284 42.8588 45.9453 42.8588C45.5375 42.8588 45.517 42.3815 45.517 42.2858C45.517 42.2322 45.5191 42.1859 45.5224 42.1459C46.3249 42.5552 47.3083 42.2385 47.719 41.4385C48.1297 40.6385 47.812 39.6581 47.0094 39.2487C46.8417 39.1631 46.6604 39.1072 46.4734 39.0833C46.4347 38.1863 45.6738 37.4903 44.7739 37.529C43.9283 37.5653 43.2512 38.2404 43.2148 39.0833C42.3214 39.1968 41.6894 40.0109 41.8033 40.9016C41.9071 41.7134 42.6 42.3217 43.4209 42.3217L43.4207 42.3217ZM44.7277 42.9716C44.7771 42.8805 44.8156 42.784 44.8423 42.6839C44.8678 42.7836 44.9047 42.8801 44.9521 42.9716H44.7277ZM43.4207 39.792C43.4659 39.7921 43.5111 39.7954 43.5558 39.8021C43.7535 39.8315 43.9377 39.6956 43.9672 39.4985C43.974 39.4531 43.972 39.4067 43.9614 39.3621C43.8461 38.8762 44.1477 38.3891 44.6351 38.2741C45.1225 38.1591 45.6111 38.4598 45.7264 38.9457C45.759 39.0826 45.759 39.2251 45.7264 39.3621C45.6804 39.556 45.8007 39.7504 45.9952 39.7963C46.0401 39.8069 46.0865 39.8088 46.132 39.8021C46.1767 39.7955 46.2219 39.7921 46.2671 39.792C46.7686 39.7922 47.1749 40.1976 47.1747 40.6975C47.1745 41.1974 46.7678 41.6025 46.2664 41.6023C46.0301 41.6022 45.8032 41.5103 45.6338 41.3461C45.5051 41.2205 45.3033 41.2084 45.1604 41.3176C45.1026 41.3629 45.0512 41.4157 45.0075 41.4746C44.9313 41.5767 44.8762 41.6929 44.8456 41.8165C44.815 41.6897 44.7589 41.5705 44.6807 41.466C44.6368 41.4087 44.5855 41.3574 44.5281 41.3135C44.3852 41.2043 44.1835 41.2164 44.0547 41.3419C43.6968 41.691 43.1227 41.6847 42.7726 41.3278C42.4225 40.971 42.4288 40.3988 42.7867 40.0498C42.9563 39.8844 43.1841 39.7918 43.4214 39.792H43.4207Z" fill="white" fill-opacity="0.2"/>
<path d="M28.0008 43.6931H28.9035V45.8672C28.9039 46.0618 29.0624 46.2193 29.2577 46.2188C29.26 46.2188 29.2624 46.2188 29.2646 46.2188H39.5843C41.0173 47.5364 42.8941 48.2701 44.8436 48.275C49.125 48.275 52.6081 44.8053 52.6081 40.5371C52.6112 36.2659 49.1405 32.801 44.856 32.7979C43.6986 32.7971 42.5556 33.0545 41.5109 33.5511V33.1061C41.5089 32.9068 41.3451 32.7468 41.1452 32.7488H40.2441V30.9447H41.1452C41.345 30.9447 41.5109 30.753 41.5109 30.5539V28.0016C41.5095 27.8009 41.3465 27.6386 41.1452 27.6374H40.2441V25.8333H41.1452C41.3501 25.8226 41.5107 25.6539 41.5109 25.4493V22.8971C41.5101 22.6951 41.3479 22.5304 41.1452 22.526H40.2441V20.3448C40.2423 20.1526 40.0845 19.9982 39.8916 20C39.8882 20.0001 39.8847 20.0002 39.8812 20.0003H28.0008C27.8075 19.9926 27.6446 20.1427 27.637 20.3353C27.6368 20.3385 27.6368 20.3417 27.6367 20.3448V22.8971C27.6387 23.0926 27.7992 23.2495 27.9953 23.2476C27.9971 23.2476 27.999 23.2476 28.0008 23.2475H28.9035V25.1117H28.0008C27.8009 25.1117 27.6367 25.25 27.6367 25.4493V28.0015C27.638 28.2002 27.8007 28.3602 28 28.3589H28.0008H28.9035V30.2231H28.0008C27.8009 30.2231 27.6367 30.3545 27.6367 30.5538V33.106C27.6375 33.3064 27.7998 33.4688 28.0008 33.4703H28.9035V35.2743H28.0008C27.7962 35.2851 27.636 35.4539 27.6367 35.6582V38.2104C27.6369 38.4122 27.7984 38.5769 28.0008 38.5817H28.9035V40.3857H28.0008C27.7974 40.3932 27.6365 40.5598 27.6367 40.7627V43.3149C27.6364 43.518 27.7972 43.6851 28.0008 43.6931ZM29.6274 43.6931H37.7458C38.0398 44.3462 38.4263 44.9537 38.8936 45.4972H29.6274V43.6931ZM39.6332 35.8238L40.7978 36.9847C39.9762 37.9103 39.5009 39.0906 39.4526 40.3256H37.8065C37.8562 38.6556 38.5042 37.0586 39.6332 35.8238ZM44.8436 35.8822C47.4238 35.8822 49.5154 37.9673 49.5153 40.5394C49.5153 43.1115 47.4237 45.1966 44.8435 45.1966C42.2634 45.1965 40.1717 43.1114 40.1717 40.5394C40.1746 37.9684 42.2646 35.885 44.8436 35.8822ZM41.2947 44.5875C42.1322 45.3201 43.1774 45.7751 44.2857 45.8896V47.536C42.7405 47.4142 41.2791 46.7857 40.1301 45.7484L41.2947 44.5875ZM45.0096 45.9154C46.2655 45.8778 47.4685 45.4026 48.4094 44.5725L49.574 45.7335C48.323 46.8701 46.7018 47.5174 45.0096 47.5559V45.9154ZM48.9193 44.0604C49.6565 43.2157 50.1096 42.162 50.2151 41.0473H51.8657C51.7537 42.5974 51.1267 44.0661 50.0839 45.2213L48.9193 44.0604ZM50.2346 40.3256C50.1867 39.0984 49.717 37.9247 48.9044 37.0016L50.069 35.8406C51.1888 37.0732 51.8312 38.6634 51.8807 40.3256H50.2346ZM48.3925 36.4913C47.4539 35.6702 46.2578 35.2006 45.0096 35.1633V33.5228C46.6941 33.5612 48.3083 34.2028 49.5571 35.3303L48.3925 36.4913ZM44.2857 35.1892C43.1851 35.3027 42.1464 35.7521 41.3115 36.476L40.147 35.3153C41.2935 34.2868 42.7481 33.6637 44.2857 33.5425V35.1892ZM39.472 41.0473C39.5783 42.1695 40.0369 43.2298 40.7827 44.0772L39.6181 45.2382C38.5665 44.0805 37.934 42.605 37.8215 41.0473H39.472ZM28.3606 20.7219H39.5203V22.526H28.3606V20.7219ZM29.6274 23.2476H40.787V25.1117H29.6274V23.2476ZM28.3606 25.8333H39.5203V27.6374H28.3606V25.8333ZM29.6274 28.359H40.787V30.2231H29.6274V28.359ZM28.3606 30.9447H39.5203V32.7488H28.3606V30.9447ZM29.6274 33.4704H40.787V33.9445C40.1886 34.3249 39.6349 34.7709 39.1362 35.2744H29.6274V33.4704ZM28.3606 35.996H38.5447C38.1435 36.5758 37.8138 37.2017 37.5629 37.8601H28.3606V35.996ZM29.6274 38.5818H37.3337C37.1793 39.1712 37.0944 39.7767 37.0809 40.3858H29.6274V38.5818ZM28.3606 41.1074H37.1013C37.1473 41.7412 37.27 42.3671 37.4667 42.9715H28.3606V41.1074Z" fill="white" fill-opacity="0.2"/>
</g>
<path d="M43.4207 42.3217C43.6802 42.3222 43.9359 42.2606 44.1666 42.1421C44.1693 42.179 44.171 42.2211 44.171 42.2692C44.171 42.3997 44.1401 42.8255 43.7427 42.8255C43.705 42.8255 43.3743 42.8376 43.3743 43.2594C43.3743 43.6811 43.7049 43.6932 43.7426 43.6932H45.9453C45.983 43.6932 46.3137 43.6811 46.3137 43.2594C46.3137 42.9964 46.1284 42.8588 45.9453 42.8588C45.5375 42.8588 45.517 42.3815 45.517 42.2858C45.517 42.2322 45.5191 42.1859 45.5224 42.1459C46.3249 42.5552 47.3083 42.2385 47.719 41.4385C48.1297 40.6385 47.812 39.6581 47.0094 39.2487C46.8417 39.1631 46.6604 39.1072 46.4734 39.0833C46.4347 38.1863 45.6738 37.4903 44.7739 37.529C43.9283 37.5653 43.2512 38.2404 43.2148 39.0833C42.3214 39.1968 41.6894 40.0109 41.8033 40.9016C41.9071 41.7134 42.6 42.3217 43.4209 42.3217L43.4207 42.3217ZM44.7277 42.9716C44.7771 42.8805 44.8156 42.784 44.8423 42.6839C44.8678 42.7836 44.9047 42.8801 44.9521 42.9716H44.7277ZM43.4207 39.792C43.4659 39.7921 43.5111 39.7954 43.5558 39.8021C43.7535 39.8315 43.9377 39.6956 43.9672 39.4985C43.974 39.4531 43.972 39.4067 43.9614 39.3621C43.8461 38.8762 44.1477 38.3891 44.6351 38.2741C45.1225 38.1591 45.6111 38.4598 45.7264 38.9457C45.759 39.0826 45.759 39.2251 45.7264 39.3621C45.6804 39.556 45.8007 39.7504 45.9952 39.7963C46.0401 39.8069 46.0865 39.8088 46.132 39.8021C46.1767 39.7955 46.2219 39.7921 46.2671 39.792C46.7686 39.7922 47.1749 40.1976 47.1747 40.6975C47.1745 41.1974 46.7678 41.6025 46.2664 41.6023C46.0301 41.6022 45.8032 41.5103 45.6338 41.3461C45.5051 41.2205 45.3033 41.2084 45.1604 41.3176C45.1026 41.3629 45.0512 41.4157 45.0075 41.4746C44.9313 41.5767 44.8762 41.6929 44.8456 41.8165C44.815 41.6897 44.7589 41.5705 44.6807 41.466C44.6368 41.4087 44.5855 41.3574 44.5281 41.3135C44.3852 41.2043 44.1835 41.2164 44.0547 41.3419C43.6968 41.691 43.1227 41.6847 42.7726 41.3278C42.4225 40.971 42.4288 40.3988 42.7867 40.0498C42.9563 39.8844 43.1841 39.7918 43.4214 39.792H43.4207Z" fill="#E00000"/>
<path d="M28.0008 43.6931H28.9035V45.8672C28.9039 46.0618 29.0624 46.2193 29.2577 46.2188C29.26 46.2188 29.2624 46.2188 29.2646 46.2188H39.5843C41.0173 47.5364 42.8941 48.2701 44.8436 48.275C49.125 48.275 52.6081 44.8053 52.6081 40.5371C52.6112 36.2659 49.1405 32.801 44.856 32.7979C43.6986 32.7971 42.5556 33.0545 41.5109 33.5511V33.1061C41.5089 32.9068 41.3451 32.7468 41.1452 32.7488H40.2441V30.9447H41.1452C41.345 30.9447 41.5109 30.753 41.5109 30.5539V28.0016C41.5095 27.8009 41.3465 27.6386 41.1452 27.6374H40.2441V25.8333H41.1452C41.3501 25.8226 41.5107 25.6539 41.5109 25.4493V22.8971C41.5101 22.6951 41.3479 22.5304 41.1452 22.526H40.2441V20.3448C40.2423 20.1526 40.0845 19.9982 39.8916 20C39.8882 20.0001 39.8847 20.0002 39.8812 20.0003H28.0008C27.8075 19.9926 27.6446 20.1427 27.637 20.3353C27.6368 20.3385 27.6368 20.3417 27.6367 20.3448V22.8971C27.6387 23.0926 27.7992 23.2495 27.9953 23.2476C27.9971 23.2476 27.999 23.2476 28.0008 23.2475H28.9035V25.1117H28.0008C27.8009 25.1117 27.6367 25.25 27.6367 25.4493V28.0015C27.638 28.2002 27.8007 28.3602 28 28.3589H28.0008H28.9035V30.2231H28.0008C27.8009 30.2231 27.6367 30.3545 27.6367 30.5538V33.106C27.6375 33.3064 27.7998 33.4688 28.0008 33.4703H28.9035V35.2743H28.0008C27.7962 35.2851 27.636 35.4539 27.6367 35.6582V38.2104C27.6369 38.4122 27.7984 38.5769 28.0008 38.5817H28.9035V40.3857H28.0008C27.7974 40.3932 27.6365 40.5598 27.6367 40.7627V43.3149C27.6364 43.518 27.7972 43.6851 28.0008 43.6931ZM29.6274 43.6931H37.7458C38.0398 44.3462 38.4263 44.9537 38.8936 45.4972H29.6274V43.6931ZM39.6332 35.8238L40.7978 36.9847C39.9762 37.9103 39.5009 39.0906 39.4526 40.3256H37.8065C37.8562 38.6556 38.5042 37.0586 39.6332 35.8238ZM44.8436 35.8822C47.4238 35.8822 49.5154 37.9673 49.5153 40.5394C49.5153 43.1115 47.4237 45.1966 44.8435 45.1966C42.2634 45.1965 40.1717 43.1114 40.1717 40.5394C40.1746 37.9684 42.2646 35.885 44.8436 35.8822ZM41.2947 44.5875C42.1322 45.3201 43.1774 45.7751 44.2857 45.8896V47.536C42.7405 47.4142 41.2791 46.7857 40.1301 45.7484L41.2947 44.5875ZM45.0096 45.9154C46.2655 45.8778 47.4685 45.4026 48.4094 44.5725L49.574 45.7335C48.323 46.8701 46.7018 47.5174 45.0096 47.5559V45.9154ZM48.9193 44.0604C49.6565 43.2157 50.1096 42.162 50.2151 41.0473H51.8657C51.7537 42.5974 51.1267 44.0661 50.0839 45.2213L48.9193 44.0604ZM50.2346 40.3256C50.1867 39.0984 49.717 37.9247 48.9044 37.0016L50.069 35.8406C51.1888 37.0732 51.8312 38.6634 51.8807 40.3256H50.2346ZM48.3925 36.4913C47.4539 35.6702 46.2578 35.2006 45.0096 35.1633V33.5228C46.6941 33.5612 48.3083 34.2028 49.5571 35.3303L48.3925 36.4913ZM44.2857 35.1892C43.1851 35.3027 42.1464 35.7521 41.3115 36.476L40.147 35.3153C41.2935 34.2868 42.7481 33.6637 44.2857 33.5425V35.1892ZM39.472 41.0473C39.5783 42.1695 40.0369 43.2298 40.7827 44.0772L39.6181 45.2382C38.5665 44.0805 37.934 42.605 37.8215 41.0473H39.472ZM28.3606 20.7219H39.5203V22.526H28.3606V20.7219ZM29.6274 23.2476H40.787V25.1117H29.6274V23.2476ZM28.3606 25.8333H39.5203V27.6374H28.3606V25.8333ZM29.6274 28.359H40.787V30.2231H29.6274V28.359ZM28.3606 30.9447H39.5203V32.7488H28.3606V30.9447ZM29.6274 33.4704H40.787V33.9445C40.1886 34.3249 39.6349 34.7709 39.1362 35.2744H29.6274V33.4704ZM28.3606 35.996H38.5447C38.1435 36.5758 37.8138 37.2017 37.5629 37.8601H28.3606V35.996ZM29.6274 38.5818H37.3337C37.1793 39.1712 37.0944 39.7767 37.0809 40.3858H29.6274V38.5818ZM28.3606 41.1074H37.1013C37.1473 41.7412 37.27 42.3671 37.4667 42.9715H28.3606V41.1074Z" fill="#E00000"/>
<defs>
<filter id="filter0_f_3557_12763" x="7.63672" y="0" width="64.9717" height="68.275" filterUnits="userSpaceOnUse" color-interpolation-filters="sRGB">
<feFlood flood-opacity="0" result="BackgroundImageFix"/>
<feBlend mode="normal" in="SourceGraphic" in2="BackgroundImageFix" result="shape"/>
<feGaussianBlur stdDeviation="10" result="effect1_foregroundBlur_3557_12763"/>
</filter>
</defs>
</svg>
