<svg width="80" height="80" viewBox="0 0 80 80" fill="none" xmlns="http://www.w3.org/2000/svg">
<g filter="url(#filter0_d_4797_5947)">
<path d="M34.5958 26.6084C34.804 26.6084 35.0058 26.497 35.1117 26.3009L35.6198 25.3607C35.7736 25.0761 35.6676 24.7207 35.383 24.5669C35.0982 24.413 34.7429 24.5192 34.5892 24.8037L34.0811 25.7439C33.9272 26.0285 34.0333 26.384 34.3179 26.5377C34.4064 26.5856 34.5017 26.6084 34.5958 26.6084Z" fill="white"/>
<path d="M40.5788 26.0867V25.0179C40.5788 24.6944 40.3165 24.4321 39.993 24.4321C39.6695 24.4321 39.4072 24.6944 39.4072 25.0179V26.0867C39.4072 26.4102 39.6695 26.6724 39.993 26.6724C40.3165 26.6724 40.5788 26.4102 40.5788 26.0867Z" fill="white"/>
<path d="M45.4043 26.6004C45.5041 26.6004 45.6052 26.5748 45.6977 26.5213C45.9776 26.3589 46.0729 26.0005 45.9105 25.7206L45.3743 24.7961C45.212 24.5163 44.8536 24.421 44.5737 24.5833C44.2939 24.7456 44.1986 25.1041 44.3609 25.3839L44.8971 26.3084C45.0058 26.4957 45.2023 26.6004 45.4043 26.6004Z" fill="white"/>
<path d="M60 38.0351V37.519C60 36.4249 59.4489 35.4575 58.6101 34.8784C58.8075 34.719 58.9855 34.5312 59.1379 34.3157C59.6575 33.5808 59.788 32.6344 59.4872 31.784C58.7606 29.7301 57.2506 26.7723 54.183 24.3453C50.6461 21.547 45.8771 20.085 40.0084 20.0001C40.0028 20 39.9971 20 39.9915 20.0001C37.3391 20.0384 34.882 20.3629 32.6884 20.9646C32.3765 21.0501 32.1929 21.3725 32.2784 21.6844C32.364 21.9964 32.6863 22.1801 32.9983 22.0944C35.0941 21.5196 37.4497 21.2091 39.9999 21.1716C52.6729 21.3583 56.9572 28.1451 58.3826 32.1747C58.5594 32.6744 58.4859 33.2082 58.1812 33.6394C57.879 34.0668 57.4051 34.3119 56.881 34.3119H23.1187C22.5927 34.3119 22.1163 34.0654 21.8118 33.6354C21.5109 33.2106 21.437 32.6868 21.6089 32.1983C22.648 29.2455 25.0344 25.2443 30.5015 22.9515C30.7998 22.8263 30.9403 22.4831 30.8152 22.1847C30.69 21.8863 30.3466 21.7461 30.0484 21.8711C27.3864 22.9875 25.1589 24.6004 23.428 26.6651C22.1543 28.1843 21.1705 29.9151 20.5038 31.8094C20.2041 32.6612 20.3323 33.5735 20.8558 34.3125C21.0082 34.5278 21.1895 34.7167 21.3913 34.8775C20.5516 35.4565 20 36.4244 20 37.519V38.0351C20 39.5819 21.1007 40.8764 22.5599 41.1766L22.5482 44.6747C21.0949 44.9795 20 46.2707 20 47.8132V48.3293C20 49.8752 21.0995 51.169 22.5576 51.4702C22.5183 52.0867 22.5384 53.0872 22.8939 54.2003C23.852 57.2003 26.4466 58.629 28.4544 59.2993C29.6123 59.6858 30.8488 59.8818 32.1297 59.8818H47.8704C49.1512 59.8818 50.3877 59.6858 51.5456 59.2993C53.5535 58.629 56.1481 57.2003 57.1061 54.2003C57.4616 53.0872 57.4817 52.0867 57.4424 51.4702C58.9005 51.1691 60 49.8752 60 48.3293V47.8132C60 46.2665 58.8991 44.9732 57.4401 44.673V41.1766C58.8993 40.8765 60 39.5819 60 38.0351ZM21.1716 48.3293V47.8132C21.1716 46.923 21.7466 46.1662 22.5442 45.8904L22.543 46.2357C22.543 47.0672 23.0094 47.804 23.7599 48.1588C24.5148 48.5156 25.3858 48.407 26.0326 47.8755C26.3352 47.6268 26.7035 47.3967 27.3445 47.3967C27.4119 47.3967 27.4754 47.3994 27.5373 47.4033V50.3649H23.2071C22.0847 50.3649 21.1716 49.4517 21.1716 48.3293ZM44.5147 43.7472H56.2685V46.2359C56.2685 46.6154 56.0644 46.9383 55.7226 47.0998C55.3763 47.2634 54.992 47.2151 54.6945 46.9706C54.2721 46.6235 53.6567 46.2251 52.6381 46.2251C51.3804 46.2251 50.7355 46.7358 50.1666 47.1865C49.6671 47.5822 49.2725 47.8947 48.4225 47.8947C47.5724 47.8947 47.1779 47.5822 46.6784 47.1865C46.1095 46.7359 45.4646 46.2251 44.2068 46.2251C42.949 46.2251 42.276 46.7582 41.7352 47.1865C41.2357 47.5822 40.8412 47.8947 39.9912 47.8947C39.1413 47.8947 38.7467 47.5822 38.2473 47.1865C37.7066 46.7582 37.0335 46.2251 35.7758 46.2251C34.518 46.2251 33.8732 46.7358 33.3042 47.1865C32.9481 47.4687 32.644 47.7074 32.1913 47.8216V44.5233C32.1913 44.0953 32.5395 43.7472 32.9674 43.7472H41.7679C42.0914 43.7472 42.3537 43.4849 42.3537 43.1614C42.3537 42.8379 42.0914 42.5756 41.7679 42.5756H32.9673C31.8934 42.5756 31.0197 43.4493 31.0197 44.5233V51.7374C31.0197 52.3745 30.5014 52.8929 29.8643 52.8929C29.2272 52.8929 28.7089 52.3745 28.7089 51.7374V44.5233C28.7089 43.4493 27.8352 42.5756 26.7613 42.5756H23.7315V41.2423H56.2685V42.5756H44.5147C44.1912 42.5756 43.9289 42.8379 43.9289 43.1614C43.9289 43.4849 44.1912 43.7472 44.5147 43.7472ZM26.7612 43.7472C27.1891 43.7472 27.5373 44.0953 27.5373 44.5233V46.23C27.4746 46.2271 27.4108 46.2251 27.3445 46.2251C26.3262 46.2251 25.7109 46.6233 25.2887 46.9702C24.9911 47.2147 24.6068 47.2631 24.2604 47.0994C23.9186 46.9379 23.7145 46.615 23.7145 46.2356V43.7472H26.7612ZM55.9901 53.8439C55.341 55.8765 53.7209 57.338 51.1746 58.188C50.1366 58.5345 49.0248 58.7102 47.8703 58.7102H32.1297C30.9752 58.7102 29.8634 58.5345 28.8254 58.188C23.8375 56.5229 23.6286 52.845 23.7232 51.5364H27.5374V51.7373C27.5374 53.0204 28.5813 54.0644 29.8644 54.0644C31.1475 54.0644 32.1913 53.0205 32.1913 51.7373V51.5364H56.2738C56.3069 52.0368 56.295 52.889 55.9901 53.8439ZM58.8284 47.8132V48.3293C58.8284 49.4517 57.9152 50.3649 56.7928 50.3649H32.1912V49.0174C33.0502 48.8804 33.5668 48.473 34.0316 48.1049C34.5311 47.7092 34.9257 47.3967 35.7757 47.3967C36.6257 47.3967 37.0202 47.7092 37.5197 48.1049C38.0605 48.5333 38.7334 49.0664 39.9912 49.0664C41.2489 49.0664 41.8938 48.5556 42.4627 48.1049C42.9622 47.7092 43.3567 47.3967 44.2067 47.3967C45.0568 47.3967 45.4513 47.7092 45.9509 48.1049C46.5198 48.5555 47.1646 49.0664 48.4224 49.0664C49.6802 49.0664 50.3251 48.5556 50.894 48.1049C51.3935 47.7092 51.788 47.3967 52.638 47.3967C53.2792 47.3967 53.6477 47.6269 53.9505 47.8758C54.5972 48.4073 55.468 48.516 56.223 48.1592C56.9737 47.8045 57.44 47.0676 57.44 46.236V45.8838C58.2461 46.1548 58.8284 46.917 58.8284 47.8132ZM56.7929 40.0708H23.2071C22.0847 40.0708 21.1715 39.1576 21.1715 38.0351V37.519C21.1715 36.3966 22.0847 35.4834 23.2071 35.4834H56.7928C57.9152 35.4834 58.8284 36.3966 58.8284 37.519V38.0351C58.8284 39.1576 57.9153 40.0708 56.7929 40.0708Z" fill="white"/>
</g>
<defs>
<filter id="filter0_d_4797_5947" x="0" y="-0.059082" width="80" height="80" filterUnits="userSpaceOnUse" color-interpolation-filters="sRGB">
<feFlood flood-opacity="0" result="BackgroundImageFix"/>
<feColorMatrix in="SourceAlpha" type="matrix" values="0 0 0 0 0 0 0 0 0 0 0 0 0 0 0 0 0 0 127 0" result="hardAlpha"/>
<feOffset/>
<feGaussianBlur stdDeviation="10"/>
<feComposite in2="hardAlpha" operator="out"/>
<feColorMatrix type="matrix" values="0 0 0 0 1 0 0 0 0 1 0 0 0 0 1 0 0 0 0.5 0"/>
<feBlend mode="normal" in2="BackgroundImageFix" result="effect1_dropShadow_4797_5947"/>
<feBlend mode="normal" in="SourceGraphic" in2="effect1_dropShadow_4797_5947" result="shape"/>
</filter>
</defs>
</svg>
