<svg width="62" height="17" viewBox="0 0 62 17" fill="none" xmlns="http://www.w3.org/2000/svg">
<path fill-rule="evenodd" clip-rule="evenodd" d="M29.5689 9.74876V16.9312H27.4775V9.74876H23.3186V8.18579H33.7278V9.74876H29.5689Z" fill="white"/>
<path fill-rule="evenodd" clip-rule="evenodd" d="M20.1039 8.08984C20.5594 8.08981 21.0056 8.21882 21.3908 8.46191C21.776 8.70501 22.0845 9.05225 22.2805 9.46342C22.4765 9.8746 22.552 10.3329 22.4983 10.7852C22.4446 11.2375 22.2638 11.6654 21.977 12.0192C22.4023 12.3988 22.7022 12.8986 22.8371 13.4525C22.972 14.0063 22.9355 14.5881 22.7324 15.1208C22.5293 15.6534 22.1691 16.1118 21.6997 16.4352C21.2302 16.7586 20.6736 16.9318 20.1035 16.9318C19.5335 16.9318 18.9769 16.7586 18.5074 16.4352C18.038 16.1118 17.6778 15.6534 17.4747 15.1208C17.2716 14.5881 17.2351 14.0063 17.37 13.4525C17.5049 12.8986 17.8048 12.3988 18.2301 12.0192C17.9433 11.6653 17.7625 11.2375 17.7088 10.7851C17.6551 10.3327 17.7306 9.87443 17.9267 9.46324C18.1227 9.05206 18.4313 8.70482 18.8165 8.46175C19.2018 8.21869 19.648 8.08974 20.1035 8.08984H20.1039ZM20.1039 12.886C19.9403 12.883 19.7777 12.9127 19.6256 12.9733C19.4736 13.0339 19.3351 13.1242 19.2184 13.2389C19.1016 13.3536 19.0088 13.4904 18.9455 13.6413C18.8822 13.7922 18.8496 13.9543 18.8496 14.118C18.8496 14.2816 18.8822 14.4437 18.9455 14.5946C19.0088 14.7456 19.1016 14.8824 19.2184 14.9971C19.3351 15.1118 19.4736 15.202 19.6256 15.2626C19.7777 15.3232 19.9403 15.3529 20.1039 15.35C20.4269 15.3442 20.7346 15.2118 20.9609 14.9814C21.1872 14.751 21.314 14.4409 21.314 14.118C21.314 13.795 21.1872 13.4849 20.9609 13.2545C20.7346 13.0241 20.4269 12.8918 20.1039 12.886ZM20.1039 9.60101C19.9835 9.59742 19.8635 9.61806 19.7511 9.66169C19.6388 9.70531 19.5363 9.77105 19.4498 9.855C19.3634 9.93895 19.2946 10.0394 19.2477 10.1504C19.2007 10.2614 19.1765 10.3807 19.1765 10.5013C19.1765 10.6218 19.2007 10.7411 19.2477 10.8521C19.2946 10.9631 19.3634 11.0636 19.4498 11.1475C19.5363 11.2315 19.6388 11.2972 19.7511 11.3408C19.8635 11.3844 19.9835 11.4051 20.1039 11.4015C20.3381 11.3945 20.5603 11.2966 20.7234 11.1286C20.8866 10.9605 20.9778 10.7355 20.9778 10.5013C20.9778 10.267 20.8866 10.042 20.7234 9.87394C20.5603 9.70588 20.3381 9.60798 20.1039 9.60101Z" fill="#E00000"/>
<path fill-rule="evenodd" clip-rule="evenodd" d="M41.8244 9.69106H37.0164V12.116H41.8244C42.0836 12.1415 42.3442 12.0852 42.5697 11.955C42.7263 11.8131 42.8024 11.6079 42.7741 11.4035V10.4032C42.7849 10.3017 42.7721 10.1991 42.7366 10.1034C42.7012 10.0077 42.644 9.92156 42.5697 9.85166C42.3441 9.72165 42.0835 9.66549 41.8244 9.69106ZM34.9728 16.9313V8.18548H42.7139C43.2576 8.13976 43.8005 8.28167 44.2522 8.58758C44.4258 8.75327 44.5593 8.95636 44.6427 9.1814C44.726 9.40645 44.757 9.64753 44.7332 9.88633V11.9435C44.7569 12.1805 44.7259 12.4198 44.6426 12.6429C44.5592 12.8661 44.4258 13.0672 44.2526 13.2307C43.7961 13.5254 43.2557 13.6625 42.7139 13.6212H41.512L45.6107 16.9313H42.6418L39.0356 13.6212H37.0407V16.9313H34.9732H34.9728ZM47.029 16.9313V8.18588H49.1089V16.9313H47.029ZM50.3164 16.9313L54.5713 12.4492L50.2442 8.18588H53.057L55.9418 11.0129L58.6704 8.18588H61.0866L57.168 12.1965L62 16.9309H59.1271L55.8338 13.6559L52.8047 16.9313H50.3164ZM25.8345 3.0853H23.6944V5.48913H25.8345V4.63591L26.3513 4.74391V5.12848C26.3773 5.34528 26.3214 5.56396 26.1947 5.74179C26.1157 5.80403 26.0251 5.84991 25.9281 5.87673C25.8311 5.90355 25.7298 5.91079 25.63 5.89801H23.8989C23.7991 5.91079 23.6978 5.90355 23.6008 5.87673C23.5039 5.84991 23.4132 5.80403 23.3342 5.74179C23.2126 5.56163 23.1574 5.34484 23.178 5.12848V3.40969C23.1575 3.19345 23.2127 2.97682 23.3342 2.79677C23.4123 2.73242 23.5025 2.68439 23.5995 2.6555C23.6965 2.62662 23.7983 2.61747 23.8989 2.6286H25.6539C25.7546 2.61742 25.8565 2.62654 25.9535 2.65542C26.0506 2.68431 26.1409 2.73237 26.219 2.79677C26.3454 2.97451 26.4012 3.19329 26.3753 3.40969V3.72212L25.8584 3.81856V3.0853H25.8345ZM31.0032 4.68373H32.6738L31.8325 3.01316L31.0032 4.68373ZM29.8973 5.88605L31.5798 2.60429H32.121L33.8398 5.88605H33.2747L32.8662 5.12887H30.7868L30.462 5.90996L29.8973 5.88605ZM40.2587 3.0853H38.0708V3.99869H40.0782C40.2798 3.97411 40.4829 4.03027 40.6432 4.15491C40.7596 4.33703 40.8106 4.55342 40.7875 4.76822V5.12848C40.8106 5.34337 40.7597 5.55972 40.6432 5.74179C40.5642 5.80409 40.4735 5.84999 40.3764 5.87681C40.2794 5.90364 40.178 5.91084 40.0782 5.89801H38.2753C38.1706 5.91757 38.063 5.91484 37.9594 5.88998C37.8559 5.86512 37.7587 5.8187 37.6743 5.75374C37.5362 5.57617 37.4716 5.35233 37.4938 5.12848V5.04479L37.9748 4.92444V5.45327H40.2702V4.46774H38.3358C38.1304 4.49282 37.9233 4.43662 37.7588 4.31112C37.6631 4.12193 37.6335 3.90617 37.6747 3.69821V3.40969C37.6517 3.19492 37.7026 2.97872 37.819 2.79677C37.8992 2.73207 37.9915 2.6839 38.0905 2.65504C38.1895 2.62617 38.2932 2.61719 38.3956 2.6286H40.0303C40.1309 2.61747 40.2327 2.62662 40.3297 2.6555C40.4267 2.68439 40.5169 2.73242 40.595 2.79677C40.7177 2.95335 40.7738 3.1519 40.7512 3.34951V3.42164L40.3189 3.55395V3.0853H40.2587ZM45.0787 5.90996V2.64055H45.5956V5.90996H45.0787ZM49.9828 5.90996V2.6286H50.3076L52.615 4.82839L52.7836 5.00852L52.9641 5.23687V2.6286H53.4328V5.90996H53.1442L50.7404 3.63843C50.638 3.54705 50.5489 3.44175 50.4758 3.3256V5.90996H49.9828ZM58.2528 5.45327H60.8013V3.04903H58.2528V5.45327ZM57.7359 3.40969C57.71 3.19306 57.7657 2.97455 57.8921 2.79677C57.9703 2.73237 58.0606 2.68431 58.1576 2.65542C58.2547 2.62654 58.3566 2.61742 58.4572 2.6286H60.5968C60.6975 2.61742 60.7994 2.62654 60.8964 2.65542C60.9935 2.68431 61.0838 2.73237 61.1619 2.79677C61.2783 2.97889 61.3293 3.19528 61.3058 3.40969V5.12848C61.329 5.34333 61.2783 5.55967 61.1619 5.74179C61.0829 5.80409 60.9921 5.84999 60.8951 5.87681C60.7981 5.90364 60.6967 5.91084 60.5968 5.89801H58.4568C58.3561 5.91207 58.2536 5.90434 58.1562 5.87532C58.0588 5.84631 57.9687 5.79669 57.8921 5.72983C57.7664 5.55612 57.7106 5.34144 57.7359 5.12848V3.40969ZM16.1793 16.9193V0L8.16515 9.2774C8.54015 9.63647 9.03909 10.2338 9.66157 11.0699L13.7065 6.95805V16.9313L16.1793 16.9193ZM0.00956431 0.108396L0 3.04624C1.28162 3.57945 2.97929 4.59646 5.4178 6.71815L0.00996289 0.108396H0.00956431ZM0 16.9313H2.40384V8.22493C1.72995 7.72081 0.67309 7.01743 0 6.68667V16.9313Z" fill="white"/>
<path fill-rule="evenodd" clip-rule="evenodd" d="M0 3.6145V6.11836C2.25519 7.26728 5.9797 10.3438 7.69411 12.8664L9.3069 11.3943C7.2677 8.70711 3.13033 4.90808 0 3.6145Z" fill="#E00000"/>
</svg>
