<svg width="110" height="60" viewBox="0 0 110 60" fill="none" xmlns="http://www.w3.org/2000/svg">
<path d="M74.6982 9H71.5203C71.1723 9 70.8904 9.28194 70.8904 9.62988C70.8904 9.97783 71.1723 10.2598 71.5203 10.2598H74.6982C74.7213 10.2598 74.7402 10.2787 74.7402 10.3018V42.2108C74.7402 42.2335 74.721 42.2528 74.6982 42.2528H71.7957V14.1079C71.7957 13.3901 71.2118 12.8062 70.494 12.8062H51.3573V10.3018C51.3573 10.279 51.3765 10.2598 51.3993 10.2598H68.5808C68.9288 10.2598 69.2107 9.97783 69.2107 9.62988C69.2107 9.28194 68.9288 9 68.5808 9H51.3993C50.6815 9 50.0975 9.58394 50.0975 10.3018V12.8062H47.195C46.4772 12.8062 45.8933 13.3901 45.8933 14.1079V24.5715C45.8933 24.9195 46.1753 25.2014 46.5232 25.2014C46.871 25.2014 47.153 24.9195 47.153 24.5715V14.1079C47.153 14.0848 47.1719 14.0659 47.195 14.0659H70.494C70.5171 14.0659 70.536 14.0848 70.536 14.1079V46.017C70.536 46.0401 70.5171 46.0589 70.494 46.0589H50.9432C51.3449 45.0215 51.5658 43.8947 51.5658 42.7171C51.5658 39.3834 49.7991 36.4551 47.153 34.8178V27.511C47.153 27.163 46.871 26.8811 46.5232 26.8811C46.1753 26.8811 45.8933 27.163 45.8933 27.511V34.1652C44.7829 33.6946 43.5627 33.4342 42.2829 33.4342C37.1643 33.4342 33 37.5985 33 42.7171C33 47.8357 37.1643 52 42.2829 52C45.7283 52 48.741 50.1132 50.3428 47.3187H70.494C71.2118 47.3187 71.7957 46.7348 71.7957 46.017V43.5125H74.6982C75.4161 43.5125 76 42.9286 76 42.2108V10.3018C76 9.58394 75.4161 9 74.6982 9ZM48.3811 47.9247L46.7883 46.3319C47.4607 45.4955 47.9056 44.4693 48.0279 43.3471H50.2814C50.1456 45.0866 49.4525 46.6719 48.3811 47.9247ZM34.2845 43.3471H36.5379C36.6601 44.4693 37.1051 45.4954 37.7775 46.3318L36.1847 47.9246C35.1133 46.6719 34.4202 45.0866 34.2845 43.3471ZM36.1845 37.5098L37.7773 39.1025C37.105 39.9389 36.66 40.9651 36.5378 42.0873H34.2844C34.4201 40.3478 35.1132 38.7626 36.1845 37.5098ZM47.4903 36.6188L45.8976 38.2116C45.0612 37.5392 44.0349 37.0943 42.9126 36.972V34.7186C44.6522 34.8544 46.2375 35.5475 47.4903 36.6188ZM50.2814 42.0873H48.0279C47.9057 40.9651 47.4608 39.9389 46.7884 39.1024L48.3812 37.5097C49.4525 38.7625 50.1457 40.3478 50.2814 42.0873ZM42.2839 47.2373C42.2835 47.2373 42.2831 47.2372 42.2828 47.2372C42.2825 47.2372 42.2821 47.2372 42.2817 47.2372C39.7901 47.2367 37.7633 45.2098 37.7627 42.7182C37.7627 42.7179 37.7628 42.7175 37.7628 42.7171C37.7628 42.7168 37.7627 42.7164 37.7627 42.716C37.7633 40.2255 39.7884 38.1994 42.2784 38.1969C42.2799 38.1969 42.2813 38.1971 42.2827 38.1971C42.2842 38.1971 42.2856 38.1969 42.2871 38.1968C44.7765 38.1992 46.8012 40.2242 46.8029 42.7138C46.8029 42.7149 46.8027 42.7159 46.8027 42.717C46.8027 42.7181 46.8029 42.7191 46.8029 42.7202C46.8012 45.211 44.7748 47.2367 42.2839 47.2373ZM41.6529 36.9721C40.5307 37.0944 39.5045 37.5392 38.6681 38.2117L37.0753 36.6189C38.3281 35.5475 39.9134 34.8544 41.6529 34.7187V36.9721ZM38.6682 47.2226C39.5046 47.895 40.5307 48.3399 41.6529 48.4622V50.7156C39.9134 50.5799 38.3282 49.8868 37.0754 48.8155L38.6682 47.2226ZM42.9127 48.4622C44.0349 48.34 45.0611 47.895 45.8975 47.2227L47.4902 48.8155C46.2374 49.8868 44.6522 50.5799 42.9127 50.7156V48.4622Z" fill="white" fill-opacity="0.2"/>
<path d="M51.7856 16.2116C51.7834 16.2059 51.7811 16.2 51.7787 16.1943C51.6666 15.9217 51.4039 15.7458 51.1092 15.7458C51.1089 15.7458 51.1087 15.7458 51.1084 15.7458C50.8135 15.7461 50.5507 15.9227 50.439 16.1957C50.4371 16.2005 50.4353 16.2051 50.4334 16.21L48.8742 20.304C48.7504 20.6291 48.9136 20.993 49.2386 21.1168C49.5636 21.2407 49.9275 21.0774 50.0514 20.7523L50.2852 20.1384H51.921L52.152 20.7506C52.2472 21.0028 52.4868 21.1582 52.7415 21.1582C52.8153 21.1582 52.8906 21.1451 52.9637 21.1175C53.2891 20.9947 53.4535 20.6313 53.3306 20.3058L51.7856 16.2116ZM50.7651 18.8787L51.1069 17.9812L51.4456 18.8787H50.7651Z" fill="white" fill-opacity="0.2"/>
<path d="M64.7255 39.0074C64.4 39.1302 64.2358 39.4936 64.3586 39.8191L65.9037 43.9133C65.9058 43.9189 65.9081 43.9247 65.9103 43.9303C66.0224 44.203 66.2852 44.3791 66.58 44.3791H66.5809C66.876 44.3788 67.1388 44.2021 67.2503 43.9289C67.2521 43.9242 67.254 43.9197 67.2558 43.9149L68.815 39.8208C68.9389 39.4958 68.7756 39.1319 68.4505 39.008C68.1258 38.8841 67.7616 39.0473 67.6377 39.3725L67.4039 39.9865H65.7681L65.5371 39.3743C65.4144 39.0489 65.051 38.8847 64.7255 39.0074ZM66.9242 41.2461L66.5824 42.1437L66.2437 41.2461H66.9242Z" fill="white" fill-opacity="0.2"/>
<path d="M59.0681 25.2769L58.8446 25.5004L58.6211 25.2769C57.8987 24.5545 56.9384 24.1567 55.9169 24.1567C54.8953 24.1567 53.9348 24.5545 53.2125 25.2769C52.4901 25.9993 52.0923 26.9597 52.0923 27.9812C52.0923 29.0027 52.4901 29.9632 53.2125 30.6855L58.248 35.7212C58.4125 35.8856 58.6285 35.9679 58.8446 35.9679C59.0607 35.9679 59.2767 35.8857 59.4413 35.7212L64.4769 30.6855C65.968 29.1943 65.968 26.768 64.4769 25.2769C63.7544 24.5545 62.7941 24.1567 61.7725 24.1567C60.7509 24.1567 59.7905 24.5545 59.0681 25.2769ZM63.586 29.7947L58.8446 34.5361L54.1032 29.7947C53.6188 29.3103 53.3521 28.6662 53.3521 27.9812C53.3521 27.2962 53.6188 26.6521 54.1033 26.1676C54.5877 25.6832 55.2318 25.4164 55.9169 25.4164C56.6018 25.4164 57.2459 25.6833 57.7303 26.1677L58.3115 26.7488C58.6055 27.0423 59.0839 27.0421 59.3783 26.7484L59.959 26.1676C60.4434 25.6832 61.0875 25.4164 61.7725 25.4164C62.4576 25.4164 63.1016 25.6833 63.5861 26.1676V26.1677C64.586 27.1676 64.586 28.7947 63.586 29.7947Z" fill="white" fill-opacity="0.2"/>
</svg>
